<?xml version="1.0" encoding="utf-8"?>
<!-- Generator: Adobe Illustrator 24.3.0, SVG Export Plug-In . SVG Version: 6.00 Build 0)  -->
<svg version="1.1" xmlns="http://www.w3.org/2000/svg" xmlns:xlink="http://www.w3.org/1999/xlink" x="0px" y="0px"
	 viewBox="0 0 538.6 708.7" style="enable-background:new 0 0 538.6 708.7;" xml:space="preserve">
<style type="text/css">
	.st0{fill:none;stroke:#E60012;stroke-width:0.75;stroke-miterlimit:10;}
	.st1{fill:#D70C18;}
	.st2{fill:#5F5D5B;}
	.st3{fill:#B6B6B2;}
	.st4{fill:none;stroke:#261512;stroke-width:0.75;}
	.st5{fill:#261512;}
	.st6{font-family:'LiHeiPro';}
	.st7{font-size:24px;}
	.st8{font-size:8px;}
	.st9{font-size:12px;}
</style>
<g id="星耀">
	
		<image style="overflow:visible;" width="1254" height="1254" xlink:href="冰川白.png"  transform="matrix(0.321 0 0 0.321 77.7883 130.0161)">
	</image>
</g>
<g id="圖案放置圖層">
</g>
<g id="印刷範圍">
	<path class="st0" d="M337.1,489.6H194.4v-71.9h142.7V489.6z M195.4,488.6h140.7v-69.9H195.4V488.6z"/>
</g>
<g id="文字">
	<g>
		<g>
			<g>
				<path class="st1" d="M46.9,77.5c0.9,0,1.7,0.3,2.4,1c0.7,0.7,1,1.5,1,2.4c0,0.9-0.3,1.7-1,2.4c-0.7,0.7-1.5,1-2.4,1
					c-0.9,0-1.7-0.3-2.4-1c-0.7-0.7-1-1.5-1-2.4c0-0.9,0.3-1.7,1-2.4C45.2,77.8,46,77.5,46.9,77.5z"/>
				<path class="st1" d="M57.5,75.2l0.8,0.5c0,0.1,0.1,0.1,0.1,0.1c0,0.1-0.1,0.1-0.2,0.1c-0.2,0-0.3,0-0.3,0.1
					c-0.4,0.5-0.7,1-1.1,1.5c0.3,0.2,0.5,0.5,0.8,0.8c0-0.1,0.1-0.1,0.1-0.2c0.5-0.6,0.9-1.1,1.2-1.6c0.4,0.4,0.7,0.6,0.7,0.6
					c0,0,0,0.1-0.1,0.1c-0.2,0-0.3,0-0.4,0.1c-0.7,0.9-1.3,1.8-2,2.5c0.5-0.1,1.2-0.2,1.9-0.3c-0.1-0.2-0.2-0.4-0.3-0.7
					c0,0,0.2-0.2,0.5-0.3c0.2,0.5,0.4,0.9,0.5,1.2c0.1,0.3,0.2,0.7,0.3,1.1c0,0-0.2,0.1-0.6,0.2c0-0.3-0.1-0.6-0.2-0.9
					c0-0.1,0-0.1-0.1-0.2l-1.2,0.4v4.4c0,0.1-0.1,0.1-0.2,0.1h-0.4c-0.1,0-0.1,0-0.1-0.1v-4.2L55.8,81c-0.2,0.2-0.3,0.2-0.3,0.2
					c0,0-0.1-0.3-0.2-0.9c0-0.1,0.2-0.1,0.7-0.2c0.4-0.5,0.8-1,1.1-1.4c-0.4-0.3-0.7-0.6-0.9-0.7c-0.3-0.2-0.6-0.4-1-0.5
					c0-0.1,0.1-0.2,0.4-0.5c0,0,0.1-0.1,0.1-0.1c0.1,0.1,0.2,0.2,0.4,0.2c0.2-0.3,0.4-0.5,0.6-0.8C57.1,75.8,57.4,75.5,57.5,75.2z
					 M56.2,81.5c0.5,0.1,0.8,0.2,0.8,0.3c0,0.1,0,0.1-0.1,0.2c-0.1,0.1-0.1,0.1-0.2,0.2c-0.1,0.6-0.2,1.1-0.3,1.5
					c-0.1,0.2-0.2,0.4-0.3,0.7c0,0.1-0.1,0.1-0.1,0.1c-0.2-0.1-0.4-0.1-0.6-0.2c-0.1,0-0.1,0-0.1-0.1c0.2-0.3,0.3-0.6,0.4-1
					c0.1-0.3,0.2-0.9,0.3-1.5C56,81.5,56.1,81.5,56.2,81.5z M59,81.3C59,81.3,59,81.4,59,81.3c0.2,0.5,0.4,1.1,0.7,2
					c0,0.1-0.2,0.1-0.6,0.2c-0.1,0-0.1,0-0.1-0.1c-0.1-0.6-0.2-1.2-0.5-1.9C58.4,81.5,58.6,81.4,59,81.3z M60,76.1h4.6
					c0.1,0,0.1,0.1,0.1,0.2v0.3c0,0.1,0,0.2-0.1,0.2h-2v6.8h2.3c0.1,0,0.1,0.1,0.1,0.2v0.3c0,0.1,0,0.2-0.1,0.2h-5.1
					c-0.1,0-0.1-0.1-0.1-0.2v-0.3c0-0.1,0-0.2,0.1-0.2h2.1v-6.8H60c-0.1,0-0.1-0.1-0.1-0.2v-0.3C59.9,76.2,59.9,76.1,60,76.1z"/>
				<path class="st1" d="M66.1,77.6h1.3v-2.1c0-0.1,0.1-0.1,0.2-0.1c0.5,0,0.8,0,0.8,0.1c0,0.1,0,0.1-0.1,0.2
					c-0.1,0-0.1,0.1-0.1,0.2v1.7h1c0.1,0,0.1,0.1,0.1,0.2v0.3c0,0.1,0,0.2-0.1,0.2h-0.9c0.2,0.5,0.3,0.8,0.4,1.1
					c0.2,0.4,0.5,0.8,0.9,1.3c0,0,0.1,0.1,0.1,0.1c0,0,0,0.1-0.1,0.1c-0.1,0.1-0.2,0.2-0.3,0.3c0,0.1-0.1,0.1-0.1,0.1
					c0,0-0.1,0-0.1-0.1c-0.3-0.4-0.5-0.8-0.7-1.2c0-0.1-0.1-0.1-0.1-0.2v5c0,0.1-0.1,0.1-0.2,0.1h-0.4c-0.1,0-0.2,0-0.2-0.1v-4.5
					c-0.1,0.3-0.2,0.5-0.4,0.7c-0.2,0.4-0.4,0.7-0.7,1.1c-0.1,0-0.1,0-0.2-0.1c-0.2-0.1-0.3-0.1-0.4-0.2c-0.1,0-0.1,0-0.1-0.1
					c0.3-0.4,0.6-0.8,0.8-1.2c0.2-0.4,0.4-0.8,0.5-1.1c0.1-0.2,0.2-0.6,0.3-1.1h-1.2c-0.1,0-0.1-0.1-0.1-0.2v-0.3
					C66,77.7,66,77.6,66.1,77.6z M70.5,76.3v7.5h5c0.1,0,0.1,0.1,0.1,0.2v0.3c0,0.1,0,0.2-0.1,0.2h-5v0.4c0,0.1-0.1,0.1-0.2,0.1
					h-0.4c-0.1,0-0.2,0-0.2-0.1v-9c0-0.1,0.1-0.2,0.2-0.2h5.4c0.1,0,0.1,0.1,0.1,0.2v0.3c0,0.1,0,0.2-0.1,0.2H70.5z M71,77.3h4.1
					c0.1,0,0.1,0.1,0.1,0.2v0.3c0,0.1,0,0.2-0.1,0.2h-1.7v1.8H75c0.1,0,0.1,0.1,0.1,0.2v0.3c0,0.1,0,0.2-0.1,0.2h-1.6v1.8h1.8
					c0.1,0,0.1,0.1,0.1,0.2v0.3c0,0.1,0,0.2-0.1,0.2H71c-0.1,0-0.1-0.1-0.1-0.2v-0.3c0-0.1,0-0.2,0.1-0.2h1.7v-1.8h-1.5
					c-0.1,0-0.1-0.1-0.1-0.2v-0.3c0-0.1,0-0.2,0.1-0.2h1.5v-1.8H71c-0.1,0-0.1-0.1-0.1-0.2v-0.3C70.9,77.3,70.9,77.3,71,77.3z"/>
				<path class="st1" d="M76.8,81.4c0.5,0.1,0.7,0.2,0.7,0.2c0,0.1,0,0.1-0.1,0.1c-0.1,0-0.1,0.1-0.1,0.2c-0.1,0.6-0.1,1.1-0.2,1.5
					c-0.1,0.2-0.1,0.4-0.2,0.7c0,0,0,0.1-0.1,0.1c-0.2-0.1-0.4-0.1-0.6-0.1c-0.1,0-0.1,0-0.1-0.1c0.1-0.3,0.2-0.6,0.3-1
					c0.1-0.3,0.2-0.9,0.2-1.5C76.7,81.4,76.8,81.4,76.8,81.4z M78.4,75.2l0.8,0.4c0,0.1,0.1,0.1,0.1,0.1c0,0.1-0.1,0.1-0.2,0.1
					c-0.2,0-0.3,0-0.3,0.1c-0.4,0.5-0.7,1.1-1.1,1.5c0.2,0.2,0.4,0.4,0.6,0.7c0,0,0,0,0,0c0.4-0.5,0.7-1,1-1.5
					c0.5,0.4,0.7,0.6,0.7,0.7c0,0,0,0.1-0.1,0.1c-0.2,0-0.3,0-0.3,0.1c-0.6,0.8-1.2,1.6-1.8,2.3c0.5-0.1,1-0.1,1.7-0.2
					c-0.1-0.2-0.2-0.5-0.3-0.7c0,0,0.2-0.2,0.5-0.3c0.2,0.4,0.3,0.7,0.4,1.1c0.1,0.3,0.2,0.6,0.3,0.9c0,0-0.2,0.1-0.6,0.2
					c0-0.2-0.1-0.4-0.2-0.7l-0.9,0.2v4.4c0,0.1-0.1,0.1-0.2,0.1h-0.4c-0.1,0-0.2,0-0.2-0.1v-4.2l-1.1,0.3c-0.2,0.2-0.3,0.3-0.3,0.3
					c0,0-0.1-0.3-0.2-1c0,0,0.2-0.1,0.5-0.1c0.4-0.5,0.8-1,1.1-1.4c-0.3-0.3-0.6-0.5-0.7-0.6c-0.3-0.2-0.5-0.4-0.8-0.5
					c0-0.1,0.1-0.2,0.4-0.5c0,0,0-0.1,0.1-0.1c0.1,0.1,0.2,0.1,0.3,0.2c0.2-0.3,0.4-0.5,0.5-0.8C78,75.8,78.2,75.5,78.4,75.2z
					 M79.5,81.3C79.6,81.3,79.6,81.3,79.5,81.3c0.2,0.5,0.4,1.1,0.6,2.1c0,0.1-0.2,0.1-0.6,0.2c-0.1,0-0.1,0-0.1-0.1
					c-0.1-0.6-0.2-1.3-0.4-2C79.1,81.4,79.2,81.3,79.5,81.3z M80.5,80.8h1.6c0.1,0,0.2,0,0.2,0c0.2,0.2,0.3,0.3,0.3,0.4
					c-0.3,0.7-0.5,1.2-0.8,1.6c-0.2,0.3-0.4,0.6-0.7,0.9c-0.3,0.3-0.6,0.5-0.9,0.8c0,0-0.1,0-0.1-0.1c-0.1-0.2-0.2-0.3-0.3-0.4
					c0,0-0.1,0-0.1-0.1c0-0.1,0-0.1,0-0.1c0.2-0.1,0.5-0.3,0.7-0.5c0.2-0.2,0.5-0.5,0.7-0.9c0.2-0.2,0.3-0.5,0.5-0.9
					c0-0.1,0.1-0.1,0.1-0.2h-1.5c-0.1,0-0.1-0.1-0.1-0.2V81C80.3,80.9,80.4,80.8,80.5,80.8z M83,75.2l0.6,0.1c0.1,0,0.1,0.1,0.1,0.1
					c0,0.1,0,0.2-0.1,0.2c-0.1,0-0.1,0.1-0.1,0.1c-0.1,0.2-0.2,0.3-0.2,0.5h2.2c0.1,0,0.2,0,0.2,0.1v3.6c0,0.1-0.1,0.1-0.2,0.1h-1.8
					v0.5c0.2,0.4,0.3,0.8,0.4,1.1c0.1-0.1,0.3-0.2,0.4-0.3c0.2-0.2,0.5-0.4,0.7-0.7c0,0,0.1-0.1,0.1-0.1c0.4,0.3,0.6,0.5,0.6,0.6
					c0,0.1,0,0.1-0.1,0.1c-0.1,0-0.2,0-0.2,0.1c-0.4,0.4-0.7,0.7-1.1,1c0.2,0.3,0.3,0.5,0.5,0.7c0.2,0.3,0.4,0.5,0.7,0.6
					c0.2,0.2,0.4,0.3,0.7,0.5c0,0,0,0.1-0.1,0.1c-0.1,0.1-0.2,0.2-0.2,0.3c0,0-0.1,0.1-0.1,0.1c-0.3-0.2-0.6-0.4-0.9-0.7
					c-0.2-0.3-0.5-0.5-0.7-0.8c-0.2-0.2-0.3-0.5-0.5-0.9V84c0,0.5-0.4,0.8-1.3,0.8h-0.4c0,0-0.1-0.1-0.1-0.2c0-0.2-0.1-0.3-0.2-0.5
					v0c0.2,0.1,0.4,0.1,0.6,0.1c0.4,0,0.6-0.1,0.6-0.4v-3.7H81c-0.1,0-0.2,0-0.2-0.1v-3.6c0-0.1,0.1-0.1,0.2-0.1h1.4
					c0.1-0.3,0.3-0.6,0.4-0.9C82.9,75.2,82.9,75.2,83,75.2z M81.6,77.8h3.3v-1h-3.3V77.8z M84.8,79.4v-1h-3.3v1H84.8z"/>
				<path class="st1" d="M91,75.3l0.8,0.3c0.1,0.1,0.1,0.1,0.1,0.1c0,0.1,0,0.1-0.1,0.2c-0.2,0-0.3,0.1-0.3,0.3
					c-0.1,0.4-0.2,0.7-0.3,1.1h3c0.1,0,0.2,0,0.2,0.1l-0.3,1.8h1.3c0.1,0,0.2,0,0.2,0.1l-0.3,1.7h1.1c0.1,0,0.2,0.1,0.2,0.2
					c-0.2,1-0.3,1.8-0.5,2.5c-0.1,0.5-0.2,0.8-0.4,0.9c-0.2,0.1-0.5,0.2-1,0.2c-0.4,0-0.7-0.1-0.7-0.2c0-0.1-0.1-0.3-0.2-0.5
					c0-0.1,0-0.1,0.1-0.1c0.3,0.1,0.6,0.1,0.9,0.1c0.2,0,0.3-0.1,0.4-0.2c0.1-0.1,0.3-0.8,0.6-2.3h-6.2c-0.1,0.3-0.3,0.6-0.4,0.9
					c-0.4,0.7-0.9,1.4-1.3,2c-0.1,0-0.2,0-0.3,0c-0.1-0.1-0.3-0.1-0.5-0.2c0,0-0.1-0.1-0.1-0.1c0-0.1,0-0.2,0.1-0.2
					c0.7-0.8,1.4-1.9,2-3.1c0.3-0.7,0.6-1.5,0.9-2.2c0.1-0.2,0.2-0.5,0.2-0.8h-2.9c-0.1,0-0.1-0.1-0.1-0.2v-0.3c0-0.1,0-0.2,0.1-0.2
					h3.1c0.1-0.5,0.3-1.2,0.4-1.8C90.9,75.4,91,75.3,91,75.3z M88.7,75.4c0.1,0,0.1,0,0.1,0c0.3,0.4,0.6,0.8,0.8,1.2
					c0,0.1,0,0.2-0.1,0.2c-0.3,0.2-0.5,0.2-0.6,0.2c-0.3-0.5-0.5-1-0.7-1.4C88.2,75.7,88.4,75.5,88.7,75.4z M89.8,82.6l0.4,0.1
					c0.1,0,0.1,0,0.1,0.1c-0.1,0.8-0.3,1.4-0.4,1.9c0,0,0,0.1-0.1,0.1c-0.1,0-0.2,0-0.3,0c-0.1-0.1-0.2-0.1-0.4-0.2
					c-0.1,0-0.1-0.1-0.1-0.1c0.3-0.6,0.4-1.1,0.5-1.7C89.7,82.6,89.7,82.6,89.8,82.6z M89.9,81.1h4.6l0.3-1.2h-4.4c0,0,0,0.1,0,0.1
					C90.2,80.4,90.1,80.7,89.9,81.1z M90.6,79.2h2.7l0.3-1.2H91C90.9,78.5,90.8,78.9,90.6,79.2z M91.4,82.6
					C91.4,82.6,91.5,82.6,91.4,82.6c0.2,0.4,0.3,1,0.5,1.7c0,0.1-0.2,0.1-0.6,0.2c0,0-0.1,0-0.1-0.1c-0.1-0.5-0.2-1.1-0.3-1.7
					C90.9,82.8,91.1,82.7,91.4,82.6z M92.7,82.5C92.7,82.5,92.7,82.5,92.7,82.5c0.3,0.4,0.5,0.8,0.6,1.3c0,0.1,0,0.2-0.1,0.2
					c-0.2,0.2-0.4,0.2-0.6,0.2c-0.2-0.6-0.3-1-0.5-1.4C92.2,82.8,92.4,82.6,92.7,82.5z M93.9,82.3C94,82.3,94,82.3,93.9,82.3
					c0.4,0.3,0.6,0.7,0.9,1c0,0.1,0,0.2-0.1,0.2c-0.2,0.2-0.4,0.2-0.6,0.2c-0.2-0.4-0.5-0.8-0.7-1.1C93.5,82.5,93.6,82.4,93.9,82.3z
					"/>
				<path class="st1" d="M97.8,75.9h9c0.1,0,0.1,0.1,0.1,0.2v0.3c0,0.1,0,0.2-0.1,0.2h-1.1v7.5c0,0.5-0.4,0.8-1.3,0.8h-0.8
					c0,0-0.1-0.1-0.1-0.2c0-0.2-0.1-0.3-0.2-0.5v0c0.4,0.1,0.7,0.1,1,0.1c0.4,0,0.6-0.1,0.6-0.4v-7.2h-7.2c-0.1,0-0.1-0.1-0.1-0.2
					v-0.3C97.7,75.9,97.7,75.9,97.8,75.9z M99.3,78.2h3.5c0.1,0,0.2,0,0.2,0.1v4.2c0,0.1-0.1,0.1-0.2,0.1h-0.4c-0.1,0-0.2,0-0.2-0.1
					v-0.5h-2.4v0.8c0,0.1-0.1,0.1-0.2,0.1h-0.4c-0.1,0-0.2,0-0.2-0.1v-4.4C99.1,78.2,99.2,78.2,99.3,78.2z M99.9,81.3h2.4v-2.4h-2.4
					V81.3z"/>
				<path class="st1" d="M112.4,76.1c0,0-0.1,0-0.1,0c-0.4,0.2-0.8,0.4-1.2,0.5c-0.5,0.1-1,0.2-1.6,0.2v2.2h2.9
					c0.1,0,0.1,0.1,0.1,0.2v0.3c0,0.1,0,0.2-0.1,0.2h-2.9v3.1c0.2,0,0.4-0.1,0.6-0.1c0.8-0.2,1.6-0.4,2.3-0.6c0,0,0,0,0.1,0
					c0.1,0,0.1,0,0.1,0.1c0,0.3,0,0.5,0,0.6c-1.2,0.4-2.5,0.7-3.8,1c-0.1,0.2-0.2,0.3-0.2,0.3c-0.1,0-0.2-0.3-0.4-0.9
					c0.2,0,0.5-0.1,0.7-0.1v-6.8c0-0.1,0-0.1,0.1-0.1l0.4,0.2c0.6,0,1.1-0.1,1.4-0.2c0.5-0.1,0.9-0.3,1.3-0.6c0,0,0.1-0.1,0.1-0.1
					c0,0,0.1,0,0.1,0.1c0.4,0.3,0.5,0.5,0.5,0.6c0,0.1,0,0.2-0.1,0.2L112.4,76.1z M114.1,76.6v8.2c0,0.1-0.1,0.1-0.2,0.1h-0.4
					c-0.1,0-0.2,0-0.2-0.1v-8.7c0-0.1,0.1-0.2,0.2-0.2h3.5c0.1,0,0.2,0.1,0.2,0.2v6.6c0,0.3-0.2,0.5-0.6,0.6
					c-0.4,0.1-0.9,0.2-1.5,0.2c-0.1,0-0.1,0-0.1-0.1c0-0.1-0.1-0.4-0.2-0.7c0,0,0,0,0.1,0c0.7,0,1.2,0,1.3-0.1
					c0.2-0.1,0.2-0.2,0.2-0.3v-5.7H114.1z"/>
				<path class="st1" d="M120.1,78.3v0.5c0,1.3-0.1,2.2-0.2,3c-0.1,0.6-0.2,1.2-0.4,1.8c-0.1,0.4-0.2,0.7-0.4,1.1c0,0-0.1,0-0.1,0
					c-0.1-0.1-0.2-0.2-0.4-0.3c0,0-0.1-0.1-0.1-0.2c0.2-0.3,0.3-0.7,0.4-1.3c0.1-0.6,0.2-1.2,0.3-1.8c0.1-0.6,0.1-1.4,0.1-2.4v-3
					c0-0.1,0.1-0.2,0.2-0.2h5c0.1,0,0.2,0,0.2,0.1v2.3c0,0.1-0.1,0.2-0.2,0.2H123v1.4h1.6c0.1,0,0.2,0.1,0.2,0.2v3.9
					c0,0.2-0.1,0.3-0.3,0.4c-0.2,0.1-0.4,0.1-0.8,0.1c-0.1,0-0.1,0-0.1-0.1c0-0.2-0.1-0.4-0.2-0.6c0,0,0,0,0.1,0c0.3,0,0.5,0,0.5,0
					c0.1,0,0.1-0.1,0.1-0.2v-2.9H123v4.5c0,0.1-0.1,0.1-0.2,0.1h-0.4c-0.1,0-0.2,0-0.2-0.1v-4.5h-1.1v3.8c0,0.1-0.1,0.1-0.2,0.1
					h-0.4c-0.1,0-0.2,0-0.2-0.1v-4.2c0-0.1,0.1-0.2,0.2-0.2h1.7v-1.4H120.1z M120.1,76.3v1.3h3.8v-1.3H120.1z M125.7,76.7
					c0.5,0,0.8,0,0.8,0.1c0,0.1,0,0.2-0.1,0.2c-0.1,0-0.1,0.1-0.1,0.2v5.5c0,0.1-0.1,0.1-0.2,0.1h-0.4c-0.1,0-0.2,0-0.2-0.1v-5.9
					C125.6,76.7,125.6,76.7,125.7,76.7z M127.4,75.4l0.8,0.1c0.1,0,0.1,0.1,0.1,0.1c0,0.1,0,0.1-0.1,0.1c-0.1,0-0.2,0.2-0.2,0.5v7.9
					c0,0.5-0.4,0.8-1.1,0.8h-0.7c-0.1,0-0.1-0.1-0.1-0.2c0-0.1-0.1-0.3-0.2-0.5c0-0.1,0-0.1,0.1-0.1c0.3,0.1,0.6,0.1,0.8,0.1
					c0.3,0,0.5-0.1,0.5-0.4v-7.6c0-0.2,0-0.4,0-0.5c0-0.1,0-0.2,0-0.2S127.3,75.4,127.4,75.4z"/>
				<path class="st1" d="M130.7,75.3l0.8,0.4c0.1,0,0.1,0.1,0.1,0.1c0,0.1-0.1,0.1-0.2,0.1c-0.1,0-0.1,0-0.1,0.1
					c0,0.1-0.1,0.1-0.1,0.2h2.8c0.1,0,0.1,0,0.1,0.1v0.3c0,0.1,0,0.2-0.1,0.2h-1.3c0.2,0.2,0.3,0.5,0.4,0.7c0,0.1,0,0.2-0.1,0.2
					c-0.2,0.2-0.4,0.2-0.6,0.2c-0.2-0.4-0.4-0.8-0.6-1.1h-1.1c-0.1,0.2-0.2,0.3-0.3,0.5c-0.1,0.2-0.3,0.3-0.4,0.5
					c-0.1,0.1-0.2,0.2-0.3,0.3c-0.1,0-0.1,0-0.2-0.1c-0.1-0.1-0.2-0.3-0.3-0.4c-0.1,0-0.1-0.1-0.1-0.1c0,0,0,0,0,0
					c0.2-0.1,0.3-0.3,0.4-0.4c0.2-0.2,0.3-0.4,0.5-0.6c0.1-0.2,0.2-0.3,0.3-0.5C130.5,75.8,130.6,75.6,130.7,75.3
					C130.7,75.3,130.7,75.3,130.7,75.3z M129.5,78.4h1.9v-0.5c0-0.1,0.1-0.1,0.2-0.1c0.5,0,0.8,0,0.8,0.1c0,0.1,0,0.1-0.1,0.2
					c-0.1,0-0.1,0.1-0.1,0.2v0.2h1.9c0.1,0,0.1,0,0.1,0.1v0.3c0,0.1,0,0.2-0.1,0.2h-1.9v0.5h1.7c0.1,0,0.2,0,0.2,0.1v2.8
					c0,0.1-0.1,0.1-0.2,0.1h-1.7v0.5h2.1c0.1,0,0.1,0,0.1,0.1v0.3c0,0.1,0,0.2-0.1,0.2h-2.1v1c0,0.1-0.1,0.1-0.2,0.1h-0.4
					c-0.1,0-0.2,0-0.2-0.1v-1h-2c-0.1,0-0.1-0.1-0.1-0.2v-0.3c0-0.1,0-0.1,0.1-0.1h2v-0.5h-1.6c-0.1,0-0.2,0-0.2-0.1v-2.8
					c0-0.1,0.1-0.1,0.2-0.1h1.6V79h-1.9c-0.1,0-0.1-0.1-0.1-0.2v-0.3C129.5,78.4,129.5,78.4,129.5,78.4z M130.4,80.9h1v-0.7h-1V80.9
					z M131.4,82v-0.7h-1V82H131.4z M132.1,80.1v0.7h1.1v-0.7H132.1z M133.2,82v-0.7h-1.1V82H133.2z M135.6,75.3l0.8,0.4
					c0.1,0,0.1,0.1,0.1,0.1c0,0.1-0.1,0.1-0.2,0.1c-0.1,0-0.1,0-0.1,0.1c0,0.1,0,0.1-0.1,0.2h2.5c0.1,0,0.1,0,0.1,0.1v0.3
					c0,0.1,0,0.2-0.1,0.2h-1.4c0.2,0.2,0.3,0.5,0.5,0.7c0,0.1,0,0.2-0.1,0.2c-0.2,0.2-0.4,0.2-0.6,0.2c-0.2-0.4-0.5-0.8-0.7-1.1
					h-0.6c-0.1,0.2-0.2,0.3-0.3,0.5c-0.1,0.2-0.2,0.3-0.4,0.5c-0.1,0.1-0.2,0.2-0.3,0.3c-0.1,0-0.1,0-0.2-0.1
					c-0.1-0.1-0.2-0.3-0.3-0.4c-0.1,0-0.1-0.1-0.1-0.1c0,0,0,0,0,0c0.2-0.1,0.3-0.3,0.4-0.4c0.2-0.2,0.3-0.4,0.4-0.6
					c0.1-0.2,0.2-0.3,0.2-0.5C135.4,75.8,135.5,75.6,135.6,75.3C135.6,75.3,135.6,75.3,135.6,75.3z M135.4,79v4.5
					c0,0.3,0.2,0.5,0.6,0.5h1.4c0.3,0,0.5-0.1,0.6-0.3c0.1-0.1,0.1-0.4,0.2-0.8c0.2,0.2,0.4,0.3,0.6,0.3c0.1,0,0.1,0.1,0.1,0.2
					c-0.1,0.5-0.2,0.8-0.3,0.9c-0.1,0.2-0.4,0.4-0.9,0.4h-2c-0.6,0-0.9-0.2-0.9-0.7v-5.5c0-0.1,0.1-0.2,0.2-0.2h3.1
					c0.1,0,0.2,0,0.2,0.1v2.9c0,0.3,0,0.4-0.1,0.5c-0.2,0.2-0.5,0.3-1.1,0.3c-0.2,0-0.4-0.1-0.4-0.2c0-0.2,0-0.3-0.1-0.5
					c0-0.1,0-0.1,0.1-0.1h0.6c0.2,0,0.3-0.1,0.3-0.3V79H135.4z"/>
				<path class="st1" d="M140.2,75.6h8.7c0.1,0,0.2,0,0.2,0.1v9c0,0.1-0.1,0.1-0.2,0.1h-0.4c-0.1,0-0.2,0-0.2-0.1v-0.3h-7.5v0.3
					c0,0.1-0.1,0.1-0.2,0.1h-0.4c-0.1,0-0.2,0-0.2-0.1v-9C140,75.7,140.1,75.6,140.2,75.6z M140.8,83.9h3.9v-0.7h-3.3
					c0,0-0.1-0.1-0.1-0.2v-0.3c0-0.1,0-0.1,0.1-0.1h0.9v-0.7h-0.4c-0.1,0-0.1,0-0.1-0.1v-0.3c0-0.1,0-0.1,0.1-0.1h2.8v-0.5h-2.2
					c-0.1,0-0.2,0-0.2-0.1v-1.5c0-0.1,0.1-0.1,0.2-0.1h4.2c0.1,0,0.2,0,0.2,0.1v1.5c0,0.1-0.1,0.1-0.2,0.1h-1.3v0.5h1.6
					c0.1,0,0.1,0,0.1,0.1v0.3c0,0.1,0,0.1-0.1,0.1h-1.6v0.7h2.2c0.1,0,0.1,0,0.1,0.1V83c0,0.1,0,0.2-0.1,0.2h-2.2v0.7h2.8v-7.6h-3.7
					l-0.1,0.6h2.2c0.1,0,0.2,0,0.2,0.1v1h0.8c0.1,0,0.1,0,0.1,0.1v0.3c0,0.1,0,0.1-0.1,0.1h-6c-0.1,0-0.1,0-0.1-0.1v-0.3
					c0-0.1,0-0.1,0.1-0.1h2l0.1-0.6h-1.4c-0.1,0-0.1,0-0.1-0.1v-0.3c0-0.1,0-0.1,0.1-0.1h1.5l0.1-0.6h-3V83.9z M144.7,82.6v-0.7H143
					v0.7H144.7z M146.2,80.2v-0.6h-3.1v0.6H146.2z M144.3,78h1.8v-0.6h-1.7L144.3,78z"/>
			</g>
		</g>
		<g>
			<path class="st1" d="M46.9,92.9c0.9,0,1.7,0.3,2.4,1c0.7,0.7,1,1.5,1,2.4c0,0.9-0.3,1.7-1,2.4c-0.7,0.7-1.5,1-2.4,1
				c-0.9,0-1.7-0.3-2.4-1c-0.7-0.7-1-1.5-1-2.4c0-0.9,0.3-1.7,1-2.4C45.2,93.2,46,92.9,46.9,92.9z"/>
			<path class="st1" d="M56.9,92.8h3.6c0-0.4-0.1-0.8-0.1-1.2h-1.6c-0.1,0-0.1-0.1-0.1-0.2V91c0-0.1,0-0.2,0.1-0.2h2.1
				c0.1,0,0.2,0,0.2,0.1c0,0.6,0,1.2,0.1,1.8h3.4c0.1,0,0.2,0.1,0.2,0.2v6.5c0,0.3-0.2,0.5-0.5,0.6c-0.3,0.1-0.7,0.2-1.1,0.2
				c-0.1,0-0.1,0-0.1-0.1c0-0.1-0.1-0.4-0.2-0.7c0,0,0,0,0.1,0c0.5,0,0.8,0,0.9-0.1c0.1-0.1,0.2-0.2,0.2-0.3v-5.6h-2.7
				c0.1,0.6,0.3,1.1,0.6,1.6c0.2,0.5,0.6,0.9,1,1.3c0.3,0.2,0.6,0.5,1,0.7c0.1,0,0.1,0.1,0.1,0.1c0,0,0,0.1-0.1,0.1
				c-0.1,0.1-0.2,0.2-0.4,0.3c0,0-0.1,0.1-0.2,0.1c-0.3-0.1-0.6-0.3-0.9-0.7c-0.5-0.5-0.9-0.9-1.1-1.4c-0.2-0.3-0.4-0.7-0.5-1.1
				c-0.1,0.2-0.2,0.3-0.2,0.4c-0.3,0.5-0.5,0.9-0.8,1.2c-0.3,0.4-0.6,0.7-1,1.1c-0.5,0.4-0.7,0.6-0.8,0.6c0,0-0.1,0-0.1-0.1
				c-0.1-0.1-0.2-0.3-0.4-0.4c-0.1-0.1-0.1-0.1-0.1-0.1c0.5-0.3,0.9-0.6,1.2-0.9c0.4-0.3,0.7-0.7,1.1-1.2c0.2-0.3,0.4-0.8,0.7-1.4
				h-3v6.8c0,0.1-0.1,0.1-0.2,0.1h-0.4c-0.1,0-0.2,0-0.2-0.1v-7.3C56.7,92.8,56.8,92.8,56.9,92.8z"/>
			<path class="st1" d="M71.4,93.8l0.8,0.4c0.1,0,0.1,0.1,0.1,0.1c0,0.1-0.1,0.1-0.2,0.1c-0.1,0-0.2,0-0.3,0
				c0.5,0.5,0.9,0.9,1.3,1.2c0.5,0.4,1,0.7,1.5,1c0.6,0.3,1.1,0.5,1.6,0.6c0,0,0,0.1-0.1,0.1c-0.2,0.2-0.3,0.3-0.4,0.4
				c0,0-0.1,0.1-0.2,0.1c-0.5-0.2-0.9-0.4-1.4-0.6v2.9c0,0.1-0.1,0.1-0.2,0.1h-0.4c-0.1,0-0.2,0-0.2-0.1v-0.4h-4.1v0.4
				c0,0.1-0.1,0.1-0.2,0.1h-0.4c-0.1,0-0.2,0-0.2-0.1v-3c-0.1,0.1-0.3,0.2-0.4,0.2c-0.4,0.2-0.8,0.4-1,0.5c-0.1,0-0.1,0-0.2-0.1
				c-0.1-0.2-0.2-0.3-0.3-0.4c-0.1,0-0.1-0.1-0.1-0.1c0,0,0,0,0.1-0.1c0.6-0.2,1.1-0.4,1.5-0.6c0.5-0.3,1.1-0.6,1.6-1
				c0.4-0.3,0.7-0.5,0.9-0.8c0.3-0.3,0.5-0.6,0.7-0.9C71.3,93.8,71.3,93.8,71.4,93.8z M71.1,90.7c0.5,0,0.8,0,0.8,0.1
				c0,0.1,0,0.2-0.1,0.2c-0.1,0-0.1,0.1-0.1,0.2v0.5h4c0.1,0,0.2,0,0.2,0.1v1.9c0,0.1-0.1,0.1-0.2,0.1h-0.4c-0.1,0-0.2,0-0.2-0.1
				v-1.4h-7.6v1.4c0,0.1-0.1,0.1-0.2,0.1h-0.4c-0.1,0-0.2,0-0.2-0.1v-1.9c0-0.1,0.1-0.2,0.2-0.2h4v-0.9
				C70.9,90.8,70.9,90.7,71.1,90.7z M70.1,92.8l0.6,0.5c0.1,0.1,0.1,0.1,0.1,0.2c0,0,0,0.1-0.1,0.1c-0.1,0-0.2,0.1-0.3,0.1
				c-0.3,0.4-0.6,0.7-1,1c-0.4,0.3-0.9,0.7-1.6,1c-0.1,0-0.1,0-0.2-0.1c-0.2-0.1-0.3-0.2-0.4-0.3c-0.1,0-0.1,0-0.1-0.1
				c0,0,0,0,0.1-0.1c0.3-0.1,0.6-0.2,0.7-0.3c0.4-0.3,0.8-0.5,1.1-0.8C69.4,93.6,69.7,93.2,70.1,92.8C70,92.8,70,92.8,70.1,92.8z
				 M69,96.8h4.4c-0.2-0.1-0.4-0.3-0.5-0.4c-0.4-0.3-0.9-0.8-1.6-1.5c-0.3,0.3-0.6,0.6-0.9,0.9c-0.3,0.3-0.6,0.5-1.1,0.8
				C69.2,96.7,69.1,96.8,69,96.8z M69.3,99.1h4.1v-1.6h-4.1V99.1z M72.7,92.8c0.4,0.5,0.7,0.9,1,1.1c0.3,0.3,0.9,0.6,1.7,1
				c0.1,0,0.1,0,0.1,0.1c0,0,0,0.1-0.1,0.1c-0.1,0.1-0.2,0.2-0.3,0.4c0,0.1-0.1,0.1-0.1,0.1c-0.1,0-0.1,0-0.2-0.1
				c-0.5-0.3-1-0.6-1.4-1c-0.4-0.4-0.8-0.9-1.2-1.4L72.7,92.8z"/>
			<path class="st1" d="M79.5,90.8l0.9,0.6c0,0.1,0.1,0.1,0.1,0.1c0,0.1,0,0.1-0.1,0.1c-0.2,0-0.3,0-0.3,0.1
				c-0.1,0.4-0.2,0.8-0.3,1.2h2c0.1,0,0.2,0.1,0.2,0.2c-0.1,1.1-0.3,2.1-0.6,3c-0.1,0.5-0.4,1-0.6,1.4c0.1,0.1,0.2,0.2,0.4,0.3
				c0.4,0.4,0.9,0.8,1.3,1.2c0,0.1,0,0.1-0.1,0.1c-0.2,0.3-0.4,0.4-0.4,0.4c0,0-0.1,0-0.1-0.1c-0.5-0.5-0.9-0.9-1.2-1.2
				c-0.1-0.1-0.2-0.2-0.3-0.2c-0.5,0.6-1.3,1.3-2.4,2c-0.1,0-0.2,0-0.2-0.1c-0.1-0.1-0.2-0.1-0.4-0.2c0,0-0.1,0-0.1-0.1
				c0,0,0-0.1,0.1-0.1c1.2-0.8,2-1.4,2.4-2c0,0,0,0,0,0c-0.1-0.1-0.2-0.1-0.3-0.2c-0.3-0.2-0.7-0.4-1.1-0.7
				c-0.1,0.2-0.2,0.4-0.3,0.7c-0.1,0-0.1,0-0.1-0.1c-0.1-0.1-0.3-0.1-0.5-0.2c0,0-0.1,0-0.1-0.1c0.4-1.1,0.8-1.9,1-2.6
				c0.1-0.3,0.2-0.7,0.3-1h-1.2c-0.1,0-0.1-0.1-0.1-0.2V93c0-0.1,0-0.1,0.1-0.1h1.4c0.1-0.3,0.2-0.6,0.3-0.9
				C79.3,91.5,79.3,91.1,79.5,90.8C79.4,90.8,79.4,90.8,79.5,90.8z M80,97.1c0.1-0.3,0.3-0.6,0.4-0.9c0.2-0.7,0.5-1.6,0.6-2.6h-1.6
				c-0.1,0.2-0.1,0.4-0.2,0.7c-0.2,0.5-0.4,1.2-0.7,1.9c0.4,0.2,0.8,0.4,1.1,0.6C79.7,96.9,79.8,97,80,97.1z M82.8,91.9h3.3
				c0.1,0,0.2,0,0.2,0.1v7.7c0,0.1-0.1,0.1-0.2,0.1h-0.4c-0.1,0-0.2,0-0.2-0.1v-0.8h-2.2v0.8c0,0.1-0.1,0.1-0.2,0.1h-0.4
				c-0.1,0-0.2,0-0.2-0.1V92C82.6,91.9,82.7,91.9,82.8,91.9z M83.3,98.3h2.2v-5.7h-2.2V98.3z"/>
			<path class="st1" d="M87.9,92h3.2c0.1-0.3,0.3-0.7,0.4-1.2c0-0.1,0.1-0.1,0.2-0.1l0.8,0.3c0.1,0.1,0.1,0.1,0.1,0.2
				c0,0.1,0,0.1-0.1,0.2c-0.2,0-0.3,0.1-0.3,0.2c-0.1,0.2-0.1,0.3-0.2,0.5H97c0.1,0,0.1,0.1,0.1,0.2v0.3c0,0.1,0,0.2-0.1,0.2h-5.4
				c-0.2,0.4-0.4,0.8-0.6,1c0,0.1-0.1,0.1-0.1,0.2h4.9c0.1,0,0.2,0.1,0.2,0.2v5.6c0,0.2-0.2,0.4-0.5,0.5c-0.3,0.1-0.8,0.2-1.3,0.2
				c-0.1,0-0.1,0-0.1-0.1c0-0.2-0.1-0.4-0.2-0.7c0,0,0,0,0.1,0c0.6,0,1,0,1.1-0.1c0.1,0,0.2-0.1,0.2-0.3v-0.7h-4.5v1.7
				c0,0.1-0.1,0.1-0.2,0.1h-0.4c-0.1,0-0.2,0-0.2-0.1V95c-0.1,0.1-0.1,0.2-0.2,0.2c-0.4,0.4-0.8,0.8-1.3,1.1c-0.1,0-0.2,0-0.2,0
				c-0.2-0.1-0.3-0.1-0.5-0.2c0,0-0.1-0.1-0.1-0.1c0-0.1,0-0.1,0.1-0.1c0.7-0.5,1.3-1.1,1.9-1.8c0.3-0.4,0.6-0.9,0.9-1.3
				c0,0,0-0.1,0.1-0.1h-2.9c-0.1,0-0.1-0.1-0.1-0.2v-0.3C87.8,92.1,87.8,92,87.9,92z M90.8,95.8h4.5v-1.2h-4.5V95.8z M90.8,97.8h4.5
				v-1.3h-4.5V97.8z"/>
			<path class="st1" d="M102.9,90.7c0.5,0,0.8,0,0.8,0.1c0,0.1,0,0.2-0.1,0.2c-0.1,0-0.1,0.1-0.1,0.2v1.2h4c0.1,0,0.1,0,0.1,0.1v0.4
				c0,0.1,0,0.2-0.1,0.2h-1.7c-0.1,0.5-0.3,0.9-0.4,1.3c-0.2,0.6-0.5,1.2-0.8,1.7c-0.3,0.4-0.6,0.9-1.1,1.3c0,0,0,0,0.1,0.1
				c0.4,0.4,1,0.7,1.7,1.1c0.6,0.3,1.4,0.6,2.4,0.9c0.1,0,0.2,0.1,0.2,0.1c0,0.1,0,0.1-0.1,0.1c-0.2,0.1-0.3,0.3-0.4,0.4
				c-0.1,0.1-0.1,0.1-0.1,0.1c0,0-0.1,0-0.3-0.1c-0.5-0.2-1-0.3-1.5-0.6c-0.7-0.3-1.3-0.7-1.8-1c-0.2-0.2-0.4-0.3-0.6-0.5
				c-0.3,0.3-0.7,0.6-1.1,0.8c-0.6,0.4-1.1,0.7-1.6,0.9c-0.5,0.2-1,0.4-1.6,0.5c-0.1,0-0.1,0-0.2-0.1c-0.1-0.2-0.2-0.3-0.4-0.5
				c0,0-0.1-0.1-0.1-0.1s0-0.1,0.1-0.1c0.6-0.1,1.2-0.3,1.7-0.5c0.5-0.2,1-0.4,1.3-0.7c0.4-0.2,0.8-0.5,1.1-0.8
				c-0.1-0.1-0.2-0.2-0.3-0.3c-0.5-0.5-0.8-1.1-1.1-1.6c-0.3-0.6-0.6-1.4-0.9-2.3h-1.7c-0.1,0-0.1-0.1-0.1-0.2v-0.4
				c0-0.1,0-0.1,0.1-0.1h4.3v-1.6C102.8,90.7,102.8,90.7,102.9,90.7z M101,93.1c0.1,0.6,0.3,1,0.5,1.4c0.3,0.6,0.6,1.2,1,1.8
				c0.2,0.2,0.3,0.4,0.5,0.6c0.4-0.4,0.7-0.8,1.1-1.3c0.3-0.4,0.5-0.8,0.7-1.3c0.1-0.4,0.3-0.7,0.4-1.2H101z"/>
			<path class="st1" d="M111.1,93.5h4.6c0.1,0,0.2,0,0.2,0.1c0.1,0.1,0.2,0.2,0.2,0.3l-2,2.1c0,0,0,0,0,0v0.6h4
				c0.1,0,0.1,0.1,0.1,0.2v0.4c0,0.1,0,0.2-0.1,0.2h-4v2.3c0,0.5-0.4,0.8-1.2,0.8h-0.8c0,0-0.1-0.1-0.1-0.2c0-0.2-0.1-0.4-0.2-0.5
				c0-0.1,0-0.1,0.1-0.1c0.4,0.1,0.7,0.1,1,0.1c0.2,0,0.4-0.1,0.4-0.4v-2h-4.2c-0.1,0-0.1-0.1-0.1-0.2v-0.4c0-0.1,0-0.2,0.1-0.2h4.2
				v-1.1c0-0.1,0.1-0.2,0.2-0.2l0.2,0.1l1.2-1.2h-3.8c-0.1,0-0.1-0.1-0.1-0.2v-0.3C111,93.5,111.1,93.5,111.1,93.5z M113.3,90.7
				c0.5,0,0.8,0,0.8,0.1c0,0.1,0,0.2-0.1,0.2c-0.1,0-0.1,0.1-0.1,0.2v0.6h3.8c0.1,0,0.2,0,0.2,0.1v2.1c0,0.1-0.1,0.1-0.2,0.1h-0.4
				c-0.1,0-0.2,0-0.2-0.1v-1.5h-7.2v1.5c0,0.1-0.1,0.1-0.2,0.1h-0.4c-0.1,0-0.2,0-0.2-0.1v-2c0-0.1,0.1-0.2,0.2-0.2h3.8v-0.9
				C113.2,90.7,113.2,90.7,113.3,90.7z"/>
			<path class="st1" d="M122.4,96.7c0.4,0.3,0.7,0.5,0.7,0.5c0,0.1-0.1,0.1-0.2,0.1c-0.1,0-0.2,0.1-0.2,0.2c-0.2,0.2-0.4,0.6-0.8,1
				c-0.4,0.4-0.7,0.8-1.2,1.1c-0.2,0.2-0.6,0.4-1,0.7c-0.1,0-0.2,0-0.2-0.1c-0.1-0.1-0.2-0.2-0.3-0.3c-0.1,0-0.1-0.1-0.1-0.1
				c0,0,0-0.1,0.1-0.1c0.5-0.2,0.9-0.5,1.3-0.7c0.4-0.3,0.7-0.6,1-1c0.3-0.3,0.5-0.7,0.8-1.1C122.3,96.8,122.3,96.7,122.4,96.7z
				 M121.7,90.8c0.4,0.3,0.7,0.5,0.7,0.5c0,0.1-0.1,0.1-0.2,0.1c-0.1,0-0.1,0-0.2,0.1c-0.1,0.2-0.3,0.5-0.5,0.8
				c-0.3,0.3-0.5,0.7-0.8,0.9c-0.2,0.2-0.4,0.3-0.7,0.5c-0.1,0-0.2,0-0.2-0.1c-0.1-0.1-0.2-0.2-0.3-0.3c-0.1,0-0.1-0.1-0.1-0.1
				c0,0,0,0,0-0.1c0.4-0.2,0.7-0.4,0.9-0.6c0.3-0.2,0.5-0.5,0.7-0.8c0.2-0.3,0.4-0.6,0.5-0.9C121.7,90.8,121.7,90.8,121.7,90.8z
				 M122.2,93.6c0.4,0.3,0.6,0.5,0.6,0.5c0,0.1-0.1,0.1-0.2,0.1c-0.1,0-0.1,0.1-0.2,0.2c-0.1,0.2-0.4,0.5-0.6,0.8
				c-0.3,0.4-0.6,0.7-1,1c-0.2,0.2-0.5,0.4-0.9,0.6c-0.1,0-0.2,0-0.2-0.1c-0.1-0.1-0.2-0.2-0.3-0.3c-0.1,0-0.1-0.1-0.1-0.1
				c0,0,0-0.1,0-0.1c0.4-0.2,0.8-0.4,1.1-0.7c0.3-0.3,0.6-0.5,0.9-0.8c0.2-0.3,0.5-0.6,0.6-1C122.1,93.6,122.1,93.6,122.2,93.6z
				 M123.3,91.1h5.4c0.1,0,0.1,0.1,0.1,0.2v0.3c0,0.1,0,0.2-0.1,0.2h-2.4c-0.1,0.3-0.3,0.7-0.5,1h2.3c0.1,0,0.2,0,0.2,0.1v5.4
				c0,0.1-0.1,0.1-0.2,0.1h-0.9c0.3,0.3,0.5,0.6,0.8,0.8c0.2,0.2,0.5,0.4,0.9,0.5c0.1,0.1,0.1,0.1,0.1,0.1c0,0-0.1,0.2-0.4,0.5
				c0,0-0.1,0-0.1,0c-0.8-0.5-1.4-1-1.8-1.5c0,0-0.1-0.1-0.1-0.1c0,0,0.1-0.2,0.4-0.4H125l0.5,0.4c0.1,0.1,0.1,0.1,0.1,0.2
				c0,0,0,0-0.1,0c-0.1,0-0.1,0-0.2,0.1c-0.2,0.2-0.4,0.5-0.7,0.7c-0.3,0.2-0.6,0.5-1.1,0.7c-0.1,0-0.1,0-0.2-0.1
				c-0.1-0.1-0.3-0.2-0.4-0.3c0,0-0.1,0-0.1-0.1c0,0,0,0,0,0c0.2-0.1,0.4-0.2,0.5-0.2c0.3-0.2,0.5-0.4,0.7-0.6
				c0.2-0.2,0.4-0.4,0.6-0.7h-1.1c-0.1,0-0.2,0-0.2-0.1v-5.4c0-0.1,0.1-0.1,0.2-0.1h1.3c0.1-0.2,0.2-0.4,0.3-0.5
				c0.1-0.1,0.1-0.3,0.2-0.5h-2.2c-0.1,0-0.1-0.1-0.1-0.2v-0.3C123.2,91.1,123.2,91.1,123.3,91.1z M124.3,94.4h3.3v-1h-3.3V94.4z
				 M124.3,96h3.3V95h-3.3V96z M127.6,97.7v-1h-3.3v1H127.6z"/>
			<path class="st1" d="M130.2,91.7h2.3c0.1,0,0.2,0,0.2,0.1c0.1,0.1,0.2,0.2,0.2,0.3l-1.6,2.5h1.3c0.1,0,0.1,0,0.2,0.1
				c0.1,0.1,0.2,0.2,0.2,0.2c-0.1,0.6-0.1,1.1-0.2,1.4c-0.1,0.4-0.2,0.8-0.3,1.2c-0.1,0.2-0.2,0.5-0.3,0.9c0,0.1-0.1,0.2-0.2,0.4
				c0.1,0.1,0.2,0.2,0.4,0.3c0.2,0.1,0.4,0.2,0.7,0.3c0.2,0.1,0.5,0.1,0.7,0.1c0.6,0,1.5,0.1,2.6,0.1c0.6,0,1.6-0.1,3.1-0.2
				c0,0,0,0.1,0,0.1c-0.1,0.2-0.1,0.4-0.2,0.6c0,0.1-0.1,0.1-0.2,0.1c-0.4,0-1.2,0-2.6,0c-1.5,0-2.6,0-3.4-0.1
				c-0.4-0.1-0.7-0.2-0.9-0.3c-0.2-0.1-0.4-0.2-0.6-0.4c-0.1,0.2-0.2,0.3-0.4,0.5c-0.2,0.2-0.4,0.4-0.7,0.6c-0.1,0-0.1,0-0.2-0.1
				c-0.1-0.1-0.3-0.2-0.4-0.3c0,0-0.1-0.1-0.1-0.1c0,0,0,0,0-0.1c0.3-0.2,0.6-0.4,0.8-0.6c0.2-0.1,0.3-0.3,0.4-0.5
				c-0.1-0.2-0.2-0.4-0.3-0.6c-0.2-0.4-0.4-1.1-0.5-1.8c0-0.1,0-0.1,0.1-0.1h0.4c0.1,0,0.2,0,0.2,0.1c0.1,0.5,0.2,0.9,0.3,1.3
				c0.1,0.2,0.1,0.3,0.2,0.4c0.1-0.2,0.1-0.3,0.2-0.4c0.1-0.4,0.2-0.7,0.3-1.1c0.1-0.3,0.1-0.8,0.2-1.4h-1.4l-0.3,0.5
				c0,0.1-0.1,0.1-0.2,0.1c-0.4-0.1-0.6-0.2-0.6-0.3l2.1-3.1h-1.7c-0.1,0-0.1-0.1-0.1-0.2v-0.3C130.1,91.8,130.1,91.7,130.2,91.7z
				 M133.9,91.6h1.9v-0.8c0-0.1,0.1-0.1,0.2-0.1c0.5,0,0.8,0,0.8,0.1c0,0.1,0,0.2-0.1,0.2c-0.1,0-0.1,0.1-0.1,0.2v0.4h2.1
				c0.1,0,0.2,0,0.2,0.1v1.4h0.6c0.1,0,0.1,0.1,0.1,0.2v0.3c0,0.1,0,0.2-0.1,0.2h-0.6v1.3c0,0.1-0.1,0.2-0.2,0.2h-2.1v0.8h2.1
				c0.1,0,0.1,0.1,0.1,0.2v0.3c0,0.1,0,0.2-0.1,0.2h-2.1v0.9h2.6c0.1,0,0.1,0.1,0.1,0.2v0.3c0,0.1,0,0.2-0.1,0.2h-2.6V99
				c0,0.1-0.1,0.1-0.2,0.1h-0.4c-0.1,0-0.2,0-0.2-0.1v-0.7h-2.6c-0.1,0-0.1-0.1-0.1-0.2v-0.3c0-0.1,0-0.2,0.1-0.2h2.6v-0.9h-1.9
				c-0.1,0-0.1-0.1-0.1-0.2v-0.3c0-0.1,0-0.2,0.1-0.2h1.9v-0.8h-1.9c-0.1,0-0.1-0.1-0.1-0.2v-0.3c0-0.1,0-0.2,0.1-0.2h1.9v-0.8h-2.6
				c-0.1,0-0.1-0.1-0.1-0.2v-0.3c0-0.1,0-0.2,0.1-0.2h2.6v-0.8h-1.9c-0.1,0-0.1-0.1-0.1-0.2v-0.3C133.8,91.7,133.8,91.6,133.9,91.6z
				 M136.5,92.3v0.8h1.5v-0.8H136.5z M136.5,93.8v0.8h1.5v-0.8H136.5z"/>
			<path class="st1" d="M147.3,93.9l0.9,0.3c0.1,0,0.1,0.1,0.1,0.1c0,0.1,0,0.1-0.1,0.1c-0.1,0-0.2,0.1-0.3,0.1
				c-0.2,0.8-0.5,1.7-0.9,2.7c-0.2,0.7-0.5,1.3-0.8,1.9h3.5c0.1,0,0.1,0,0.1,0.1v0.4c0,0.1,0,0.2-0.1,0.2h-9.2
				c-0.1,0-0.1-0.1-0.1-0.2v-0.4c0-0.1,0-0.1,0.1-0.1h4.8c0.3-0.7,0.6-1.5,1-2.4c0.4-1.1,0.6-2,0.8-2.8
				C147.3,93.9,147.3,93.9,147.3,93.9z M145,90.8c0.5,0,0.8,0,0.8,0.1c0,0.1,0,0.1-0.1,0.2c-0.1,0-0.1,0.1-0.1,0.2v1.1h3.8
				c0.1,0,0.1,0.1,0.1,0.2v0.3c0,0.1,0,0.2-0.1,0.2h-8.3c-0.1,0-0.1-0.1-0.1-0.2v-0.3c0-0.1,0-0.2,0.1-0.2h3.8v-1.4
				C144.8,90.8,144.9,90.8,145,90.8z M142.9,94.1c0.4,0.8,0.6,1.5,0.9,2.2c0.2,0.6,0.4,1.2,0.5,1.9c0,0-0.2,0.1-0.7,0.3
				c-0.1-0.5-0.2-1-0.4-1.7c-0.2-0.8-0.5-1.5-0.9-2.3C142.2,94.4,142.4,94.3,142.9,94.1z"/>
			<path class="st1" d="M153.6,90.7l0.8,0.3c0.1,0.1,0.1,0.1,0.1,0.1c0,0.1,0,0.1-0.1,0.2c-0.1,0-0.2,0.1-0.2,0.2
				c-0.1,0.3-0.2,0.6-0.3,0.9h2.2c0.1,0,0.1,0,0.2,0.1c0.2,0.2,0.2,0.3,0.2,0.4c-0.2,1-0.4,1.8-0.6,2.3c-0.2,0.7-0.5,1.3-0.7,1.7
				c-0.2,0.5-0.5,0.9-0.9,1.3c-0.4,0.5-0.8,0.9-1.3,1.2c-0.3,0.2-0.7,0.5-1.2,0.6c-0.1,0-0.2,0-0.2-0.1c-0.1-0.1-0.2-0.2-0.2-0.4
				c0,0-0.1-0.1-0.1-0.1c0-0.1,0-0.1,0.1-0.1c0.3-0.1,0.6-0.3,0.9-0.4c0.6-0.3,1.1-0.7,1.4-1.2c0.2-0.2,0.4-0.5,0.5-0.7
				c-0.5-0.4-0.9-0.8-1.4-1c0,0-0.1,0-0.1-0.1c0,0,0.1-0.2,0.4-0.5c0-0.1,0.1-0.1,0.1-0.1c0.5,0.3,0.9,0.7,1.3,1c0,0,0,0,0-0.1
				c0.2-0.5,0.5-1.1,0.6-1.7c0.1-0.4,0.2-0.9,0.4-1.6h-2c-0.1,0.2-0.1,0.3-0.2,0.5c-0.2,0.5-0.5,1-0.8,1.5c-0.3,0.4-0.6,0.8-0.9,1.1
				c-0.1,0-0.2,0-0.2,0c-0.1-0.1-0.3-0.1-0.4-0.2c0,0-0.1-0.1-0.1-0.1c0-0.1,0-0.1,0.1-0.1c0.5-0.5,0.9-1,1.3-1.7
				c0.2-0.4,0.4-0.8,0.6-1.3c0.2-0.5,0.4-1.1,0.6-1.8C153.5,90.7,153.6,90.7,153.6,90.7z M158,90.8c0.5,0,0.8,0,0.8,0.1
				c0,0.1,0,0.2-0.1,0.2c-0.1,0-0.1,0.1-0.1,0.2v2.6c0.8,0.7,1.4,1.5,2.1,2.3c0.1,0.1,0.1,0.1,0.1,0.2c0,0,0,0.1-0.1,0.1
				c-0.3,0.2-0.4,0.4-0.5,0.4c0,0-0.1,0-0.1-0.1c-0.5-0.7-1-1.3-1.5-1.8v5.2c0,0.1-0.1,0.1-0.2,0.1H158c-0.1,0-0.2,0-0.2-0.1v-9.3
				C157.8,90.8,157.9,90.8,158,90.8z"/>
			<path class="st1" d="M161.8,93h1.3v-2.1c0-0.1,0.1-0.1,0.2-0.1c0.5,0,0.8,0,0.8,0.1c0,0.1,0,0.1-0.1,0.2c-0.1,0-0.1,0.1-0.1,0.2
				V93h1c0.1,0,0.1,0.1,0.1,0.2v0.3c0,0.1,0,0.2-0.1,0.2h-0.9c0.2,0.5,0.3,0.8,0.4,1.1c0.2,0.4,0.5,0.8,0.9,1.3c0,0,0.1,0.1,0.1,0.1
				c0,0,0,0.1-0.1,0.1c-0.1,0.1-0.2,0.2-0.3,0.3c0,0.1-0.1,0.1-0.1,0.1c0,0-0.1,0-0.1-0.1c-0.3-0.4-0.5-0.8-0.7-1.2
				c0-0.1-0.1-0.1-0.1-0.2v5c0,0.1-0.1,0.1-0.2,0.1h-0.4c-0.1,0-0.2,0-0.2-0.1v-4.5c-0.1,0.3-0.2,0.5-0.4,0.7
				c-0.2,0.4-0.4,0.7-0.7,1.1c-0.1,0-0.1,0-0.2-0.1c-0.2-0.1-0.3-0.1-0.4-0.2c-0.1,0-0.1,0-0.1-0.1c0.4-0.4,0.6-0.8,0.8-1.2
				c0.2-0.4,0.4-0.8,0.5-1.1c0.1-0.2,0.2-0.6,0.3-1.1h-1.2c-0.1,0-0.1-0.1-0.1-0.2v-0.3C161.7,93.1,161.7,93,161.8,93z M166.2,91.7
				v7.5h5c0.1,0,0.1,0.1,0.1,0.2v0.3c0,0.1,0,0.2-0.1,0.2h-5v0.4c0,0.1-0.1,0.1-0.2,0.1h-0.4c-0.1,0-0.2,0-0.2-0.1v-9
				c0-0.1,0.1-0.2,0.2-0.2h5.4c0.1,0,0.1,0.1,0.1,0.2v0.3c0,0.1,0,0.2-0.1,0.2H166.2z M166.7,92.7h4.1c0.1,0,0.1,0.1,0.1,0.2v0.3
				c0,0.1,0,0.2-0.1,0.2h-1.7v1.8h1.6c0.1,0,0.1,0.1,0.1,0.2v0.3c0,0.1,0,0.2-0.1,0.2h-1.6v1.8h1.8c0.1,0,0.1,0.1,0.1,0.2v0.3
				c0,0.1,0,0.2-0.1,0.2h-4.2c-0.1,0-0.1-0.1-0.1-0.2v-0.3c0-0.1,0-0.2,0.1-0.2h1.7v-1.8h-1.5c-0.1,0-0.1-0.1-0.1-0.2v-0.3
				c0-0.1,0-0.2,0.1-0.2h1.5v-1.8h-1.7c-0.1,0-0.1-0.1-0.1-0.2v-0.3C166.6,92.7,166.6,92.7,166.7,92.7z"/>
		</g>
	</g>
	<g>
		<rect x="41.9" y="66.4" class="st2" width="98.6" height="1.4"/>
		<rect x="138" y="66.3" class="st3" width="180.5" height="1.5"/>
	</g>
	<g>
		<path class="st2" d="M201.6,54c0.1,0.2,0.3,0.4,0.4,0.6h3v0.6h-1.2c-0.3,0.3-0.7,0.5-1.1,0.7c0.6,0.1,1.1,0.3,1.7,0.5l-0.3,0.5h1
			v0.6h-2.5v0.7h2.2v0.6h-2.2v0.6h1.9V60h-1.9v0.6h2.6v0.7H199v-0.7h2.8V60H200v-0.5c-0.1,0.1-0.2,0.2-0.3,0.4l-0.6-0.5
			c0.2-0.3,0.4-0.5,0.6-0.8c0.1-0.3,0.2-0.6,0.4-1l0.7,0.3c0,0.1-0.1,0.2-0.1,0.3h1.2v-0.7h-2.8v1c0,0.4,0,0.9-0.1,1.4
			c-0.1,0.5-0.3,1-0.5,1.5l-0.7-0.6c0.2-0.4,0.4-0.8,0.4-1.2c0.1-0.4,0.1-0.8,0.1-1.2v-1.6h0.7l-0.3-0.4c0.8-0.2,1.5-0.3,2.1-0.5
			c-0.6-0.1-1.2-0.3-1.9-0.4l0.3-0.4h-1v-0.6h3c-0.1-0.2-0.2-0.3-0.4-0.5L201.6,54z M199.6,55.2c0.8,0.2,1.6,0.3,2.3,0.5
			c0,0,0.1,0,0.1,0c0.4-0.1,0.7-0.3,1-0.5H199.6z M201.8,59.3v-0.6h-1.5c0,0.1,0,0.1-0.1,0.1c-0.1,0.1-0.1,0.3-0.2,0.4H201.8z
			 M200.1,56.9h3.7c-0.6-0.2-1.3-0.4-1.9-0.6C201.4,56.5,200.8,56.7,200.1,56.9z"/>
		<path class="st2" d="M209.1,57.8v3.7h-0.7V61h-1.5v0.5h-0.7v-3.7H209.1z M206.9,60.3h1.5v-1.9h-1.5V60.3z M207,54.5h5.2v2.7H207
			V54.5z M211.4,56.4v-1.3h-3.7v1.3H211.4z M212.9,57.8v3.7h-0.7V61h-1.7v0.5h-0.7v-3.7H212.9z M210.5,60.3h1.7v-1.9h-1.7V60.3z"/>
		<path class="st2" d="M215.7,57.6c0,0.5-0.1,1.1-0.2,1.7c-0.2,0.7-0.5,1.5-1,2.2l-0.7-0.6c0.4-0.6,0.7-1.2,0.9-1.8
			c0.1-0.7,0.2-1.3,0.2-1.8v-2.8h5.8v3.1h-2.4c0.2,0.7,0.5,1.2,0.9,1.7c0.5,0.6,1.2,1,2.1,1.4l-0.5,0.8c-1-0.5-1.8-1.1-2.3-1.8
			c-0.5-0.6-0.8-1.3-1-2.1H215.7z M219.9,55.3h-4.2v1.6h4.2V55.3z"/>
		<path class="st2" d="M222.1,55.6h4.7v-1.4h0.8v1.4h1.5v0.8h-1.5v4.2c0,0.3-0.1,0.5-0.2,0.6c-0.1,0.1-0.4,0.2-0.7,0.2h-1.4
			l-0.2-0.8c0.5,0,1,0.1,1.3,0.1c0.2,0,0.3-0.1,0.3-0.2v-4.1h-4.7V55.6z M223.5,57c0.6,0.6,1.2,1.2,1.6,1.8l-0.7,0.7
			c-0.4-0.6-0.9-1.2-1.5-1.9L223.5,57z"/>
		<path class="st2" d="M234.2,58.2h-1v-1h1V58.2z M234.2,60.7h-1v-1h1V60.7z"/>
	</g>
	<line class="st4" x1="355.7" y1="600.7" x2="355.7" y2="577.6"/>
	<line class="st4" x1="182.8" y1="600.7" x2="182.8" y2="577.6"/>
	<g>
		<g>
			<line class="st4" x1="189.5" y1="589.1" x2="349.1" y2="589.1"/>
			<g>
				<polygon class="st5" points="191,591.3 182.8,589.1 191,587 				"/>
			</g>
			<g>
				<polygon class="st5" points="347.6,591.3 355.7,589.1 347.6,587 				"/>
			</g>
		</g>
	</g>
	<text transform="matrix(1 0 0 1 43.5765 58.583)" class="st2 st6 st7">星耀行動電源</text>
	<text transform="matrix(1 0 0 1 237.758 60.6992)" class="st2 st6 st8">89 x 61 x 26 mm</text>
	<text transform="matrix(1 0 0 1 249.3973 574.9631)" class="st6 st9">61 mm</text>
	<line class="st4" x1="112.4" y1="507.1" x2="89.2" y2="507.1"/>
	<line class="st4" x1="112.2" y1="254.8" x2="89.1" y2="254.8"/>
	<g>
		<g>
			<line class="st4" x1="100.6" y1="500.5" x2="100.6" y2="261.5"/>
			<g>
				<polygon class="st5" points="102.8,499 100.6,507.1 98.5,499 				"/>
			</g>
			<g>
				<polygon class="st5" points="102.8,262.9 100.6,254.8 98.5,262.9 				"/>
			</g>
		</g>
	</g>
	<text transform="matrix(0 -1 1 0 86.469 399.2974)" class="st6 st9">89 mm</text>
</g>
</svg>
