<?xml version="1.0" encoding="utf-8"?>
<svg version="1.1" xmlns="http://www.w3.org/2000/svg" viewBox="83 166 138 237" xml:space="preserve">
<style type="text/css">
  .st0{fill:none;stroke:#000000;stroke-width:1.5;stroke-miterlimit:10;}
  .st1{fill:none;stroke:#E60012;stroke-miterlimit:10;stroke-dasharray:8;}
</style>
<path class="st0" d="M207.8,203.9c-5.5-3.4-15.5-6.6-20-9.3s-10.3-11.4-13-14.1c-2.6-2.7-8.8-9.3-22.6-9.3s-20,6.5-22.6,9.3
  c-2.6,2.7-8.4,11.4-13,14.1c-4.5,2.7-14.5,5.9-20,9.3c-5.5,3.4-8.2,10.8-8.2,19.3s0,150.3,0,158.4c0,8.1,8.1,16.4,17.2,16.4
  s35.5,0,46.6,0c11.2,0,37.5,0,46.6,0s17.2-8.3,17.2-16.4s0-149.8,0-158.4C216,214.7,213.2,207.3,207.8,203.9z M152.2,204.1
  c-3.9,0-7.1-3.2-7.1-7.1c0-3.9,3.2-7.1,7.1-7.1c3.9,0,7.1,3.2,7.1,7.1C159.3,200.9,156.1,204.1,152.2,204.1z"/>
<path class="st1" d="M105.6,400.8c-10.3,0-20-9.4-20-19.2V223.2c0-10,3.5-17.9,9.5-21.7c3.1-2,7.5-3.8,11.6-5.5
  c3.3-1.4,6.5-2.7,8.4-3.9c2.7-1.6,6.4-6.3,9-9.6c1.3-1.6,2.4-3.1,3.3-4c2.9-3.1,9.7-10.1,24.7-10.1s21.7,7.1,24.6,10.1
  c0.9,1,2.1,2.4,3.4,4.1c2.7,3.4,6.3,8,9.1,9.6c1.9,1.2,5.1,2.5,8.4,3.9c4.2,1.7,8.5,3.5,11.6,5.5c6.1,3.8,9.5,11.7,9.5,21.7v158.4
  c0,9.9-9.7,19.2-20,19.2h-93.1V400.8z"/>
</svg>
