<?xml version="1.0" encoding="utf-8"?>
<!-- Generator: Adobe Illustrator 24.3.0, SVG Export Plug-In . SVG Version: 6.00 Build 0)  -->
<svg version="1.1" xmlns="http://www.w3.org/2000/svg" xmlns:xlink="http://www.w3.org/1999/xlink" x="0px" y="0px"
	 viewBox="0 0 324.2 261.6" style="enable-background:new 0 0 324.2 261.6;" xml:space="preserve">
<style type="text/css">
	.st0{display:none;}
	.st1{display:inline;fill:none;stroke:#231815;stroke-width:1.5;stroke-miterlimit:10;}
	.st2{display:inline;}
	.st3{fill:#1891D0;}
	.st4{fill:#1F9AD6;}
	.st5{fill:#22A2D9;}
	.st6{fill:#21ACDC;}
	.st7{fill:#E89112;}
	.st8{fill:#E47F12;}
	.st9{fill:#E0690F;}
	.st10{fill:#DC5412;}
	.st11{fill:#109D3C;}
	.st12{fill:#46A538;}
	.st13{fill:#6EB030;}
	.st14{fill:#87B828;}
	.st15{fill:#231815;}
	.st16{font-family:'ArialMT';}
	.st17{font-size:8.9112px;}
	.st18{display:inline;fill:none;stroke:#E50012;stroke-miterlimit:10;stroke-dasharray:8;}
	.st19{fill:none;stroke:#231815;stroke-width:1.5;stroke-miterlimit:10;}
	.st20{fill:#050001;}
	.st21{clip-path:url(#SVGID_2_);fill:#FFFFFF;}
	.st22{clip-path:url(#SVGID_2_);fill:#FF9E18;}
	.st23{clip-path:url(#SVGID_2_);fill:#D6006D;}
	.st24{clip-path:url(#SVGID_2_);fill:#4C9C2E;}
	.st25{clip-path:url(#SVGID_2_);fill:#0075C9;}
	.st26{fill:#FFFFFF;}
	.st27{fill:#B7B8B8;}
	.st28{fill:none;stroke:#E50012;stroke-miterlimit:10;stroke-dasharray:8;}
	.st29{clip-path:url(#SVGID_4_);}
	.st30{fill:#FADEB5;}
	.st31{clip-path:url(#SVGID_6_);}
	.st32{fill:#F7EBCF;}
	.st33{fill:none;stroke:#000000;stroke-width:1.5;stroke-miterlimit:10;}
	.st34{fill:none;stroke:#E60012;stroke-miterlimit:10;stroke-dasharray:8;}
</style>
<g id="一卡通" class="st0">
	<path class="st1" d="M299,50.4c-5.5-3.4-15.5-6.6-20-9.3c-4.5-2.7-10.3-11.4-13-14.1c-2.6-2.7-8.8-9.3-22.6-9.3
		c-13.8,0-20,6.5-22.6,9.3c-2.6,2.7-8.4,11.4-13,14.1c-4.5,2.7-14.5,5.9-20,9.3c-5.5,3.4-8.2,10.8-8.2,19.3c0,8.5,0,150.3,0,158.4
		c0,8.1,8.1,16.4,17.2,16.4s35.5,0,46.6,0c11.2,0,37.5,0,46.6,0s17.2-8.3,17.2-16.4c0-8.1,0-149.8,0-158.4
		C307.2,61.2,304.4,53.8,299,50.4z M243.4,50.6c-3.9,0-7.1-3.2-7.1-7.1c0-3.9,3.2-7.1,7.1-7.1c3.9,0,7.1,3.2,7.1,7.1
		C250.5,47.4,247.3,50.6,243.4,50.6z"/>
	<g class="st2">
		<g>
			<g>
				<g>
					<g>
						<path class="st3" d="M218.9,188.9c0.1,0.2,0.2,0.4,0.3,0.6c0.3,0.2,0.5,0.4,0.7,0.8c0.3,0.5,0.5,1.2,0.6,1.9
							c0.1-1.5,0-3.1-0.6-4.1c-0.5-0.8-1-1.1-1.9-0.9c-0.7,0.2-1.4,0.7-2.1,1.2c0.4-0.2,0.7-0.4,1.1-0.5
							C217.9,187.8,218.4,188.1,218.9,188.9z"/>
						<path class="st4" d="M213.6,191.6c0.7-0.7,1.6-1.2,2.4-1.5c0.3-0.1,0.5-0.1,0.8-0.1c0.4-0.3,0.8-0.5,1.3-0.6
							c0.5-0.1,0.9-0.1,1.2,0.1c-0.1-0.2-0.2-0.4-0.3-0.6c-0.5-0.8-1-1.1-1.9-0.9c-0.4,0.1-0.7,0.3-1.1,0.5
							C214.8,189.4,213.9,190.6,213.6,191.6z"/>
						<path class="st4" d="M219.2,189.5c0.6,1.8,0.3,4.9-0.2,6.4c0,0.1-0.1,0.1-0.1,0.2c0.5-0.1,0.9-0.4,1.1-0.9
							c0.3-0.7,0.5-1.8,0.5-3c-0.1-0.8-0.3-1.4-0.6-1.9C219.7,189.9,219.5,189.6,219.2,189.5z"/>
						<path class="st5" d="M219.2,189.5c-0.3-0.2-0.7-0.2-1.2-0.1c-0.4,0.1-0.8,0.3-1.3,0.6c0.5,0.1,0.8,0.4,1.2,0.9
							c0.7,1.2,0.7,3.4,0.5,5.2c0.2,0,0.3,0,0.5,0c0-0.1,0.1-0.1,0.1-0.2C219.5,194.4,219.8,191.3,219.2,189.5z"/>
						<path class="st5" d="M216.7,190c-0.2,0-0.5,0-0.8,0.1c-0.8,0.2-1.6,0.8-2.4,1.5c-0.1,0.4-0.2,0.7-0.2,0.9
							c0,0.3,0.2,0.6,0.4,0.8C214.4,192.2,215.5,190.8,216.7,190z"/>
						<path class="st6" d="M214.6,193.6c0.5,0,1.1-0.8,1.8-0.6c0.4,0.1,0.5,0.8,0.6,1.8c0,0.8,0.7,1.3,1.4,1.4
							c0.3-1.8,0.2-4-0.5-5.2c-0.3-0.5-0.7-0.9-1.2-0.9c-1.2,0.8-2.4,2.1-2.9,3.3C214,193.5,214.3,193.6,214.6,193.6z"/>
						<path class="st7" d="M222.6,194.1c-0.7-0.9-0.7-1.8,0-2.6c0.2-0.3,0.5-0.5,0.8-0.8c0.1-0.3,0.2-0.7,0.5-1
							c0.7-0.8,1.8-1.6,3-2.3c-2.1,0.8-4.1,2.1-5.2,3.3c-0.7,0.8-0.7,1.8,0,2.6c0.3,0.4,0.8,0.8,1.3,1.3
							C222.9,194.5,222.7,194.3,222.6,194.1z"/>
						<path class="st8" d="M230.8,196.6c-2.4-0.7-5.7-2.7-6.9-4.2c-0.4-0.5-0.6-1.1-0.5-1.7c-0.3,0.3-0.6,0.5-0.8,0.8
							c-0.7,0.8-0.7,1.8,0,2.6c0.1,0.2,0.3,0.4,0.5,0.5c1.6,1.2,3.8,2.4,5.5,3C229.5,197.9,230.4,197.4,230.8,196.6z"/>
						<path class="st8" d="M223.9,189.8c-0.3,0.3-0.4,0.6-0.5,1c1.2-1,2.9-2,4.7-2.7c0.6-0.4,1.3-0.9,2-1.3
							c-0.2-0.1-0.4-0.1-0.6-0.1c-0.9,0.1-1.7,0.4-2.6,0.7C225.6,188.2,224.6,189,223.9,189.8z"/>
						<path class="st9" d="M226.6,192c-0.7-0.9-0.7-1.8,0-2.6c0.4-0.4,0.9-0.9,1.5-1.4c-1.8,0.6-3.5,1.7-4.7,2.7
							c-0.1,0.5,0.1,1.1,0.5,1.7c1.2,1.5,4.5,3.5,6.9,4.2c0.2-0.5,0.2-1.1-0.2-1.7C228.9,194.1,227.3,193,226.6,192z"/>
						<path class="st9" d="M231,187.5c-0.2-0.3-0.5-0.6-0.9-0.8c-0.7,0.4-1.4,0.8-2,1.3c0.8-0.3,1.5-0.5,2.3-0.6
							C230.6,187.4,230.8,187.5,231,187.5z"/>
						<path class="st10" d="M228,191.8c0-0.9,1.8-1.8,2.5-2.1c0.9-0.5,1-1.4,0.6-2.1c-0.2-0.1-0.4-0.1-0.7-0.1
							c-0.7,0.1-1.5,0.3-2.3,0.6c-0.6,0.4-1.1,0.9-1.5,1.4c-0.7,0.8-0.7,1.8,0,2.6c0.7,0.9,2.3,2.1,3.9,2.9c0,0,0-0.1-0.1-0.1
							C230,194.2,228,192.6,228,191.8z"/>
						<path class="st11" d="M224.8,187.5c0.5-0.3,0.9-0.7,1.2-1.1c-1.3,0.8-2.7,1-3.6,0.5c0,0-0.1,0-0.1-0.1c-0.7,0.1-1.3,0-1.8-0.2
							c-0.1,0-0.1-0.1-0.2-0.1c0,0.2,0.1,0.3,0.1,0.4c0.1,0.5,0.4,1,0.8,1.2C222,188.6,223.5,188.3,224.8,187.5z"/>
						<path class="st12" d="M224.5,185.7c-0.1,0.1-0.3,0.2-0.4,0.3c-0.6,0.4-1.3,0.7-1.9,0.8c0,0,0.1,0,0.1,0.1
							c0.9,0.5,2.4,0.3,3.6-0.5c0.3-0.4,0.4-0.8,0.5-1.2C225.8,185.5,225.1,185.7,224.5,185.7z"/>
						<path class="st12" d="M222.2,186.8c-0.3-0.2-0.5-0.6-0.7-1.1c-0.2-0.9-0.3-2.2,0.2-3.2c-0.3,0.1-0.6,0.3-0.9,0.6
							c-0.7,0.8-0.8,2.3-0.7,3.4c0.1,0.1,0.1,0.1,0.2,0.1C220.9,186.8,221.5,186.9,222.2,186.8z"/>
						<path class="st13" d="M224.5,185.7c-0.5,0-1-0.1-1.4-0.3c-0.4-0.2-0.6-0.7-0.8-1.2c-0.1-0.5-0.2-1.2-0.1-1.9
							c-0.1,0-0.3,0.1-0.4,0.1c-0.5,1-0.4,2.3-0.2,3.2c0.1,0.5,0.3,0.9,0.7,1.1c0.6-0.1,1.3-0.4,1.9-0.8
							C224.3,185.9,224.4,185.8,224.5,185.7z"/>
						<path class="st13" d="M224.5,185.7c0.6,0,1.3-0.2,1.9-0.6c0-0.1,0-0.1,0-0.2c0-0.5-0.3-0.8-0.7-1
							C225.5,184.6,225.1,185.2,224.5,185.7z"/>
						<path class="st14" d="M224.1,183.3c-0.3-0.7-1.1-1-1.9-0.9c-0.1,0.7,0,1.4,0.1,1.9c0.1,0.5,0.4,1,0.8,1.2
							c0.4,0.2,0.9,0.3,1.4,0.3c0.6-0.5,1-1.1,1.2-1.7c-0.1,0-0.2,0-0.3,0C224.9,183.9,224.3,183.8,224.1,183.3z"/>
					</g>
				</g>
				<g>
					<g>
						<path class="st15" d="M249.4,194.6c0,0,0.1,0,0.1,0c0.3,0.1,0.7,0.1,1.2,0.1c0.7,0,1.2-0.2,1.5-0.5c0.3-0.3,0.4-0.6,0.4-1
							c0-0.3,0-0.5-0.2-0.8c-0.2-0.2-0.4-0.4-0.8-0.7l-0.9-0.5c-0.2-0.1-0.4-0.2-0.5-0.3c-0.1-0.1-0.1-0.2-0.1-0.3v0v0
							c0-0.2,0.1-0.3,0.2-0.4c0.1-0.1,0.4-0.1,0.6-0.1c0.4,0,0.9,0,1.3,0.1c0,0,0.1,0,0.1,0c0,0,0.1,0,0.1,0c0,0,0.1-0.1,0.1-0.1
							c0,0,0-0.1,0-0.1v-0.4c-0.1,0-0.3,0-0.4-0.1c-0.3,0-0.8-0.1-1.1-0.1c-0.7,0-1.2,0.1-1.4,0.4c-0.3,0.2-0.4,0.6-0.4,0.9
							c0,0.5,0.2,0.9,0.9,1.3l1,0.6c0.2,0.1,0.4,0.2,0.5,0.4c0.1,0.1,0.1,0.2,0.1,0.4v0c0,0.2-0.1,0.4-0.2,0.5
							c-0.2,0.1-0.4,0.2-0.7,0.2c-0.2,0-0.8,0-1.4-0.1c0,0.1,0,0.4,0,0.5C249.3,194.4,249.3,194.5,249.4,194.6
							C249.3,194.6,249.4,194.6,249.4,194.6z"/>
						<path class="st15" d="M245.4,194.6c0,0,0.1,0,0.1,0c0.3,0.1,0.7,0.1,1.2,0.1c0.7,0,1.2-0.2,1.5-0.5c0.3-0.3,0.4-0.6,0.4-1
							c0-0.3-0.1-0.5-0.2-0.8c-0.2-0.2-0.4-0.4-0.8-0.7l-0.9-0.5c-0.2-0.1-0.4-0.2-0.5-0.3c-0.1-0.1-0.1-0.2-0.1-0.3v0
							c0-0.2,0.1-0.3,0.2-0.4c0.1-0.1,0.3-0.1,0.6-0.1c0.4,0,0.9,0,1.3,0.1c0,0,0.1,0,0.1,0c0,0,0.1,0,0.1,0c0,0,0.1-0.1,0.1-0.1
							c0,0,0-0.1,0-0.1v-0.4c-0.1,0-0.3,0-0.4-0.1c-0.3,0-0.8-0.1-1.1-0.1c-0.7,0-1.2,0.1-1.4,0.4c-0.3,0.2-0.4,0.6-0.4,0.9
							c0,0.5,0.2,0.9,0.9,1.3l1,0.6c0.2,0.1,0.4,0.2,0.5,0.4c0.1,0.1,0.1,0.2,0.1,0.4v0c0,0.2-0.1,0.4-0.2,0.5
							c-0.1,0.1-0.4,0.2-0.7,0.2c-0.2,0-0.8,0-1.4-0.1v0.5C245.3,194.4,245.3,194.5,245.4,194.6
							C245.4,194.6,245.4,194.6,245.4,194.6z"/>
						<path class="st15" d="M243.8,194.5C243.8,194.5,243.8,194.6,243.8,194.5c0,0.1,0.1,0.2,0.1,0.2c0,0,0,0,0.1,0c0,0,0.1,0,0.1,0
							c0,0,0.6,0,0.7,0l-1.3-4.6c-0.1-0.3-0.3-0.5-0.4-0.6c-0.2-0.1-0.4-0.1-0.6-0.1c-0.2,0-0.4,0-0.6,0.1c-0.2,0.1-0.4,0.3-0.4,0.6
							l-1.3,4.6h0.7c0,0,0.1,0,0.1,0c0,0,0.1,0,0.1,0c0,0,0.1-0.1,0.1-0.1c0,0,0-0.1,0-0.1c0,0,0-0.1,0.1-0.2l0.3-1h1.1
							c0.1,0,0.2-0.1,0.2-0.2v-0.5h-1.1l0.6-2.2c0,0,0-0.1,0.1-0.1c0,0,0.1,0,0.1,0h0c0,0,0,0,0,0c0,0,0.1,0,0.1,0
							c0,0,0,0.1,0.1,0.1l0,0l0,0C242.8,190.4,243.8,194.5,243.8,194.5z"/>
						<g>
							<path class="st15" d="M234.7,194.7h0.7v-3.6h-0.9v3.4C234.5,194.6,234.6,194.7,234.7,194.7z"/>
							<path class="st15" d="M234.7,190.5h0.7v-1h-0.9v0.8C234.5,190.4,234.6,190.5,234.7,190.5z"/>
						</g>
						<path class="st15" d="M239.8,189.8c-0.4-0.2-0.9-0.3-1.5-0.3h0c-0.5,0-1,0-1.4,0.1c0,0-0.2,0-0.3,0.1h0v5.1h0.7
							c0.1,0,0.2-0.1,0.2-0.2v-4.3l0,0c0.1,0,0.5,0,0.7,0c0.4,0,0.7,0.1,0.9,0.2c0.2,0.1,0.3,0.4,0.3,0.7v0.1c0,0.3-0.1,0.5-0.3,0.7
							c-0.2,0.2-0.5,0.2-0.9,0.2c0,0-0.1,0-0.3,0h0l0,0c0,0,0.1,0.4,0.1,0.4c0,0.1,0,0.2,0.1,0.2c0,0,0.1,0.1,0.2,0.1
							c0,0,0.1,0,0.1,0c0,0,0.1,0,0.1,0c0.5,0,0.9-0.1,1.2-0.3c0.4-0.3,0.6-0.7,0.6-1.3V191C240.4,190.5,240.2,190.1,239.8,189.8z"
							/>
					</g>
					<g>
						<path class="st15" d="M254.8,191.8v0.6h5.1c0.1,0,0.2-0.1,0.2-0.2v-0.4H254.8z"/>
						<g>
							<path class="st15" d="M268.8,191.5C268.9,191.5,268.9,191.5,268.8,191.5l0.2-0.3c-0.3-0.2-0.7-0.4-1-0.6l-0.3,0.4
								c0.2,0.1,0.4,0.2,0.7,0.4c0,0,0.1,0,0.1,0C268.7,191.6,268.7,191.6,268.8,191.5C268.8,191.6,268.8,191.6,268.8,191.5z"/>
							<path class="st15" d="M269,190.3C269,190.3,269.1,190.2,269,190.3l0.2-0.3c-0.4-0.3-0.7-0.5-1-0.6l-0.3,0.4
								c0.2,0.1,0.4,0.2,0.7,0.4c0,0,0.1,0,0.1,0.1c0,0,0.1,0,0.1,0C268.9,190.4,269,190.4,269,190.3z"/>
							<path class="st15" d="M270.5,194.3L270.5,194.3c-0.3,0-0.5,0-0.7-0.1c-0.2-0.1-0.4-0.2-0.5-0.3c-0.1-0.1-0.2-0.3-0.2-0.4
								v-1.2c0-0.2-0.1-0.3-0.3-0.3H268v0.5h0.6c0,0,0,0.7,0,0.8c0,0.1,0,0.2,0,0.3c0,0.1-0.1,0.2-0.1,0.4c-0.1,0.1-0.3,0.3-0.7,0.4
								l0.2,0.3c0,0,0,0,0.1,0.1c0,0,0,0,0.1,0c0,0,0,0,0.1,0c0,0,0.1,0,0.1,0c0.1-0.1,0.2-0.1,0.3-0.2c0.2-0.2,0.3-0.3,0.3-0.4
								c0.3,0.4,0.8,0.7,1.5,0.7l1.5,0h0.9c0.1,0,0.2,0,0.2-0.2c0-0.1,0-0.3,0-0.3H270.5z"/>
							<path class="st15" d="M272.9,193.1c0-0.6,0-2.1,0-2.1c0-0.1-0.1-0.3-0.3-0.3h-1.3c0,0,0,0,0,0c0.3-0.1,0.7-0.3,1-0.4
								c0.1-0.1,0.3-0.2,0.4-0.3c0,0,0.1-0.1,0.1-0.1c0-0.1,0-0.1,0-0.2c0-0.1-0.1-0.1-0.1-0.1c0,0-0.1,0-0.2,0c-0.1,0-2.8,0-2.8,0
								v0.4h2.3v0c-0.2,0.1-0.6,0.4-1,0.4c-0.2-0.1-0.5-0.2-0.8-0.3l-0.1,0.2c0,0,0,0,0,0.1c0,0,0,0,0,0.1c0,0,0,0,0,0
								c0,0,0,0,0.1,0c0.3,0.1,0.5,0.2,0.6,0.2h-1c-0.2,0-0.3,0.1-0.3,0.3v2.6c0,0.1,0.1,0.2,0.2,0.2h0.3V193h0.9v0.8
								c0,0.1,0.1,0.2,0.2,0.2h0.3V193h0.6c0.1,0,0.2-0.1,0.2-0.2v-0.2h-0.8v-0.5h0.6c0.1,0,0.2-0.1,0.2-0.2v-0.2h-0.8v-0.5h1
								c0,0,0,2.1,0,2.2c0,0.1,0,0.2-0.1,0.2c-0.1,0-0.2,0-0.5-0.1l0,0.3c0,0,0,0.1,0,0.1c0,0,0,0,0,0.1c0,0,0,0,0.1,0
								c0,0,0.1,0,0.1,0c0.3,0,0.5,0,0.6-0.1c0.2-0.1,0.2-0.3,0.2-0.4C272.9,193.4,272.9,193.2,272.9,193.1z M271,192.6H270v-0.5
								h0.9V192.6z M271,191.7H270v-0.5h0.9V191.7z"/>
						</g>
						<g>
							<path class="st15" d="M264,191.6v-1.1h2.2c0.1,0,0.2-0.1,0.2-0.2v-0.2H264v-0.5h-0.6v2h-2.1v0.4h2.1v2.5
								c0,0.1,0.1,0.2,0.2,0.2h0.4V192h2.5c0.1,0,0.2-0.1,0.2-0.2v-0.2H264z"/>
							<path class="st15" d="M265,192.5h-0.7l0,0l0,0c0.2,0.3,0.7,0.8,0.8,1c0.1,0.2,0.4,0.4,0.5,0.5c0.1,0.1,0.1,0.1,0.2,0.1
								c0.1,0,0.2,0,0.2,0c0.1,0,0.1,0,0.1-0.1c0.1,0,0.1-0.1,0.2-0.1C266,193.6,265.4,193,265,192.5z"/>
						</g>
					</g>
				</g>
			</g>
		</g>
		<g>
			<text transform="matrix(1 0 0 1 213.9399 209.2485)" class="st15 st16 st17">888 8888888 8</text>
		</g>
		<g>
			<g>
				<path class="st15" d="M221.9,215.7l-0.1-0.2c0.5-0.2,0.9-0.5,1-0.7l0.2,0l-0.1,0.1h1.7l0.2,0.2c-0.2,0.3-0.5,0.6-0.9,0.8h0
					c0.5,0.2,1,0.3,1.7,0.3l0,0.3c-0.8-0.1-1.4-0.2-2-0.4c-0.6,0.3-1.3,0.5-2,0.5l-0.1-0.2c0.6-0.1,1.1-0.1,1.3-0.2l0.5-0.2
					c-0.4-0.2-0.7-0.4-0.9-0.5C222.3,215.5,222.1,215.6,221.9,215.7z M223.5,214h0.3v0.3h1.8c0,0,0,0,0,0.1c0,0.3-0.1,0.6-0.2,0.9
					l-0.2-0.1c0-0.2,0.1-0.4,0.1-0.6c0,0,0,0,0,0H222c0,0,0,0,0,0v0.6h-0.3v-0.8c0,0,0,0,0,0h1.7V214z M222.5,218h-0.3v-1.3
					c0-0.1,0-0.1,0.1-0.1h2.5c0.1,0,0.1,0,0.1,0.1v1.3h-0.3v-0.4h-2.2V218z M224.7,217.4v-0.5c0,0,0,0,0,0h-2.1c0,0,0,0,0,0v0.5
					H224.7z M223.7,215.7c0.3-0.1,0.5-0.4,0.8-0.6h-1.7l-0.1,0.1c0.2,0.1,0.4,0.2,0.6,0.4L223.7,215.7z"/>
				<path class="st15" d="M226.3,218l-0.3-0.1c0.2-0.5,0.3-1,0.3-1.5v-2.2c0,0,0-0.1,0.1-0.1h1.1l0,0l0,0v3.6c0,0.1,0,0.1-0.1,0.2
					c0,0-0.1,0.1-0.1,0.1c-0.1,0-0.2,0-0.5,0l0-0.3c0.2,0.1,0.4,0.1,0.4,0.1c0,0,0,0,0-0.1v-1.1h-0.7
					C226.5,217.1,226.4,217.5,226.3,218z M227.3,215.2v-0.8l0,0h0h-0.7c0,0,0,0,0,0v0.8H227.3z M227.3,216.4v-0.9h-0.7v0.9H227.3z
					 M228.3,215.7H228v2.3h-0.3v-3.8c0,0,0-0.1,0.1-0.1h2c0.1,0,0.1,0,0.1,0c0,0,0,0.1,0,0.1c0,0.2,0,0.4-0.1,0.6
					c0,0.2-0.1,0.3-0.2,0.3c-0.2,0.1-0.5,0.1-0.9-0.1l0.1-0.3c0.1,0.1,0.3,0.1,0.4,0.1c0.1,0,0.2,0,0.3,0c0,0,0,0,0-0.1
					c0.1-0.2,0.1-0.4,0.1-0.5l0,0h-1.6c0,0,0,0,0,0v1h1.7l0.2,0.1c-0.1,0.7-0.3,1.2-0.6,1.6c0.2,0.2,0.5,0.4,0.8,0.6l-0.2,0.2
					c-0.3-0.2-0.6-0.4-0.8-0.6c-0.3,0.3-0.6,0.5-0.7,0.6l-0.2-0.2c0.2-0.1,0.5-0.3,0.8-0.6C228.6,216.8,228.4,216.3,228.3,215.7z
					 M229.6,215.7h-1.1c0.1,0.5,0.3,0.9,0.6,1.2c0.1-0.2,0.2-0.4,0.3-0.6C229.5,216.2,229.6,216,229.6,215.7z"/>
				<path class="st15" d="M232.8,215.1v0.5h-0.5v-0.5H232.8z M232.8,216.3v0.5h-0.5v-0.5H232.8z"/>
				<path class="st15" d="M236.7,214.3c0.1,0,0.1,0.1,0.2,0.1c-0.3,0.3-0.5,0.5-0.6,0.8c-0.1,0.3-0.2,0.6-0.2,1c0,0.4,0.1,0.7,0.2,1
					c0.1,0.2,0.3,0.5,0.6,0.8l-0.1,0.2c-0.3-0.3-0.5-0.6-0.6-0.8c-0.1-0.3-0.2-0.7-0.2-1.1c0-0.5,0.1-0.8,0.2-1.1
					C236.2,214.8,236.4,214.6,236.7,214.3z"/>
				<path class="st15" d="M238.4,217.7c-0.7,0-1.1-0.4-1.1-1.4v-0.6c0-1,0.4-1.4,1.1-1.4c0.7,0,1.1,0.4,1.1,1.4v0.6
					C239.5,217.3,239.1,217.7,238.4,217.7z M239.1,215.8c0-0.7-0.3-1-0.7-1c-0.4,0-0.7,0.3-0.7,1v0.6c0,0.7,0.3,1,0.7,1
					c0.4,0,0.7-0.3,0.7-1V215.8z"/>
				<path class="st15" d="M242.1,214.9l-1.3,2.7c0,0-0.1,0.1-0.1,0.1h-0.3c0,0-0.1,0-0.1-0.1c0,0,0,0,0,0l1.3-2.8c0,0,0,0,0,0
					c0,0,0,0,0,0h-1.5c0,0-0.1,0-0.1-0.1v-0.2c0,0,0-0.1,0.1-0.1h1.6c0.2,0,0.3,0.1,0.3,0.3C242.2,214.8,242.2,214.9,242.1,214.9z"
					/>
				<path class="st15" d="M242.9,214.3c0.3,0.2,0.5,0.5,0.7,0.9c0.1,0.3,0.2,0.7,0.2,1.1c0,0.4-0.1,0.8-0.2,1.1
					c-0.1,0.3-0.3,0.6-0.6,0.8l-0.1-0.2c0.3-0.3,0.5-0.5,0.6-0.8c0.1-0.3,0.2-0.6,0.2-1c0-0.4-0.1-0.8-0.2-1
					c-0.1-0.2-0.3-0.5-0.7-0.8C242.8,214.4,242.9,214.3,242.9,214.3z"/>
				<path class="st15" d="M247.1,214.9l-1.3,2.7c0,0-0.1,0.1-0.1,0.1h-0.3c0,0-0.1,0-0.1-0.1c0,0,0,0,0,0l1.3-2.8c0,0,0,0,0,0
					c0,0,0,0,0,0h-1.5c0,0-0.1,0-0.1-0.1v-0.2c0,0,0-0.1,0.1-0.1h1.6c0.2,0,0.3,0.1,0.3,0.3C247.2,214.8,247.2,214.9,247.1,214.9z"
					/>
				<path class="st15" d="M248.8,217.7c-0.3,0-0.6,0-0.8-0.1c-0.1,0-0.1,0-0.1-0.1v-0.2c0-0.1,0-0.1,0.1-0.1c0,0,0,0,0,0
					c0.2,0,0.5,0.1,0.7,0.1c0.7,0,0.8-0.4,0.8-1v0c-0.2,0-0.4,0.1-0.7,0.1c-0.6,0-1.1-0.2-1.1-0.9v0c0-0.7,0.4-1.1,1.1-1.1
					c0.7,0,1.1,0.4,1.1,1.2v0.8C250,217.3,249.6,217.7,248.8,217.7z M249.6,215.6c0-0.7-0.2-0.9-0.7-0.9c-0.4,0-0.7,0.2-0.7,0.8v0
					c0,0.5,0.3,0.6,0.7,0.6c0.2,0,0.5,0,0.7-0.1L249.6,215.6z"/>
				<path class="st15" d="M251.9,217.7h-0.2c0,0-0.1,0-0.1-0.1v-2.8l-0.6,0.2c0,0,0,0-0.1,0c0,0,0,0,0,0v-0.2c0,0,0,0,0-0.1l0.7-0.3
					c0,0,0.1,0,0.1,0h0.2c0,0,0.1,0,0.1,0.1L251.9,217.7C252,217.6,251.9,217.7,251.9,217.7z"/>
				<path class="st15" d="M254.3,216.6h-0.9c0,0-0.1,0-0.1-0.1v-0.2c0,0,0-0.1,0.1-0.1h0.9c0,0,0.1,0,0.1,0.1L254.3,216.6
					C254.3,216.5,254.3,216.6,254.3,216.6z"/>
				<path class="st15" d="M256.4,216l-0.4,0.3c-0.5,0.3-0.6,0.5-0.6,0.9v0.1h1.5c0,0,0.1,0,0.1,0.1v0.2c0,0,0,0.1-0.1,0.1h-1.7
					c0,0-0.1,0-0.1-0.1v-0.4c0-0.5,0.2-0.8,0.7-1.2l0.4-0.3c0.4-0.2,0.5-0.3,0.5-0.6c0-0.3-0.2-0.5-0.7-0.5c-0.2,0-0.5,0-0.8,0.1
					c0,0,0,0,0,0c0,0-0.1,0-0.1-0.1v-0.2c0,0,0-0.1,0.1-0.1c0.2-0.1,0.5-0.1,0.8-0.1c0.7,0,1,0.2,1,0.8
					C256.9,215.5,256.8,215.7,256.4,216z"/>
				<path class="st15" d="M258.7,217.7c-0.7,0-1.1-0.4-1.1-1.4v-0.6c0-1,0.4-1.4,1.1-1.4c0.7,0,1.1,0.4,1.1,1.4v0.6
					C259.8,217.3,259.4,217.7,258.7,217.7z M259.4,215.8c0-0.7-0.3-1-0.7-1c-0.4,0-0.7,0.3-0.7,1v0.6c0,0.7,0.3,1,0.7,1
					c0.4,0,0.7-0.3,0.7-1V215.8z"/>
				<path class="st15" d="M261.4,217.7c-0.7,0-1.1-0.4-1.1-1.4v-0.6c0-1,0.4-1.4,1.1-1.4c0.7,0,1.1,0.4,1.1,1.4v0.6
					C262.5,217.3,262.1,217.7,261.4,217.7z M262.1,215.8c0-0.7-0.3-1-0.7-1c-0.4,0-0.7,0.3-0.7,1v0.6c0,0.7,0.3,1,0.7,1
					c0.4,0,0.7-0.3,0.7-1V215.8z"/>
				<path class="st15" d="M264.2,217.7c-0.7,0-1.1-0.4-1.1-1.4v-0.6c0-1,0.4-1.4,1.1-1.4c0.7,0,1.1,0.4,1.1,1.4v0.6
					C265.3,217.3,264.8,217.7,264.2,217.7z M264.9,215.8c0-0.7-0.3-1-0.7-1c-0.4,0-0.7,0.3-0.7,1v0.6c0,0.7,0.3,1,0.7,1
					c0.4,0,0.7-0.3,0.7-1V215.8z"/>
			</g>
			<g>
				<path class="st15" d="M227.3,221.7l-0.4,2c-0.1,0.3-0.1,0.3-0.4,0.3c-0.2,0-0.3,0-0.4-0.3l-0.4-1.5c0,0,0,0,0,0c0,0,0,0,0,0
					l-0.4,1.5c-0.1,0.3-0.1,0.3-0.4,0.3c-0.3,0-0.3,0-0.4-0.3l-0.4-2c0,0,0,0,0,0c0,0,0-0.1,0.1-0.1h0.2c0,0,0.1,0,0.1,0.1l0.4,2
					c0,0.1,0,0.1,0,0.1c0,0,0,0,0-0.1l0.4-1.7c0-0.1,0.1-0.1,0.2-0.1h0.2c0.1,0,0.1,0,0.2,0.1l0.4,1.7c0,0,0,0.1,0,0.1
					c0,0,0,0,0-0.1l0.4-2c0,0,0-0.1,0.1-0.1h0.2C227.2,221.6,227.3,221.6,227.3,221.7C227.3,221.7,227.3,221.7,227.3,221.7z"/>
				<path class="st15" d="M230.8,221.7l-0.4,2c-0.1,0.3-0.1,0.3-0.4,0.3c-0.2,0-0.3,0-0.4-0.3l-0.4-1.5c0,0,0,0,0,0c0,0,0,0,0,0
					l-0.4,1.5c-0.1,0.3-0.1,0.3-0.4,0.3c-0.3,0-0.3,0-0.4-0.3l-0.4-2c0,0,0,0,0,0c0,0,0-0.1,0.1-0.1h0.2c0,0,0.1,0,0.1,0.1l0.4,2
					c0,0.1,0,0.1,0,0.1c0,0,0,0,0-0.1l0.4-1.7c0-0.1,0.1-0.1,0.2-0.1h0.2c0.1,0,0.1,0,0.2,0.1l0.4,1.7c0,0,0,0.1,0,0.1
					c0,0,0,0,0-0.1l0.4-2c0,0,0-0.1,0.1-0.1h0.2C230.8,221.6,230.8,221.6,230.8,221.7C230.8,221.7,230.8,221.7,230.8,221.7z"/>
				<path class="st15" d="M234.3,221.7l-0.4,2c-0.1,0.3-0.1,0.3-0.4,0.3c-0.2,0-0.3,0-0.4-0.3l-0.4-1.5c0,0,0,0,0,0c0,0,0,0,0,0
					l-0.4,1.5c-0.1,0.3-0.1,0.3-0.4,0.3c-0.3,0-0.3,0-0.4-0.3l-0.4-2c0,0,0,0,0,0c0,0,0-0.1,0.1-0.1h0.2c0,0,0.1,0,0.1,0.1l0.4,2
					c0,0.1,0,0.1,0,0.1c0,0,0,0,0-0.1l0.4-1.7c0-0.1,0.1-0.1,0.2-0.1h0.2c0.1,0,0.1,0,0.2,0.1l0.4,1.7c0,0,0,0.1,0,0.1
					c0,0,0,0,0-0.1l0.4-2c0,0,0-0.1,0.1-0.1h0.2C234.3,221.6,234.3,221.6,234.3,221.7C234.3,221.7,234.3,221.7,234.3,221.7z"/>
				<path class="st15" d="M235.2,224H235c0,0-0.1,0-0.1-0.1v-0.4c0,0,0-0.1,0.1-0.1h0.2c0,0,0.1,0,0.1,0.1L235.2,224
					C235.3,223.9,235.2,224,235.2,224z"/>
				<path class="st15" d="M236.3,221.2h-0.2c0,0-0.1,0-0.1-0.1v-0.4c0,0,0-0.1,0.1-0.1h0.2c0.1,0,0.1,0,0.1,0.1L236.3,221.2
					C236.4,221.1,236.3,221.2,236.3,221.2z M236.3,224h-0.2c0,0-0.1,0-0.1-0.1v-2.2c0-0.1,0-0.1,0.1-0.1h0.2c0,0,0.1,0,0.1,0.1
					L236.3,224C236.4,223.9,236.3,224,236.3,224z"/>
				<path class="st15" d="M238,222.9h-0.9c-0.1,0-0.1,0-0.1-0.1v-0.2c0,0,0-0.1,0.1-0.1h0.9c0,0,0.1,0,0.1,0.1L238,222.9
					C238,222.8,238,222.9,238,222.9z"/>
				<path class="st15" d="M239.5,224c-0.1,0-0.3,0-0.5-0.1v0.8c0,0,0,0.1-0.1,0.1h-0.2c0,0-0.1,0-0.1-0.1v-3c0-0.1,0-0.1,0.1-0.1
					c0.2-0.1,0.5-0.1,0.8-0.1c0.7,0,1,0.4,1,1.1v0.3C240.5,223.6,240.2,224,239.5,224z M240.1,222.6c0-0.5-0.1-0.8-0.6-0.8
					c-0.2,0-0.4,0-0.5,0v1.7c0.1,0,0.4,0,0.5,0c0.4,0,0.6-0.3,0.6-0.7V222.6z"/>
				<path class="st15" d="M242.7,224h-0.2c0,0-0.1,0-0.1-0.1v-0.1c-0.2,0.1-0.4,0.2-0.7,0.2c-0.4,0-0.7-0.2-0.7-0.7v-0.1
					c0-0.5,0.3-0.7,1.1-0.7h0.3v-0.2c0-0.4-0.1-0.5-0.5-0.5c-0.3,0-0.5,0-0.7,0c0,0,0,0,0,0c0,0-0.1,0-0.1-0.1v-0.2
					c0,0,0-0.1,0.1-0.1c0.2,0,0.4-0.1,0.7-0.1c0.6,0,0.9,0.3,0.9,0.8L242.7,224C242.8,223.9,242.7,224,242.7,224z M242.4,222.8h-0.3
					c-0.5,0-0.7,0.1-0.7,0.4v0.1c0,0.3,0.1,0.4,0.4,0.4c0.2,0,0.4-0.1,0.6-0.2V222.8z"/>
				<path class="st15" d="M244.2,224c-0.2,0-0.5,0-0.7-0.1c-0.1,0-0.1,0-0.1-0.1v-0.2c0,0,0-0.1,0.1-0.1c0,0,0,0,0,0
					c0.2,0,0.5,0,0.7,0c0.3,0,0.4-0.1,0.4-0.3c0-0.1-0.1-0.2-0.3-0.4l-0.4-0.3c-0.3-0.2-0.4-0.3-0.4-0.6c0-0.5,0.3-0.6,0.8-0.6
					c0.2,0,0.5,0,0.7,0.1c0.1,0,0.1,0,0.1,0.1v0.1c0,0.1,0,0.1-0.1,0.1c0,0,0,0,0,0c-0.2,0-0.4,0-0.7,0c-0.2,0-0.4,0-0.4,0.3
					c0,0.1,0.1,0.2,0.3,0.3l0.4,0.3c0.4,0.2,0.5,0.4,0.5,0.7C245,223.8,244.7,224,244.2,224z"/>
				<path class="st15" d="M246.3,224c-0.2,0-0.5,0-0.7-0.1c-0.1,0-0.1,0-0.1-0.1v-0.2c0,0,0-0.1,0.1-0.1c0,0,0,0,0,0
					c0.2,0,0.5,0,0.7,0c0.3,0,0.4-0.1,0.4-0.3c0-0.1-0.1-0.2-0.3-0.4l-0.4-0.3c-0.3-0.2-0.4-0.3-0.4-0.6c0-0.5,0.3-0.6,0.8-0.6
					c0.2,0,0.5,0,0.7,0.1c0.1,0,0.1,0,0.1,0.1v0.1c0,0.1,0,0.1-0.1,0.1c0,0,0,0,0,0c-0.2,0-0.4,0-0.7,0c-0.2,0-0.4,0-0.4,0.3
					c0,0.1,0.1,0.2,0.3,0.3l0.4,0.3c0.4,0.2,0.5,0.4,0.5,0.7C247.1,223.8,246.8,224,246.3,224z"/>
				<path class="st15" d="M248,224h-0.2c0,0-0.1,0-0.1-0.1v-0.4c0,0,0-0.1,0.1-0.1h0.2c0,0,0.1,0,0.1,0.1L248,224
					C248.1,223.9,248,224,248,224z"/>
				<path class="st15" d="M250.1,224c-0.1,0-0.3,0.1-0.5,0.1c-0.6,0-0.9-0.4-0.9-1.1v-0.3c0-0.6,0.3-1.1,0.9-1.1c0.2,0,0.4,0,0.5,0
					c0.1,0,0.1,0,0.1,0.1v0.2c0,0,0,0.1-0.1,0.1c0,0,0,0,0,0c-0.2,0-0.3,0-0.5,0c-0.4,0-0.5,0.2-0.5,0.7v0.3c0,0.5,0.2,0.7,0.5,0.7
					c0.2,0,0.3,0,0.5,0c0,0,0,0,0,0c0,0,0.1,0,0.1,0.1L250.1,224C250.2,223.9,250.2,224,250.1,224z"/>
				<path class="st15" d="M251.7,224c-0.6,0-1-0.4-1-1.1v-0.3c0-0.6,0.3-1.1,1-1.1c0.6,0,1,0.4,1,1.1v0.3
					C252.7,223.6,252.3,224,251.7,224z M252.3,222.6c0-0.5-0.2-0.7-0.6-0.7c-0.4,0-0.6,0.3-0.6,0.7v0.3c0,0.5,0.2,0.7,0.6,0.7
					c0.4,0,0.6-0.3,0.6-0.7V222.6z"/>
				<path class="st15" d="M256.1,224h-0.2c0,0-0.1,0-0.1-0.1v-1.6c0-0.4-0.2-0.5-0.4-0.5c-0.2,0-0.3,0-0.5,0.1c0,0.1,0,0.2,0,0.3
					v1.6c0,0,0,0.1-0.1,0.1h-0.2c0,0-0.1,0-0.1-0.1v-1.6c0-0.4-0.1-0.5-0.3-0.5c-0.2,0-0.4,0.1-0.5,0.2v1.8c0,0,0,0.1-0.1,0.1h-0.2
					c0,0-0.1,0-0.1-0.1v-2.2c0-0.1,0-0.1,0.1-0.1h0.2c0,0,0.1,0,0.1,0.1v0.1c0.2-0.1,0.4-0.2,0.6-0.2c0.2,0,0.3,0.1,0.4,0.2
					c0.2-0.1,0.5-0.2,0.7-0.2c0.4,0,0.7,0.2,0.7,0.8L256.1,224C256.2,223.9,256.2,224,256.1,224z"/>
				<path class="st15" d="M257.2,224h-0.2c0,0-0.1,0-0.1-0.1v-0.4c0,0,0-0.1,0.1-0.1h0.2c0,0,0.1,0,0.1,0.1L257.2,224
					C257.2,223.9,257.2,224,257.2,224z"/>
				<path class="st15" d="M259.1,224c-0.1,0-0.2,0-0.3,0c-0.4,0-0.6-0.1-0.6-0.6v-1.5l-0.4,0c0,0-0.1,0-0.1-0.1v-0.1
					c0,0,0-0.1,0.1-0.1h0.4v-0.4c0,0,0-0.1,0.1-0.1l0.2,0c0,0,0,0,0,0c0,0,0.1,0,0.1,0.1v0.5h0.5c0,0,0.1,0,0.1,0.1v0.1
					c0,0,0,0.1-0.1,0.1h-0.5v1.5c0,0.2,0.1,0.3,0.2,0.3h0.2c0.1,0,0.1,0,0.1,0.1L259.1,224C259.2,224,259.2,224,259.1,224z"/>
				<path class="st15" d="M262.7,221.7l-0.4,2c-0.1,0.3-0.1,0.3-0.4,0.3c-0.2,0-0.3,0-0.4-0.3l-0.4-1.5c0,0,0,0,0,0c0,0,0,0,0,0
					l-0.4,1.5c-0.1,0.3-0.1,0.3-0.4,0.3c-0.3,0-0.3,0-0.4-0.3l-0.4-2c0,0,0,0,0,0c0,0,0-0.1,0.1-0.1h0.2c0,0,0.1,0,0.1,0.1l0.4,2
					c0,0.1,0,0.1,0,0.1c0,0,0,0,0-0.1l0.4-1.7c0-0.1,0.1-0.1,0.2-0.1h0.2c0.1,0,0.2,0,0.2,0.1l0.4,1.7c0,0,0,0.1,0,0.1
					c0,0,0,0,0-0.1l0.4-2c0,0,0-0.1,0.1-0.1h0.2C262.6,221.6,262.7,221.6,262.7,221.7C262.7,221.7,262.7,221.7,262.7,221.7z"/>
			</g>
		</g>
	</g>
	<path class="st18" d="M196.8,247.3c-10.3,0-20-9.4-20-19.2V69.7c0-10,3.5-17.9,9.5-21.7c3.1-2,7.5-3.8,11.6-5.5
		c3.3-1.4,6.5-2.7,8.4-3.9c2.7-1.6,6.4-6.3,9-9.6c1.3-1.6,2.4-3.1,3.3-4c2.9-3.1,9.7-10.1,24.7-10.1c15,0,21.7,7.1,24.6,10.1
		c0.9,1,2.1,2.4,3.4,4.1c2.7,3.4,6.3,8,9.1,9.6c1.9,1.2,5.1,2.5,8.4,3.9c4.2,1.7,8.5,3.5,11.6,5.5c6.1,3.8,9.5,11.7,9.5,21.7v158.4
		c0,9.9-9.7,19.2-20,19.2H196.8z"/>
</g>
<g id="悠遊卡">
	<path class="st19" d="M299,50.4c-5.5-3.4-15.5-6.6-20-9.3c-4.5-2.7-10.3-11.4-13-14.1c-2.6-2.7-8.8-9.3-22.6-9.3
		c-13.8,0-20,6.5-22.6,9.3c-2.6,2.7-8.4,11.4-13,14.1c-4.5,2.7-14.5,5.9-20,9.3c-5.5,3.4-8.2,10.8-8.2,19.3c0,8.5,0,150.3,0,158.4
		c0,8.1,8.1,16.4,17.2,16.4s35.5,0,46.6,0c11.2,0,37.5,0,46.6,0s17.2-8.3,17.2-16.4c0-8.1,0-149.8,0-158.4
		C307.2,61.2,304.4,53.8,299,50.4z M243.4,50.6c-3.9,0-7.1-3.2-7.1-7.1c0-3.9,3.2-7.1,7.1-7.1c3.9,0,7.1,3.2,7.1,7.1
		C250.5,47.4,247.3,50.6,243.4,50.6z"/>
	<g>
		<g>
			<g>
				<path class="st20" d="M227.2,217.3l-0.2,0.5c-1-0.1-1.8-0.3-2.6-0.7c-0.8,0.3-1.7,0.5-2.6,0.6l-0.2-0.5c0.8-0.1,1.5-0.2,2.2-0.4
					c-0.4-0.3-0.6-0.4-0.8-0.6c-0.3,0.2-0.5,0.4-0.8,0.6l-0.4-0.4c0.7-0.4,1.3-0.9,1.7-1.5h-1.3v0.9h-0.6v-1.4h2.3
					c0,0-0.1-0.2-0.2-0.4l0.6-0.1c0.1,0.1,0.2,0.3,0.3,0.5h2.4v1.4h-0.6V215h-2.8l0.4,0.2c-0.1,0.1-0.1,0.2-0.2,0.3h2.4v0.5
					c-0.4,0.3-0.8,0.6-1.2,0.9C225.7,217.1,226.4,217.3,227.2,217.3z M226.3,219.7h-0.6v-0.2h-2.8v0.2h-0.6v-1.9h4V219.7z
					 M225.8,218.9v-0.6h-2.8v0.6H225.8z M225.3,216h-1.9c0.3,0.2,0.6,0.4,0.9,0.6C224.7,216.4,225,216.2,225.3,216z"/>
				<path class="st20" d="M230.5,219.2c0,0.1,0,0.2-0.1,0.3c-0.1,0.1-0.4,0.1-0.9,0.1l-0.2-0.6c0.1,0,0.3,0,0.4,0c0.1,0,0.2,0,0.2,0
					c0,0,0-0.1,0-0.1v-1.4h-0.7c-0.1,0.9-0.2,1.6-0.5,2.1l-0.5-0.3c0.3-0.6,0.4-1.4,0.4-2.4v-2.9h1.9V219.2z M229.9,215.5v-0.9h-0.7
					v0.9H229.9z M229.9,217v-0.9h-0.7v0.9H229.9z M234,219.2l-0.4,0.5c-0.3-0.2-0.6-0.4-0.9-0.7c-0.3,0.3-0.5,0.5-0.7,0.6l-0.4-0.4
					c0.3-0.2,0.5-0.4,0.7-0.6c-0.4-0.6-0.7-1.2-0.8-1.8h-0.1v2.9h-0.6v-5.6h2.8c0,0.3,0,0.7-0.1,1c-0.1,0.3-0.1,0.5-0.2,0.6
					c-0.1,0.1-0.2,0.1-0.3,0.2c-0.1,0-0.4,0.1-0.8,0.1l-0.2-0.5c0.5,0,0.8,0,0.9-0.1c0-0.1,0.1-0.3,0.1-0.7h-1.6v1.6h2.2
					c-0.1,1-0.3,1.8-0.6,2.3C233.3,218.7,233.6,219,234,219.2z M233.1,216.8h-0.9c0.1,0.4,0.2,0.9,0.5,1.3
					C232.9,217.8,233,217.3,233.1,216.8z"/>
				<path class="st20" d="M238.7,219.3v-1.1h-2v-0.5l2.1-3h0.5v3h0.6v0.5h-0.6v1.1H238.7z M238.7,217.7v-2.1l-1.5,2.1H238.7z"/>
				<path class="st20" d="M242.8,219.3h-0.6v-3.6c-0.1,0.1-0.3,0.3-0.5,0.4c-0.2,0.1-0.4,0.2-0.6,0.3v-0.6c0.3-0.2,0.6-0.3,0.8-0.5
					c0.2-0.2,0.4-0.4,0.5-0.6h0.4V219.3z"/>
				<path class="st20" d="M247.5,218.8v0.5h-3.1c0-0.1,0-0.3,0.1-0.4c0.1-0.2,0.2-0.4,0.4-0.6c0.2-0.2,0.4-0.4,0.7-0.7
					c0.5-0.4,0.8-0.7,1-1c0.2-0.2,0.3-0.5,0.3-0.7c0-0.2-0.1-0.4-0.2-0.6c-0.2-0.2-0.4-0.2-0.6-0.2c-0.3,0-0.5,0.1-0.7,0.2
					c-0.2,0.2-0.2,0.4-0.3,0.7l-0.6-0.1c0-0.4,0.2-0.8,0.5-1c0.3-0.2,0.6-0.3,1.1-0.3c0.4,0,0.8,0.1,1.1,0.4
					c0.3,0.2,0.4,0.6,0.4,0.9c0,0.2,0,0.4-0.1,0.5c-0.1,0.2-0.2,0.4-0.4,0.6c-0.2,0.2-0.5,0.5-0.9,0.8c-0.3,0.3-0.6,0.5-0.7,0.6
					c-0.1,0.1-0.2,0.2-0.2,0.3H247.5z"/>
				<path class="st20" d="M248.3,217.9v-0.6h1.8v0.6H248.3z"/>
				<path class="st20" d="M251.6,216.8c-0.2-0.1-0.4-0.2-0.5-0.4c-0.1-0.2-0.2-0.4-0.2-0.6c0-0.3,0.1-0.6,0.4-0.9
					c0.2-0.2,0.6-0.3,1-0.3c0.4,0,0.7,0.1,1,0.4c0.2,0.2,0.4,0.5,0.4,0.9c0,0.2-0.1,0.4-0.2,0.6c-0.1,0.2-0.3,0.3-0.5,0.4
					c0.3,0.1,0.5,0.2,0.7,0.5c0.1,0.2,0.2,0.5,0.2,0.7c0,0.4-0.1,0.7-0.4,1c-0.3,0.3-0.7,0.4-1.1,0.4s-0.8-0.1-1.1-0.4
					c-0.3-0.3-0.4-0.6-0.4-1c0-0.3,0.1-0.6,0.2-0.8C251.1,217,251.3,216.9,251.6,216.8z M251.3,218c0,0.2,0,0.3,0.1,0.5
					c0.1,0.2,0.2,0.3,0.3,0.4c0.2,0.1,0.3,0.1,0.5,0.1c0.3,0,0.5-0.1,0.7-0.3c0.2-0.2,0.3-0.4,0.3-0.7c0-0.3-0.1-0.5-0.3-0.7
					c-0.2-0.2-0.4-0.3-0.7-0.3c-0.3,0-0.5,0.1-0.7,0.3C251.4,217.5,251.3,217.7,251.3,218z M251.5,215.8c0,0.2,0.1,0.4,0.2,0.5
					c0.1,0.1,0.3,0.2,0.6,0.2c0.2,0,0.4-0.1,0.5-0.2c0.1-0.1,0.2-0.3,0.2-0.5c0-0.2-0.1-0.4-0.2-0.5c-0.1-0.1-0.3-0.2-0.5-0.2
					c-0.2,0-0.4,0.1-0.5,0.2C251.6,215.5,251.5,215.6,251.5,215.8z"/>
				<path class="st20" d="M255.5,216.8c-0.2-0.1-0.4-0.2-0.5-0.4c-0.1-0.2-0.2-0.4-0.2-0.6c0-0.3,0.1-0.6,0.4-0.9
					c0.2-0.2,0.6-0.3,1-0.3c0.4,0,0.7,0.1,1,0.4c0.2,0.2,0.4,0.5,0.4,0.9c0,0.2-0.1,0.4-0.2,0.6c-0.1,0.2-0.3,0.3-0.5,0.4
					c0.3,0.1,0.5,0.2,0.7,0.5c0.1,0.2,0.2,0.5,0.2,0.7c0,0.4-0.1,0.7-0.4,1c-0.3,0.3-0.7,0.4-1.1,0.4c-0.5,0-0.8-0.1-1.1-0.4
					c-0.3-0.3-0.4-0.6-0.4-1c0-0.3,0.1-0.6,0.2-0.8C255,217,255.2,216.9,255.5,216.8z M255.2,218c0,0.2,0,0.3,0.1,0.5
					c0.1,0.2,0.2,0.3,0.3,0.4c0.2,0.1,0.3,0.1,0.5,0.1c0.3,0,0.5-0.1,0.7-0.3c0.2-0.2,0.3-0.4,0.3-0.7c0-0.3-0.1-0.5-0.3-0.7
					c-0.2-0.2-0.4-0.3-0.7-0.3c-0.3,0-0.5,0.1-0.7,0.3C255.3,217.5,255.2,217.7,255.2,218z M255.3,215.8c0,0.2,0.1,0.4,0.2,0.5
					c0.1,0.1,0.3,0.2,0.6,0.2c0.2,0,0.4-0.1,0.5-0.2c0.1-0.1,0.2-0.3,0.2-0.5c0-0.2-0.1-0.4-0.2-0.5c-0.1-0.1-0.3-0.2-0.5-0.2
					c-0.2,0-0.4,0.1-0.5,0.2C255.4,215.5,255.3,215.6,255.3,215.8z"/>
				<path class="st20" d="M259.3,216.8c-0.2-0.1-0.4-0.2-0.5-0.4c-0.1-0.2-0.2-0.4-0.2-0.6c0-0.3,0.1-0.6,0.4-0.9
					c0.2-0.2,0.6-0.3,1-0.3c0.4,0,0.7,0.1,1,0.4c0.2,0.2,0.4,0.5,0.4,0.9c0,0.2-0.1,0.4-0.2,0.6c-0.1,0.2-0.3,0.3-0.5,0.4
					c0.3,0.1,0.5,0.2,0.7,0.5c0.1,0.2,0.2,0.5,0.2,0.7c0,0.4-0.1,0.7-0.4,1c-0.3,0.3-0.7,0.4-1.1,0.4c-0.5,0-0.8-0.1-1.1-0.4
					c-0.3-0.3-0.4-0.6-0.4-1c0-0.3,0.1-0.6,0.2-0.8C258.8,217,259,216.9,259.3,216.8z M259,218c0,0.2,0,0.3,0.1,0.5
					c0.1,0.2,0.2,0.3,0.3,0.4c0.2,0.1,0.3,0.1,0.5,0.1c0.3,0,0.5-0.1,0.7-0.3c0.2-0.2,0.3-0.4,0.3-0.7c0-0.3-0.1-0.5-0.3-0.7
					c-0.2-0.2-0.4-0.3-0.7-0.3c-0.3,0-0.5,0.1-0.7,0.3C259.1,217.5,259,217.7,259,218z M259.2,215.8c0,0.2,0.1,0.4,0.2,0.5
					c0.1,0.1,0.3,0.2,0.6,0.2c0.2,0,0.4-0.1,0.5-0.2c0.1-0.1,0.2-0.3,0.2-0.5c0-0.2-0.1-0.4-0.2-0.5c-0.1-0.1-0.3-0.2-0.5-0.2
					c-0.2,0-0.4,0.1-0.5,0.2C259.3,215.5,259.2,215.6,259.2,215.8z"/>
				<path class="st20" d="M262.3,217c0-0.5,0.1-1,0.2-1.3c0.1-0.3,0.3-0.6,0.5-0.8c0.2-0.2,0.5-0.3,0.8-0.3c0.2,0,0.5,0,0.7,0.2
					c0.2,0.1,0.3,0.2,0.5,0.4c0.1,0.2,0.2,0.4,0.3,0.7c0.1,0.3,0.1,0.6,0.1,1.1c0,0.5-0.1,1-0.2,1.3c-0.1,0.3-0.3,0.6-0.5,0.8
					c-0.2,0.2-0.5,0.3-0.8,0.3c-0.4,0-0.8-0.2-1.1-0.5C262.4,218.5,262.3,217.9,262.3,217z M262.9,217c0,0.8,0.1,1.3,0.3,1.5
					c0.2,0.3,0.4,0.4,0.7,0.4c0.3,0,0.5-0.1,0.7-0.4c0.2-0.3,0.3-0.8,0.3-1.5c0-0.8-0.1-1.3-0.3-1.5c-0.2-0.3-0.4-0.4-0.7-0.4
					c-0.3,0-0.5,0.1-0.6,0.3C263,215.7,262.9,216.3,262.9,217z"/>
			</g>
			<g>
				<defs>
					<path id="SVGID_1_" d="M257.6,193.6h-28.3c-0.8,0-1.4-0.6-1.4-1.4v-16.9c0-0.8,0.6-1.4,1.4-1.4h28.3c0.8,0,1.4,0.6,1.4,1.4
						v16.9C259,192.9,258.4,193.6,257.6,193.6z"/>
				</defs>
				<clipPath id="SVGID_2_">
					<use xlink:href="#SVGID_1_"  style="overflow:visible;"/>
				</clipPath>
				<path class="st21" d="M257.6,193.6h-28.3c-0.8,0-1.4-0.6-1.4-1.4v-16.9c0-0.8,0.6-1.4,1.4-1.4h28.3c0.8,0,1.4,0.6,1.4,1.4v16.9
					C259,192.9,258.4,193.6,257.6,193.6z"/>
				<path class="st22" d="M227.8,177.2c0,0,1.5,0.1,3.2,0.5c1.7,0.4,4.6,1.2,5.2,1.4c0.7,0.2,2,0.7,2.4,0.8c0.3,0.1,0.7,0.2,0.9,0
					c0.2-0.2,0.4-0.7,0.2-1.3c-0.2-0.7-0.8-1.9-1.3-2.6c-0.5-0.8-1.3-1.8-1.7-2.2h-8.9V177.2z"/>
				<path class="st23" d="M237.9,193.6c0,0,0.7-0.7,1.6-1.7s1.6-1.9,2.1-3.1c0.6-1.3,0.4-1.6,0.3-2.3c-0.1-0.7-0.6-1-1-1.3
					c-0.3-0.2-0.8-0.5-0.9-1.2c-0.1-0.6,0-1.1-0.8-2.1c-0.8-1-1.4-1.3-2.2-1.1c-0.9,0.2-2.2,0.8-3.3,2.1c-1.1,1.3-1.5,1.7-2.4,3.2
					c-0.9,1.5-1.7,3.1-2.1,3.9c-0.4,0.8-1.1,2.8-1.3,3.4H237.9z"/>
				<path class="st24" d="M259.4,183.7c0,0-0.8-0.6-2.6-1.3c-1.8-0.8-3.5-0.9-4.6-0.9c-1.1,0-2.6,0.3-3.4,0.8
					c-0.7,0.5-1.2,0.8-1.7,1.4c-0.5,0.5-1.4,1.2-2.2,2s-1.6,2-2,3.2c0,0,0.6,0.5,2.3,0.5c1.7,0.1,3.9,0,6.2-0.2
					c2.3-0.2,3.7-0.2,4.7-0.2c1-0.1,2.9-0.1,3,0.4L259.4,183.7z"/>
				<path class="st25" d="M243.6,173.8c0,0-0.4,0.5-0.8,2.3c-0.4,1.8-0.5,3.5-0.4,4.8c0.1,1.2,0.4,1.7,0.8,1.8
					c0.4,0.1,0.6,0.6,0.6,0.8c0,0.2,0,0.3,0.1,0.4c0.1,0.1,0.4,0.2,0.4,0.2s0.7-1.6,1.1-2.2c0.3-0.6,1.1-1.8,1.3-1.9
					c0.1-0.2,0.6-0.4,0.8-0.7c0.2-0.3,0.5-1,1.2-1.2s1-0.3,1.4-0.8c0.4-0.4,2.3-2.5,2.8-3.5H243.6z"/>
				<use xlink:href="#SVGID_1_"  style="overflow:visible;fill:none;stroke:#B3B3B4;stroke-width:0.3;stroke-miterlimit:10;"/>
			</g>
		</g>
		<path class="st26" d="M269.8,211.3H217c-4.2,0-7.7-3.4-7.7-7.7l0,0c0-4.2,3.4-7.7,7.7-7.7h52.7c4.2,0,7.7,3.4,7.7,7.7l0,0
			C277.4,207.8,274,211.3,269.8,211.3z"/>
		<g>
			<path class="st27" d="M219.6,206.6h-0.8v-4.8c-0.2,0.2-0.4,0.3-0.7,0.5c-0.3,0.2-0.6,0.3-0.8,0.4V202c0.4-0.2,0.8-0.4,1.1-0.7
				c0.3-0.3,0.5-0.6,0.7-0.8h0.5V206.6z"/>
			<path class="st27" d="M225.7,205.9v0.7h-4c0-0.2,0-0.4,0.1-0.5c0.1-0.3,0.3-0.5,0.5-0.8c0.2-0.3,0.6-0.6,1-0.9
				c0.7-0.5,1.1-1,1.3-1.3c0.2-0.3,0.4-0.6,0.4-0.9c0-0.3-0.1-0.5-0.3-0.8c-0.2-0.2-0.5-0.3-0.8-0.3c-0.4,0-0.7,0.1-0.9,0.3
				c-0.2,0.2-0.3,0.5-0.3,0.9l-0.8-0.1c0.1-0.6,0.3-1,0.6-1.3c0.3-0.3,0.8-0.5,1.4-0.5c0.6,0,1.1,0.2,1.4,0.5
				c0.3,0.3,0.5,0.7,0.5,1.2c0,0.2-0.1,0.5-0.2,0.7c-0.1,0.2-0.3,0.5-0.5,0.7c-0.2,0.3-0.6,0.6-1.2,1.1c-0.5,0.4-0.7,0.6-0.9,0.8
				c-0.1,0.1-0.2,0.3-0.3,0.4H225.7z"/>
			<path class="st27" d="M226.7,205l0.8-0.1c0.1,0.4,0.2,0.7,0.4,0.9c0.2,0.2,0.5,0.3,0.8,0.3c0.4,0,0.7-0.1,0.9-0.4
				c0.2-0.2,0.4-0.5,0.4-0.9c0-0.3-0.1-0.6-0.3-0.9c-0.2-0.2-0.5-0.3-0.9-0.3c-0.1,0-0.3,0-0.5,0.1l0.1-0.7c0,0,0.1,0,0.1,0
				c0.3,0,0.6-0.1,0.9-0.2c0.3-0.2,0.4-0.4,0.4-0.8c0-0.3-0.1-0.5-0.3-0.7c-0.2-0.2-0.4-0.3-0.7-0.3c-0.3,0-0.5,0.1-0.7,0.3
				c-0.2,0.2-0.3,0.5-0.4,0.8l-0.8-0.1c0.1-0.5,0.3-0.9,0.6-1.2c0.3-0.3,0.7-0.4,1.2-0.4c0.3,0,0.6,0.1,0.9,0.2
				c0.3,0.1,0.5,0.3,0.6,0.6c0.1,0.2,0.2,0.5,0.2,0.8c0,0.3-0.1,0.5-0.2,0.7c-0.1,0.2-0.4,0.4-0.6,0.5c0.4,0.1,0.6,0.3,0.8,0.5
				c0.2,0.3,0.3,0.6,0.3,1c0,0.5-0.2,1-0.6,1.4c-0.4,0.4-0.9,0.6-1.5,0.6c-0.5,0-1-0.2-1.3-0.5C227,205.9,226.7,205.5,226.7,205z"/>
			<path class="st27" d="M234.1,206.6v-1.5h-2.7v-0.7l2.8-4h0.6v4h0.8v0.7h-0.8v1.5H234.1z M234.1,204.5v-2.8l-1.9,2.8H234.1z"/>
			<path class="st27" d="M236.6,205l0.8-0.1c0.1,0.4,0.2,0.7,0.4,0.9c0.2,0.2,0.5,0.3,0.8,0.3c0.4,0,0.7-0.1,0.9-0.4
				c0.2-0.3,0.4-0.6,0.4-1.1c0-0.4-0.1-0.8-0.4-1c-0.2-0.2-0.6-0.4-0.9-0.4c-0.2,0-0.5,0.1-0.7,0.2c-0.2,0.1-0.3,0.3-0.5,0.4
				l-0.7-0.1l0.6-3.1h3v0.7H238l-0.3,1.6c0.4-0.3,0.8-0.4,1.2-0.4c0.5,0,1,0.2,1.4,0.6c0.4,0.4,0.6,0.8,0.6,1.4c0,0.6-0.2,1-0.5,1.4
				c-0.4,0.5-0.9,0.7-1.6,0.7c-0.6,0-1-0.2-1.4-0.5C236.9,206,236.7,205.5,236.6,205z"/>
			<path class="st27" d="M245.5,202l-0.7,0.1c-0.1-0.3-0.2-0.5-0.3-0.6c-0.2-0.2-0.5-0.3-0.8-0.3c-0.2,0-0.4,0.1-0.6,0.2
				c-0.2,0.2-0.4,0.4-0.6,0.8c-0.1,0.3-0.2,0.8-0.2,1.4c0.2-0.3,0.4-0.5,0.7-0.6c0.3-0.1,0.5-0.2,0.8-0.2c0.5,0,0.9,0.2,1.3,0.6
				c0.4,0.4,0.5,0.8,0.5,1.4c0,0.4-0.1,0.7-0.2,1.1c-0.2,0.3-0.4,0.6-0.7,0.8c-0.3,0.2-0.6,0.3-1,0.3c-0.6,0-1.1-0.2-1.5-0.7
				c-0.4-0.5-0.6-1.2-0.6-2.3c0-1.2,0.2-2,0.7-2.6c0.4-0.5,0.9-0.7,1.5-0.7c0.5,0,0.9,0.1,1.2,0.4
				C245.3,201.2,245.4,201.5,245.5,202z M242.4,204.7c0,0.3,0.1,0.5,0.2,0.7c0.1,0.2,0.3,0.4,0.5,0.5c0.2,0.1,0.4,0.2,0.6,0.2
				c0.3,0,0.6-0.1,0.8-0.4c0.2-0.3,0.3-0.6,0.3-1c0-0.4-0.1-0.8-0.3-1c-0.2-0.2-0.5-0.4-0.9-0.4c-0.3,0-0.6,0.1-0.9,0.4
				C242.6,203.9,242.4,204.3,242.4,204.7z"/>
			<path class="st27" d="M246.6,201.3v-0.7h4v0.6c-0.4,0.4-0.8,1-1.2,1.7c-0.4,0.7-0.7,1.4-0.9,2.1c-0.2,0.5-0.2,1.1-0.3,1.7h-0.8
				c0-0.5,0.1-1.1,0.3-1.7c0.2-0.7,0.4-1.3,0.8-2c0.3-0.6,0.7-1.2,1.1-1.6H246.6z"/>
			<path class="st27" d="M252.7,203.3c-0.3-0.1-0.5-0.3-0.7-0.5c-0.2-0.2-0.2-0.5-0.2-0.8c0-0.4,0.2-0.8,0.5-1.1
				c0.3-0.3,0.7-0.5,1.3-0.5c0.5,0,1,0.2,1.3,0.5c0.3,0.3,0.5,0.7,0.5,1.1c0,0.3-0.1,0.5-0.2,0.7c-0.1,0.2-0.4,0.4-0.7,0.5
				c0.4,0.1,0.7,0.3,0.9,0.6c0.2,0.3,0.3,0.6,0.3,1c0,0.5-0.2,1-0.6,1.3c-0.4,0.4-0.9,0.5-1.5,0.5c-0.6,0-1.1-0.2-1.5-0.5
				c-0.4-0.4-0.6-0.8-0.6-1.3c0-0.4,0.1-0.7,0.3-1C252,203.6,252.3,203.4,252.7,203.3z M252.3,204.9c0,0.2,0.1,0.4,0.2,0.6
				c0.1,0.2,0.3,0.4,0.5,0.5c0.2,0.1,0.4,0.2,0.6,0.2c0.4,0,0.7-0.1,0.9-0.3c0.2-0.2,0.4-0.5,0.4-0.9c0-0.4-0.1-0.7-0.4-0.9
				c-0.2-0.2-0.5-0.4-0.9-0.4c-0.4,0-0.6,0.1-0.9,0.4C252.4,204.2,252.3,204.5,252.3,204.9z M252.5,202c0,0.3,0.1,0.5,0.3,0.7
				c0.2,0.2,0.4,0.3,0.7,0.3c0.3,0,0.5-0.1,0.7-0.3c0.2-0.2,0.3-0.4,0.3-0.7c0-0.3-0.1-0.5-0.3-0.7c-0.2-0.2-0.4-0.3-0.7-0.3
				c-0.3,0-0.5,0.1-0.7,0.3C252.6,201.6,252.5,201.8,252.5,202z"/>
			<path class="st27" d="M256.6,205.2l0.7-0.1c0.1,0.3,0.2,0.6,0.4,0.7c0.2,0.2,0.4,0.2,0.7,0.2c0.2,0,0.4-0.1,0.6-0.2
				c0.2-0.1,0.3-0.2,0.4-0.4c0.1-0.2,0.2-0.4,0.3-0.7c0.1-0.3,0.1-0.6,0.1-0.9c0,0,0-0.1,0-0.2c-0.2,0.2-0.4,0.4-0.6,0.6
				c-0.3,0.1-0.5,0.2-0.8,0.2c-0.5,0-0.9-0.2-1.3-0.6c-0.4-0.4-0.5-0.9-0.5-1.5c0-0.6,0.2-1.1,0.5-1.5c0.4-0.4,0.8-0.6,1.4-0.6
				c0.4,0,0.8,0.1,1.1,0.3c0.3,0.2,0.6,0.5,0.8,0.9c0.2,0.4,0.3,1,0.3,1.7c0,0.8-0.1,1.4-0.3,1.9c-0.2,0.5-0.4,0.8-0.8,1.1
				c-0.3,0.2-0.7,0.4-1.2,0.4c-0.5,0-0.9-0.1-1.2-0.4C256.9,206.1,256.7,205.7,256.6,205.2z M259.7,202.5c0-0.4-0.1-0.8-0.3-1
				c-0.2-0.3-0.5-0.4-0.8-0.4c-0.3,0-0.6,0.1-0.9,0.4c-0.2,0.3-0.4,0.6-0.4,1.1c0,0.4,0.1,0.7,0.4,0.9c0.2,0.2,0.5,0.4,0.9,0.4
				c0.3,0,0.6-0.1,0.9-0.4C259.6,203.3,259.7,203,259.7,202.5z"/>
			<path class="st27" d="M269.5,206.6h-0.8v-4.8c-0.2,0.2-0.4,0.3-0.7,0.5c-0.3,0.2-0.6,0.3-0.8,0.4V202c0.4-0.2,0.8-0.4,1.1-0.7
				c0.3-0.3,0.5-0.6,0.7-0.8h0.5V206.6z"/>
		</g>
	</g>
	<path class="st28" d="M196.8,247.3c-10.3,0-20-9.4-20-19.2V69.7c0-10,3.5-17.9,9.5-21.7c3.1-2,7.5-3.8,11.6-5.5
		c3.3-1.4,6.5-2.7,8.4-3.9c2.7-1.6,6.4-6.3,9-9.6c1.3-1.6,2.4-3.1,3.3-4c2.9-3.1,9.7-10.1,24.7-10.1c15,0,21.7,7.1,24.6,10.1
		c0.9,1,2.1,2.4,3.4,4.1c2.7,3.4,6.3,8,9.1,9.6c1.9,1.2,5.1,2.5,8.4,3.9c4.2,1.7,8.5,3.5,11.6,5.5c6.1,3.8,9.5,11.7,9.5,21.7v158.4
		c0,9.9-9.7,19.2-20,19.2H196.8z"/>
</g>
<g id="圖層_1">
	<g id="圖層_3" class="st0">
		<g class="st2">
			<g>
				<defs>
					<path id="SVGID_3_" d="M-2.1,180.1c-10.3,0-20-9.4-20-19.2V2.5c0-10,3.5-17.9,9.5-21.7c3.1-2,7.5-3.8,11.6-5.5
						c3.3-1.4,6.5-2.7,8.4-3.9c2.7-1.6,6.4-6.3,9-9.6c1.3-1.6,2.4-3.1,3.3-4c2.9-3.1,9.7-10.1,24.7-10.1S66.1-45.2,69-42.2
						c0.9,1,2.1,2.4,3.4,4.1c2.7,3.4,6.3,8,9.1,9.6c1.9,1.2,5.1,2.5,8.4,3.9c4.2,1.7,8.5,3.5,11.6,5.5c6.1,3.8,9.5,11.7,9.5,21.7
						V161c0,9.9-9.7,19.2-20,19.2L-2.1,180.1L-2.1,180.1z"/>
				</defs>
				<clipPath id="SVGID_4_">
					<use xlink:href="#SVGID_3_"  style="overflow:visible;"/>
				</clipPath>
				<g class="st29">
					<rect x="-64.2" y="-54.8" class="st30" width="213.2" height="252"/>
					
						<image style="overflow:visible;enable-background:new    ;" width="1175" height="1175" xlink:href="\\Db\業務部\Kiven\小龍蝦\動物圖\ChatGPT Image 2025年5月7日 上午09_30_53.png"  transform="matrix(0.1106 0 0 0.1106 -22.5307 1.5862)">
					</image>
				</g>
			</g>
		</g>
	</g>
	<g id="圖層_4" class="st0">
		<g class="st2">
			<g>
				<defs>
					<path id="SVGID_5_" d="M-2.1,180.1c-10.3,0-20-9.4-20-19.2V2.5c0-10,3.5-17.9,9.5-21.7c3.1-2,7.5-3.8,11.6-5.5
						c3.3-1.4,6.5-2.7,8.4-3.9c2.7-1.6,6.4-6.3,9-9.6c1.3-1.6,2.4-3.1,3.3-4c2.9-3.1,9.7-10.1,24.7-10.1S66.1-45.2,69-42.2
						c0.9,1,2.1,2.4,3.4,4.1c2.7,3.4,6.3,8,9.1,9.6c1.9,1.2,5.1,2.5,8.4,3.9c4.2,1.7,8.5,3.5,11.6,5.5c6.1,3.8,9.5,11.7,9.5,21.7
						V161c0,9.9-9.7,19.2-20,19.2L-2.1,180.1L-2.1,180.1z"/>
				</defs>
				<clipPath id="SVGID_6_">
					<use xlink:href="#SVGID_5_"  style="overflow:visible;"/>
				</clipPath>
				<g class="st31">
					<rect x="-56.8" y="-55.8" class="st32" width="202.7" height="239.6"/>
					
						<image style="overflow:visible;enable-background:new    ;" width="1179" height="1179" xlink:href="\\Db\業務部\Kiven\小龍蝦\動物圖\ChatGPT Image 2025年5月23日 上午09_11_20.png"  transform="matrix(0.112 0 0 0.112 -21.5309 4.4097)">
					</image>
				</g>
			</g>
		</g>
	</g>
	<g id="圖層_1_1_">
		<g>
			<path class="st33" d="M137,50.4c-5.5-3.4-15.5-6.6-20-9.3S106.7,29.7,104,27c-2.6-2.7-8.8-9.3-22.6-9.3s-20,6.5-22.6,9.3
				c-2.6,2.7-8.4,11.4-13,14.1c-4.5,2.7-14.5,5.9-20,9.3c-5.5,3.4-8.2,10.8-8.2,19.3s0,150.3,0,158.4c0,8.1,8.1,16.4,17.2,16.4
				s35.5,0,46.6,0c11.2,0,37.5,0,46.6,0s17.2-8.3,17.2-16.4s0-149.8,0-158.4C145.2,61.2,142.4,53.8,137,50.4z M81.4,50.6
				c-3.9,0-7.1-3.2-7.1-7.1s3.2-7.1,7.1-7.1s7.1,3.2,7.1,7.1S85.3,50.6,81.4,50.6z"/>
			<path class="st34" d="M34.8,247.3c-10.3,0-20-9.4-20-19.2V69.7c0-10,3.5-17.9,9.5-21.7c3.1-2,7.5-3.8,11.6-5.5
				c3.3-1.4,6.5-2.7,8.4-3.9c2.7-1.6,6.4-6.3,9-9.6c1.3-1.6,2.4-3.1,3.3-4c2.9-3.1,9.7-10.1,24.7-10.1S103,22,105.9,25
				c0.9,1,2.1,2.4,3.4,4.1c2.7,3.4,6.3,8,9.1,9.6c1.9,1.2,5.1,2.5,8.4,3.9c4.2,1.7,8.5,3.5,11.6,5.5c6.1,3.8,9.5,11.7,9.5,21.7
				v158.4c0,9.9-9.7,19.2-20,19.2L34.8,247.3L34.8,247.3z"/>
		</g>
	</g>
</g>
</svg>
