<?xml version="1.0" encoding="utf-8"?>
<!-- Generator: Adobe Illustrator 24.3.0, SVG Export Plug-In . SVG Version: 6.00 Build 0)  -->
<svg version="1.1" xmlns="http://www.w3.org/2000/svg" xmlns:xlink="http://www.w3.org/1999/xlink" x="0px" y="0px"
	 viewBox="0 0 324.2 177.9" style="enable-background:new 0 0 324.2 177.9;" xml:space="preserve">
<style type="text/css">
	.st0{display:none;}
	.st1{display:inline;}
	.st2{fill:#1891D0;}
	.st3{fill:#1F9AD6;}
	.st4{fill:#22A2D9;}
	.st5{fill:#21ACDC;}
	.st6{fill:#E89112;}
	.st7{fill:#E47F12;}
	.st8{fill:#E0690F;}
	.st9{fill:#DC5412;}
	.st10{fill:#109D3C;}
	.st11{fill:#46A538;}
	.st12{fill:#6EB030;}
	.st13{fill:#87B828;}
	.st14{fill:#231815;}
	.st15{font-family:'ArialMT';}
	.st16{font-size:8.9112px;}
	.st17{fill:none;stroke:#231815;stroke-miterlimit:10;}
	.st18{fill:none;stroke:#231815;stroke-width:0.8;stroke-miterlimit:10;stroke-dasharray:3;}
	.st19{fill:none;stroke:#E61F19;stroke-miterlimit:10;stroke-dasharray:4.809,4.8095;}
	.st20{fill:#040000;}
	.st21{clip-path:url(#SVGID_2_);fill:#FFFFFF;}
	.st22{clip-path:url(#SVGID_2_);fill:#FF9E18;}
	.st23{clip-path:url(#SVGID_2_);fill:#D6006D;}
	.st24{clip-path:url(#SVGID_2_);fill:#4C9C2E;}
	.st25{clip-path:url(#SVGID_2_);fill:#0075C9;}
	.st26{fill:#FFFFFF;}
	.st27{fill:#B8B9B9;}
	.st28{font-size:8.55px;}
	.st29{fill:none;stroke:#000000;stroke-miterlimit:10;}
	.st30{fill:none;stroke:#000000;stroke-width:0.8;stroke-miterlimit:10;stroke-dasharray:3;}
	.st31{fill:none;stroke:#E71F19;stroke-miterlimit:10;stroke-dasharray:4.809,4.8095;}
</style>
<g id="一卡通" class="st0">
	<g class="st1">
		<g>
			<g>
				<g>
					<g>
						<g>
							<path class="st2" d="M218.1,90.6c0.1,0.2,0.2,0.4,0.3,0.6c0.3,0.2,0.5,0.4,0.7,0.8c0.3,0.5,0.5,1.2,0.6,1.9
								c0.1-1.5,0-3.1-0.6-4.1c-0.5-0.8-1-1.1-1.9-0.9c-0.7,0.2-1.4,0.7-2.1,1.2c0.4-0.2,0.7-0.4,1.1-0.5
								C217,89.5,217.6,89.8,218.1,90.6z"/>
							<path class="st3" d="M212.8,93.3c0.7-0.7,1.6-1.2,2.4-1.5c0.3-0.1,0.5-0.1,0.8-0.1c0.4-0.3,0.8-0.5,1.3-0.6
								c0.5-0.1,0.9-0.1,1.2,0.1c-0.1-0.2-0.2-0.4-0.3-0.6c-0.5-0.8-1-1.1-1.9-0.9c-0.4,0.1-0.7,0.3-1.1,0.5
								C214,91.2,213.1,92.4,212.8,93.3z"/>
							<path class="st3" d="M218.4,91.2c0.6,1.8,0.3,4.9-0.2,6.4c0,0.1-0.1,0.1-0.1,0.2c0.5-0.1,0.9-0.4,1.1-0.9
								c0.3-0.7,0.5-1.8,0.5-3c-0.1-0.8-0.3-1.4-0.6-1.9C218.9,91.6,218.6,91.4,218.4,91.2z"/>
							<path class="st4" d="M218.4,91.2c-0.3-0.2-0.7-0.2-1.2-0.1c-0.4,0.1-0.8,0.3-1.3,0.6c0.5,0.1,0.8,0.4,1.2,0.9
								c0.7,1.2,0.7,3.4,0.5,5.2c0.2,0,0.3,0,0.5,0c0-0.1,0.1-0.1,0.1-0.2C218.7,96.1,219,93.1,218.4,91.2z"/>
							<path class="st4" d="M215.9,91.8c-0.2,0-0.5,0-0.8,0.1c-0.8,0.2-1.6,0.8-2.4,1.5c-0.1,0.4-0.2,0.7-0.2,0.9
								c0,0.3,0.2,0.6,0.4,0.8C213.6,93.9,214.7,92.6,215.9,91.8z"/>
							<path class="st5" d="M213.8,95.3c0.5,0,1.1-0.8,1.8-0.6c0.4,0.1,0.5,0.8,0.6,1.8c0,0.8,0.7,1.3,1.4,1.4
								c0.3-1.8,0.2-4-0.5-5.2c-0.3-0.5-0.7-0.9-1.2-0.9c-1.2,0.8-2.4,2.1-2.9,3.3C213.2,95.2,213.5,95.3,213.8,95.3z"/>
							<path class="st6" d="M221.8,95.9c-0.7-0.9-0.7-1.8,0-2.6c0.2-0.3,0.5-0.5,0.8-0.8c0.1-0.3,0.2-0.7,0.5-1
								c0.7-0.8,1.8-1.6,3-2.3c-2.1,0.8-4.1,2.1-5.2,3.3c-0.7,0.8-0.7,1.8,0,2.6c0.3,0.4,0.8,0.8,1.3,1.3
								C222.1,96.2,221.9,96,221.8,95.9z"/>
							<path class="st7" d="M229.9,98.4c-2.4-0.7-5.7-2.7-6.9-4.2c-0.4-0.5-0.6-1.1-0.5-1.7c-0.3,0.3-0.6,0.5-0.8,0.8
								c-0.7,0.8-0.7,1.8,0,2.6c0.1,0.2,0.3,0.4,0.5,0.5c1.6,1.2,3.8,2.4,5.5,3C228.7,99.6,229.6,99.1,229.9,98.4z"/>
							<path class="st7" d="M223.1,91.5c-0.3,0.3-0.4,0.6-0.5,1c1.2-1,2.9-2,4.7-2.7c0.6-0.4,1.3-0.9,2-1.3
								c-0.2-0.1-0.4-0.1-0.6-0.1c-0.9,0.1-1.7,0.4-2.6,0.7C224.8,89.9,223.8,90.7,223.1,91.5z"/>
							<path class="st8" d="M225.8,93.7c-0.7-0.9-0.7-1.8,0-2.6c0.4-0.4,0.9-0.9,1.5-1.4c-1.8,0.6-3.5,1.7-4.7,2.7
								c-0.1,0.5,0.1,1.1,0.5,1.7c1.2,1.5,4.5,3.5,6.9,4.2c0.2-0.5,0.2-1.1-0.2-1.7C228.1,95.8,226.5,94.7,225.8,93.7z"/>
							<path class="st8" d="M230.2,89.3c-0.2-0.3-0.5-0.6-0.9-0.8c-0.7,0.4-1.4,0.8-2,1.3c0.8-0.3,1.5-0.5,2.3-0.6
								C229.8,89.2,230,89.2,230.2,89.3z"/>
							<path class="st9" d="M227.2,93.5c0-0.9,1.8-1.8,2.5-2.1c0.9-0.5,1-1.4,0.6-2.1c-0.2-0.1-0.4-0.1-0.7-0.1
								c-0.7,0.1-1.5,0.3-2.3,0.6c-0.6,0.4-1.1,0.9-1.5,1.4c-0.7,0.8-0.7,1.8,0,2.6c0.7,0.9,2.3,2.1,3.9,2.9c0,0,0-0.1-0.1-0.1
								C229.1,96,227.2,94.3,227.2,93.5z"/>
							<path class="st10" d="M224,89.2c0.5-0.3,0.9-0.7,1.2-1.1c-1.3,0.8-2.7,1-3.6,0.5c0,0-0.1,0-0.1-0.1c-0.7,0.1-1.3,0-1.8-0.2
								c-0.1,0-0.1-0.1-0.2-0.1c0,0.2,0.1,0.3,0.1,0.4c0.1,0.5,0.4,1,0.8,1.2C221.2,90.3,222.7,90.1,224,89.2z"/>
							<path class="st11" d="M223.7,87.5c-0.1,0.1-0.3,0.2-0.4,0.3c-0.6,0.4-1.3,0.7-1.9,0.8c0,0,0.1,0,0.1,0.1
								c0.9,0.5,2.4,0.3,3.6-0.5c0.3-0.4,0.4-0.8,0.5-1.2C225,87.2,224.3,87.4,223.7,87.5z"/>
							<path class="st11" d="M221.4,88.5c-0.3-0.2-0.5-0.6-0.7-1.1c-0.2-0.9-0.3-2.2,0.2-3.2c-0.3,0.1-0.6,0.3-0.9,0.6
								c-0.7,0.8-0.8,2.3-0.7,3.4c0.1,0.1,0.1,0.1,0.2,0.1C220.1,88.6,220.7,88.6,221.4,88.5z"/>
							<path class="st12" d="M223.7,87.5c-0.5,0-1-0.1-1.4-0.3c-0.4-0.2-0.6-0.7-0.8-1.2c-0.1-0.5-0.2-1.2-0.1-1.9
								c-0.1,0-0.3,0.1-0.4,0.1c-0.5,1-0.4,2.3-0.2,3.2c0.1,0.5,0.3,0.9,0.7,1.1c0.6-0.1,1.3-0.4,1.9-0.8
								C223.4,87.7,223.6,87.6,223.7,87.5z"/>
							<path class="st12" d="M223.7,87.5c0.6,0,1.3-0.2,1.9-0.6c0-0.1,0-0.1,0-0.2c0-0.5-0.3-0.8-0.7-1
								C224.7,86.4,224.3,87,223.7,87.5z"/>
							<path class="st13" d="M223.3,85c-0.3-0.7-1.1-1-1.9-0.9c-0.1,0.7,0,1.4,0.1,1.9c0.1,0.5,0.4,1,0.8,1.2
								c0.4,0.2,0.9,0.3,1.4,0.3c0.6-0.5,1-1.1,1.2-1.7c-0.1,0-0.2,0-0.3,0C224.1,85.7,223.5,85.5,223.3,85z"/>
						</g>
					</g>
					<g>
						<g>
							<path class="st14" d="M248.6,96.4c0,0,0.1,0,0.1,0c0.3,0.1,0.7,0.1,1.2,0.1c0.7,0,1.2-0.2,1.5-0.5c0.3-0.3,0.4-0.6,0.4-1
								c0-0.3,0-0.5-0.2-0.8c-0.2-0.2-0.4-0.4-0.8-0.7l-0.9-0.5c-0.2-0.1-0.4-0.2-0.5-0.3c-0.1-0.1-0.1-0.2-0.1-0.3v0v0
								c0-0.2,0.1-0.3,0.2-0.4c0.1-0.1,0.4-0.1,0.6-0.1c0.4,0,0.9,0,1.3,0.1c0,0,0.1,0,0.1,0c0,0,0.1,0,0.1,0c0,0,0.1-0.1,0.1-0.1
								c0,0,0-0.1,0-0.1v-0.4c-0.1,0-0.3,0-0.4-0.1c-0.3,0-0.8-0.1-1.1-0.1c-0.7,0-1.2,0.1-1.4,0.4c-0.3,0.2-0.4,0.6-0.4,0.9
								c0,0.5,0.2,0.9,0.9,1.3l1,0.6c0.2,0.1,0.4,0.2,0.5,0.4c0.1,0.1,0.1,0.2,0.1,0.4v0c0,0.2-0.1,0.4-0.2,0.5
								c-0.2,0.1-0.4,0.2-0.7,0.2c-0.2,0-0.8,0-1.4-0.1c0,0.1,0,0.4,0,0.5C248.5,96.2,248.5,96.3,248.6,96.4
								C248.5,96.3,248.5,96.3,248.6,96.4z"/>
							<path class="st14" d="M244.6,96.4c0,0,0.1,0,0.1,0c0.3,0.1,0.7,0.1,1.2,0.1c0.7,0,1.2-0.2,1.5-0.5c0.3-0.3,0.4-0.6,0.4-1
								c0-0.3-0.1-0.5-0.2-0.8c-0.2-0.2-0.4-0.4-0.8-0.7l-0.9-0.5c-0.2-0.1-0.4-0.2-0.5-0.3c-0.1-0.1-0.1-0.2-0.1-0.3v0
								c0-0.2,0.1-0.3,0.2-0.4c0.1-0.1,0.3-0.1,0.6-0.1c0.4,0,0.9,0,1.3,0.1c0,0,0.1,0,0.1,0c0,0,0.1,0,0.1,0c0,0,0.1-0.1,0.1-0.1
								c0,0,0-0.1,0-0.1v-0.4c-0.1,0-0.3,0-0.4-0.1c-0.3,0-0.8-0.1-1.1-0.1c-0.7,0-1.2,0.1-1.4,0.4c-0.3,0.2-0.4,0.6-0.4,0.9
								c0,0.5,0.2,0.9,0.9,1.3l1,0.6c0.2,0.1,0.4,0.2,0.5,0.4c0.1,0.1,0.1,0.2,0.1,0.4v0c0,0.2-0.1,0.4-0.2,0.5
								c-0.1,0.1-0.4,0.2-0.7,0.2c-0.2,0-0.8,0-1.4-0.1v0.5C244.5,96.2,244.5,96.3,244.6,96.4C244.6,96.3,244.6,96.3,244.6,96.4z"/>
							<path class="st14" d="M243,96.2C243,96.3,243,96.3,243,96.2c0,0.1,0.1,0.2,0.1,0.2c0,0,0,0,0.1,0c0,0,0.1,0,0.1,0
								c0,0,0.6,0,0.7,0l-1.3-4.6c-0.1-0.3-0.3-0.5-0.4-0.6c-0.2-0.1-0.4-0.1-0.6-0.1c-0.2,0-0.4,0-0.6,0.1
								c-0.2,0.1-0.4,0.3-0.4,0.6l-1.3,4.6h0.7c0,0,0.1,0,0.1,0c0,0,0.1,0,0.1,0c0,0,0.1-0.1,0.1-0.1c0,0,0-0.1,0-0.1
								c0,0,0-0.1,0.1-0.2l0.3-1h1.1c0.1,0,0.2-0.1,0.2-0.2v-0.5h-1.1l0.6-2.2c0,0,0-0.1,0.1-0.1c0,0,0.1,0,0.1,0h0c0,0,0,0,0,0
								c0,0,0.1,0,0.1,0c0,0,0,0.1,0.1,0.1l0,0l0,0C242,92.2,243,96.2,243,96.2z"/>
							<g>
								<path class="st14" d="M233.9,96.5h0.7v-3.6h-0.9v3.4C233.7,96.4,233.8,96.5,233.9,96.5z"/>
								<path class="st14" d="M233.9,92.2h0.7v-1h-0.9V92C233.7,92.1,233.8,92.2,233.9,92.2z"/>
							</g>
							<path class="st14" d="M239,91.5c-0.4-0.2-0.9-0.3-1.5-0.3h0c-0.5,0-1,0-1.4,0.1c0,0-0.2,0-0.3,0.1h0v5.1h0.7
								c0.1,0,0.2-0.1,0.2-0.2v-4.3l0,0c0.1,0,0.5,0,0.7,0c0.4,0,0.7,0.1,0.9,0.2c0.2,0.1,0.3,0.4,0.3,0.7v0.1
								c0,0.3-0.1,0.5-0.3,0.7c-0.2,0.2-0.5,0.2-0.9,0.2c0,0-0.1,0-0.3,0h0l0,0c0,0,0.1,0.4,0.1,0.4c0,0.1,0,0.2,0.1,0.2
								c0,0,0.1,0.1,0.2,0.1c0,0,0.1,0,0.1,0c0,0,0.1,0,0.1,0c0.5,0,0.9-0.1,1.2-0.3c0.4-0.3,0.6-0.7,0.6-1.3v-0.1
								C239.6,92.2,239.4,91.8,239,91.5z"/>
						</g>
						<g>
							<path class="st14" d="M254,93.5v0.6h5.1c0.1,0,0.2-0.1,0.2-0.2v-0.4H254z"/>
							<g>
								<path class="st14" d="M268,93.3C268.1,93.3,268.1,93.2,268,93.3l0.2-0.3c-0.3-0.2-0.7-0.4-1-0.6l-0.3,0.4
									c0.2,0.1,0.4,0.2,0.7,0.4c0,0,0.1,0,0.1,0C267.9,93.3,267.9,93.3,268,93.3C268,93.3,268,93.3,268,93.3z"/>
								<path class="st14" d="M268.2,92.1C268.2,92,268.3,92,268.2,92.1l0.2-0.3c-0.4-0.3-0.7-0.5-1-0.6l-0.3,0.4
									c0.2,0.1,0.4,0.2,0.7,0.4c0,0,0.1,0,0.1,0.1c0,0,0.1,0,0.1,0C268.1,92.1,268.2,92.1,268.2,92.1z"/>
								<path class="st14" d="M269.7,96L269.7,96c-0.3,0-0.5,0-0.7-0.1c-0.2-0.1-0.4-0.2-0.5-0.3c-0.1-0.1-0.2-0.3-0.2-0.4V94
									c0-0.2-0.1-0.3-0.3-0.3h-0.8v0.5h0.6c0,0,0,0.7,0,0.8c0,0.1,0,0.2,0,0.3c0,0.1-0.1,0.2-0.1,0.4c-0.1,0.1-0.3,0.3-0.7,0.4
									l0.2,0.3c0,0,0,0,0.1,0.1c0,0,0,0,0.1,0c0,0,0,0,0.1,0c0,0,0.1,0,0.1,0c0.1-0.1,0.2-0.1,0.3-0.2c0.2-0.2,0.3-0.3,0.3-0.4
									c0.3,0.4,0.8,0.7,1.5,0.7l1.5,0h0.9c0.1,0,0.2,0,0.2-0.2c0-0.1,0-0.3,0-0.3H269.7z"/>
								<path class="st14" d="M272.1,94.9c0-0.6,0-2.1,0-2.1c0-0.1-0.1-0.3-0.3-0.3h-1.3c0,0,0,0,0,0c0.3-0.1,0.7-0.3,1-0.4
									c0.1-0.1,0.3-0.2,0.4-0.3c0,0,0.1-0.1,0.1-0.1c0-0.1,0-0.1,0-0.2c0-0.1-0.1-0.1-0.1-0.1c0,0-0.1,0-0.2,0c-0.1,0-2.8,0-2.8,0
									v0.4h2.3v0c-0.2,0.1-0.6,0.4-1,0.4c-0.2-0.1-0.5-0.2-0.8-0.3l-0.1,0.2c0,0,0,0,0,0.1c0,0,0,0,0,0.1c0,0,0,0,0,0
									c0,0,0,0,0.1,0c0.3,0.1,0.5,0.2,0.6,0.2h-1c-0.2,0-0.3,0.1-0.3,0.3v2.6c0,0.1,0.1,0.2,0.2,0.2h0.3v-0.8h0.9v0.8
									c0,0.1,0.1,0.2,0.2,0.2h0.3v-0.9h0.6c0.1,0,0.2-0.1,0.2-0.2v-0.2h-0.8v-0.5h0.6c0.1,0,0.2-0.1,0.2-0.2v-0.2h-0.8v-0.5h1
									c0,0,0,2.1,0,2.2c0,0.1,0,0.2-0.1,0.2c-0.1,0-0.2,0-0.5-0.1l0,0.3c0,0,0,0.1,0,0.1c0,0,0,0,0,0.1c0,0,0,0,0.1,0
									c0,0,0.1,0,0.1,0c0.3,0,0.5,0,0.6-0.1c0.2-0.1,0.2-0.3,0.2-0.4C272.1,95.1,272.1,95,272.1,94.9z M270.2,94.3h-0.9v-0.5h0.9
									V94.3z M270.2,93.4h-0.9v-0.5h0.9V93.4z"/>
							</g>
							<g>
								<path class="st14" d="M263.2,93.3v-1.1h2.2c0.1,0,0.2-0.1,0.2-0.2v-0.2h-2.4v-0.5h-0.6v2h-2.1v0.4h2.1v2.5
									c0,0.1,0.1,0.2,0.2,0.2h0.4v-2.7h2.5c0.1,0,0.2-0.1,0.2-0.2v-0.2H263.2z"/>
								<path class="st14" d="M264.2,94.3h-0.7l0,0l0,0c0.2,0.3,0.7,0.8,0.8,1c0.1,0.2,0.4,0.4,0.5,0.5c0.1,0.1,0.1,0.1,0.2,0.1
									c0.1,0,0.2,0,0.2,0c0.1,0,0.1,0,0.1-0.1c0.1,0,0.1-0.1,0.2-0.1C265.2,95.3,264.6,94.8,264.2,94.3z"/>
							</g>
						</g>
					</g>
				</g>
			</g>
			<g>
				<text transform="matrix(1 0 0 1 213.1302 110.9844)" class="st14 st15 st16">888 8888888 8</text>
			</g>
			<g>
				<g>
					<path class="st14" d="M221.1,117.4l-0.1-0.2c0.5-0.2,0.9-0.5,1-0.7l0.2,0l-0.1,0.1h1.7l0.2,0.2c-0.2,0.3-0.5,0.6-0.9,0.8h0
						c0.5,0.2,1,0.3,1.7,0.3l0,0.3c-0.8-0.1-1.4-0.2-2-0.4c-0.6,0.3-1.3,0.5-2,0.5l-0.1-0.2c0.6-0.1,1.1-0.1,1.3-0.2l0.5-0.2
						c-0.4-0.2-0.7-0.4-0.9-0.5C221.5,117.2,221.3,117.3,221.1,117.4z M222.7,115.8h0.3v0.3h1.8c0,0,0,0,0,0.1
						c0,0.3-0.1,0.6-0.2,0.9l-0.2-0.1c0-0.2,0.1-0.4,0.1-0.6c0,0,0,0,0,0h-3.2c0,0,0,0,0,0v0.6h-0.3v-0.8c0,0,0,0,0,0h1.7V115.8z
						 M221.7,119.7h-0.3v-1.3c0-0.1,0-0.1,0.1-0.1h2.5c0.1,0,0.1,0,0.1,0.1v1.3h-0.3v-0.4h-2.2V119.7z M223.9,119.1v-0.5
						c0,0,0,0,0,0h-2.1c0,0,0,0,0,0v0.5H223.9z M222.9,117.5c0.3-0.1,0.5-0.4,0.8-0.6H222l-0.1,0.1c0.2,0.1,0.4,0.2,0.6,0.4
						L222.9,117.5z"/>
					<path class="st14" d="M225.5,119.7l-0.3-0.1c0.2-0.5,0.3-1,0.3-1.5v-2.2c0,0,0-0.1,0.1-0.1h1.1l0,0l0,0v3.6
						c0,0.1,0,0.1-0.1,0.2c0,0-0.1,0.1-0.1,0.1c-0.1,0-0.2,0-0.5,0l0-0.3c0.2,0.1,0.4,0.1,0.4,0.1c0,0,0,0,0-0.1v-1.1h-0.7
						C225.7,118.8,225.6,119.2,225.5,119.7z M226.5,117v-0.8l0,0h0h-0.7c0,0,0,0,0,0v0.8H226.5z M226.5,118.1v-0.9h-0.7v0.9H226.5z
						 M227.5,117.4h-0.2v2.3H227v-3.8c0,0,0-0.1,0.1-0.1h2c0.1,0,0.1,0,0.1,0c0,0,0,0.1,0,0.1c0,0.2,0,0.4-0.1,0.6
						c0,0.2-0.1,0.3-0.2,0.3c-0.2,0.1-0.5,0.1-0.9-0.1l0.1-0.3c0.1,0.1,0.3,0.1,0.4,0.1c0.1,0,0.2,0,0.3,0c0,0,0,0,0-0.1
						c0.1-0.2,0.1-0.4,0.1-0.5l0,0h-1.6c0,0,0,0,0,0v1h1.7l0.2,0.1c-0.1,0.7-0.3,1.2-0.6,1.6c0.2,0.2,0.5,0.4,0.8,0.6l-0.2,0.2
						c-0.3-0.2-0.6-0.4-0.8-0.6c-0.3,0.3-0.6,0.5-0.7,0.6l-0.2-0.2c0.2-0.1,0.5-0.3,0.8-0.6C227.8,118.5,227.6,118,227.5,117.4z
						 M228.8,117.4h-1.1c0.1,0.5,0.3,0.9,0.6,1.2c0.1-0.2,0.2-0.4,0.3-0.6C228.7,118,228.7,117.7,228.8,117.4z"/>
					<path class="st14" d="M232,116.9v0.5h-0.5v-0.5H232z M232,118v0.5h-0.5V118H232z"/>
					<path class="st14" d="M235.9,116c0.1,0,0.1,0.1,0.2,0.1c-0.3,0.3-0.5,0.5-0.6,0.8c-0.1,0.3-0.2,0.6-0.2,1c0,0.4,0.1,0.7,0.2,1
						c0.1,0.2,0.3,0.5,0.6,0.8l-0.1,0.2c-0.3-0.3-0.5-0.6-0.6-0.8c-0.1-0.3-0.2-0.7-0.2-1.1c0-0.5,0.1-0.8,0.2-1.1
						C235.4,116.6,235.6,116.3,235.9,116z"/>
					<path class="st14" d="M237.6,119.4c-0.7,0-1.1-0.4-1.1-1.4v-0.6c0-1,0.4-1.4,1.1-1.4c0.7,0,1.1,0.4,1.1,1.4v0.6
						C238.7,119.1,238.3,119.4,237.6,119.4z M238.3,117.5c0-0.7-0.3-1-0.7-1c-0.4,0-0.7,0.3-0.7,1v0.6c0,0.7,0.3,1,0.7,1
						c0.4,0,0.7-0.3,0.7-1V117.5z"/>
					<path class="st14" d="M241.3,116.7l-1.3,2.7c0,0-0.1,0.1-0.1,0.1h-0.3c0,0-0.1,0-0.1-0.1c0,0,0,0,0,0l1.3-2.8c0,0,0,0,0,0
						c0,0,0,0,0,0h-1.5c0,0-0.1,0-0.1-0.1v-0.2c0,0,0-0.1,0.1-0.1h1.6c0.2,0,0.3,0.1,0.3,0.3C241.4,116.5,241.3,116.6,241.3,116.7z"
						/>
					<path class="st14" d="M242.1,116c0.3,0.2,0.5,0.5,0.7,0.9c0.1,0.3,0.2,0.7,0.2,1.1c0,0.4-0.1,0.8-0.2,1.1
						c-0.1,0.3-0.3,0.6-0.6,0.8l-0.1-0.2c0.3-0.3,0.5-0.5,0.6-0.8c0.1-0.3,0.2-0.6,0.2-1c0-0.4-0.1-0.8-0.2-1
						c-0.1-0.2-0.3-0.5-0.7-0.8C242,116.1,242.1,116.1,242.1,116z"/>
					<path class="st14" d="M246.3,116.7l-1.3,2.7c0,0-0.1,0.1-0.1,0.1h-0.3c0,0-0.1,0-0.1-0.1c0,0,0,0,0,0l1.3-2.8c0,0,0,0,0,0
						c0,0,0,0,0,0h-1.5c0,0-0.1,0-0.1-0.1v-0.2c0,0,0-0.1,0.1-0.1h1.6c0.2,0,0.3,0.1,0.3,0.3C246.4,116.5,246.4,116.6,246.3,116.7z"
						/>
					<path class="st14" d="M248,119.4c-0.3,0-0.6,0-0.8-0.1c-0.1,0-0.1,0-0.1-0.1v-0.2c0-0.1,0-0.1,0.1-0.1c0,0,0,0,0,0
						c0.2,0,0.5,0.1,0.7,0.1c0.7,0,0.8-0.4,0.8-1v0c-0.2,0-0.4,0.1-0.7,0.1c-0.6,0-1.1-0.2-1.1-0.9v0c0-0.7,0.4-1.1,1.1-1.1
						c0.7,0,1.1,0.4,1.1,1.2v0.8C249.1,119.1,248.8,119.4,248,119.4z M248.8,117.4c0-0.7-0.2-0.9-0.7-0.9c-0.4,0-0.7,0.2-0.7,0.8v0
						c0,0.5,0.3,0.6,0.7,0.6c0.2,0,0.5,0,0.7-0.1L248.8,117.4z"/>
					<path class="st14" d="M251.1,119.4h-0.2c0,0-0.1,0-0.1-0.1v-2.8l-0.6,0.2c0,0,0,0-0.1,0c0,0,0,0,0,0v-0.2c0,0,0,0,0-0.1
						l0.7-0.3c0,0,0.1,0,0.1,0h0.2c0,0,0.1,0,0.1,0.1L251.1,119.4C251.2,119.4,251.1,119.4,251.1,119.4z"/>
					<path class="st14" d="M253.4,118.3h-0.9c0,0-0.1,0-0.1-0.1v-0.2c0,0,0-0.1,0.1-0.1h0.9c0,0,0.1,0,0.1,0.1L253.4,118.3
						C253.5,118.3,253.5,118.3,253.4,118.3z"/>
					<path class="st14" d="M255.6,117.8l-0.4,0.3c-0.5,0.3-0.6,0.5-0.6,0.9v0.1h1.5c0,0,0.1,0,0.1,0.1v0.2c0,0,0,0.1-0.1,0.1h-1.7
						c0,0-0.1,0-0.1-0.1V119c0-0.5,0.2-0.8,0.7-1.2l0.4-0.3c0.4-0.2,0.5-0.3,0.5-0.6c0-0.3-0.2-0.5-0.7-0.5c-0.2,0-0.5,0-0.8,0.1
						c0,0,0,0,0,0c0,0-0.1,0-0.1-0.1v-0.2c0,0,0-0.1,0.1-0.1c0.2-0.1,0.5-0.1,0.8-0.1c0.7,0,1,0.2,1,0.8
						C256.1,117.3,256,117.5,255.6,117.8z"/>
					<path class="st14" d="M257.9,119.4c-0.7,0-1.1-0.4-1.1-1.4v-0.6c0-1,0.4-1.4,1.1-1.4c0.7,0,1.1,0.4,1.1,1.4v0.6
						C259,119.1,258.6,119.4,257.9,119.4z M258.6,117.5c0-0.7-0.3-1-0.7-1c-0.4,0-0.7,0.3-0.7,1v0.6c0,0.7,0.3,1,0.7,1
						c0.4,0,0.7-0.3,0.7-1V117.5z"/>
					<path class="st14" d="M260.6,119.4c-0.7,0-1.1-0.4-1.1-1.4v-0.6c0-1,0.4-1.4,1.1-1.4c0.7,0,1.1,0.4,1.1,1.4v0.6
						C261.7,119.1,261.3,119.4,260.6,119.4z M261.3,117.5c0-0.7-0.3-1-0.7-1c-0.4,0-0.7,0.3-0.7,1v0.6c0,0.7,0.3,1,0.7,1
						c0.4,0,0.7-0.3,0.7-1V117.5z"/>
					<path class="st14" d="M263.4,119.4c-0.7,0-1.1-0.4-1.1-1.4v-0.6c0-1,0.4-1.4,1.1-1.4c0.7,0,1.1,0.4,1.1,1.4v0.6
						C264.4,119.1,264,119.4,263.4,119.4z M264,117.5c0-0.7-0.3-1-0.7-1c-0.4,0-0.7,0.3-0.7,1v0.6c0,0.7,0.3,1,0.7,1
						c0.4,0,0.7-0.3,0.7-1V117.5z"/>
				</g>
				<g>
					<path class="st14" d="M226.5,123.4l-0.4,2c-0.1,0.3-0.1,0.3-0.4,0.3c-0.2,0-0.3,0-0.4-0.3l-0.4-1.5c0,0,0,0,0,0c0,0,0,0,0,0
						l-0.4,1.5c-0.1,0.3-0.1,0.3-0.4,0.3c-0.3,0-0.3,0-0.4-0.3l-0.4-2c0,0,0,0,0,0c0,0,0-0.1,0.1-0.1h0.2c0,0,0.1,0,0.1,0.1l0.4,2
						c0,0.1,0,0.1,0,0.1c0,0,0,0,0-0.1l0.4-1.7c0-0.1,0.1-0.1,0.2-0.1h0.2c0.1,0,0.1,0,0.2,0.1l0.4,1.7c0,0,0,0.1,0,0.1
						c0,0,0,0,0-0.1l0.4-2c0,0,0-0.1,0.1-0.1h0.2C226.4,123.3,226.5,123.4,226.5,123.4C226.5,123.4,226.5,123.4,226.5,123.4z"/>
					<path class="st14" d="M230,123.4l-0.4,2c-0.1,0.3-0.1,0.3-0.4,0.3c-0.2,0-0.3,0-0.4-0.3l-0.4-1.5c0,0,0,0,0,0c0,0,0,0,0,0
						l-0.4,1.5c-0.1,0.3-0.1,0.3-0.4,0.3c-0.3,0-0.3,0-0.4-0.3l-0.4-2c0,0,0,0,0,0c0,0,0-0.1,0.1-0.1h0.2c0,0,0.1,0,0.1,0.1l0.4,2
						c0,0.1,0,0.1,0,0.1c0,0,0,0,0-0.1l0.4-1.7c0-0.1,0.1-0.1,0.2-0.1h0.2c0.1,0,0.1,0,0.2,0.1l0.4,1.7c0,0,0,0.1,0,0.1
						c0,0,0,0,0-0.1l0.4-2c0,0,0-0.1,0.1-0.1h0.2C230,123.3,230,123.4,230,123.4C230,123.4,230,123.4,230,123.4z"/>
					<path class="st14" d="M233.5,123.4l-0.4,2c-0.1,0.3-0.1,0.3-0.4,0.3c-0.2,0-0.3,0-0.4-0.3l-0.4-1.5c0,0,0,0,0,0c0,0,0,0,0,0
						l-0.4,1.5c-0.1,0.3-0.1,0.3-0.4,0.3c-0.3,0-0.3,0-0.4-0.3l-0.4-2c0,0,0,0,0,0c0,0,0-0.1,0.1-0.1h0.2c0,0,0.1,0,0.1,0.1l0.4,2
						c0,0.1,0,0.1,0,0.1c0,0,0,0,0-0.1l0.4-1.7c0-0.1,0.1-0.1,0.2-0.1h0.2c0.1,0,0.1,0,0.2,0.1l0.4,1.7c0,0,0,0.1,0,0.1
						c0,0,0,0,0-0.1l0.4-2c0,0,0-0.1,0.1-0.1h0.2C233.5,123.3,233.5,123.4,233.5,123.4C233.5,123.4,233.5,123.4,233.5,123.4z"/>
					<path class="st14" d="M234.4,125.7h-0.2c0,0-0.1,0-0.1-0.1v-0.4c0,0,0-0.1,0.1-0.1h0.2c0,0,0.1,0,0.1,0.1L234.4,125.7
						C234.4,125.7,234.4,125.7,234.4,125.7z"/>
					<path class="st14" d="M235.5,122.9h-0.2c0,0-0.1,0-0.1-0.1v-0.4c0,0,0-0.1,0.1-0.1h0.2c0.1,0,0.1,0,0.1,0.1L235.5,122.9
						C235.6,122.9,235.5,122.9,235.5,122.9z M235.5,125.7h-0.2c0,0-0.1,0-0.1-0.1v-2.2c0-0.1,0-0.1,0.1-0.1h0.2c0,0,0.1,0,0.1,0.1
						L235.5,125.7C235.5,125.7,235.5,125.7,235.5,125.7z"/>
					<path class="st14" d="M237.1,124.6h-0.9c-0.1,0-0.1,0-0.1-0.1v-0.2c0,0,0-0.1,0.1-0.1h0.9c0,0,0.1,0,0.1,0.1L237.1,124.6
						C237.2,124.6,237.2,124.6,237.1,124.6z"/>
					<path class="st14" d="M238.7,125.8c-0.1,0-0.3,0-0.5-0.1v0.8c0,0,0,0.1-0.1,0.1h-0.2c0,0-0.1,0-0.1-0.1v-3c0-0.1,0-0.1,0.1-0.1
						c0.2-0.1,0.5-0.1,0.8-0.1c0.7,0,1,0.4,1,1.1v0.3C239.7,125.4,239.4,125.8,238.7,125.8z M239.3,124.4c0-0.5-0.1-0.8-0.6-0.8
						c-0.2,0-0.4,0-0.5,0v1.7c0.1,0,0.4,0,0.5,0c0.4,0,0.6-0.3,0.6-0.7V124.4z"/>
					<path class="st14" d="M241.9,125.7h-0.2c0,0-0.1,0-0.1-0.1v-0.1c-0.2,0.1-0.4,0.2-0.7,0.2c-0.4,0-0.7-0.2-0.7-0.7V125
						c0-0.5,0.3-0.7,1.1-0.7h0.3v-0.2c0-0.4-0.1-0.5-0.5-0.5c-0.3,0-0.5,0-0.7,0c0,0,0,0,0,0c0,0-0.1,0-0.1-0.1v-0.2
						c0,0,0-0.1,0.1-0.1c0.2,0,0.4-0.1,0.7-0.1c0.6,0,0.9,0.3,0.9,0.8L241.9,125.7C242,125.7,241.9,125.7,241.9,125.7z M241.6,124.6
						h-0.3c-0.5,0-0.7,0.1-0.7,0.4v0.1c0,0.3,0.1,0.4,0.4,0.4c0.2,0,0.4-0.1,0.6-0.2V124.6z"/>
					<path class="st14" d="M243.4,125.8c-0.2,0-0.5,0-0.7-0.1c-0.1,0-0.1,0-0.1-0.1v-0.2c0,0,0-0.1,0.1-0.1c0,0,0,0,0,0
						c0.2,0,0.5,0,0.7,0c0.3,0,0.4-0.1,0.4-0.3c0-0.1-0.1-0.2-0.3-0.4l-0.4-0.3c-0.3-0.2-0.4-0.3-0.4-0.6c0-0.5,0.3-0.6,0.8-0.6
						c0.2,0,0.5,0,0.7,0.1c0.1,0,0.1,0,0.1,0.1v0.1c0,0.1,0,0.1-0.1,0.1c0,0,0,0,0,0c-0.2,0-0.4,0-0.7,0c-0.2,0-0.4,0-0.4,0.3
						c0,0.1,0.1,0.2,0.3,0.3l0.4,0.3c0.4,0.2,0.5,0.4,0.5,0.7C244.2,125.6,243.8,125.8,243.4,125.8z"/>
					<path class="st14" d="M245.5,125.8c-0.2,0-0.5,0-0.7-0.1c-0.1,0-0.1,0-0.1-0.1v-0.2c0,0,0-0.1,0.1-0.1c0,0,0,0,0,0
						c0.2,0,0.5,0,0.7,0c0.3,0,0.4-0.1,0.4-0.3c0-0.1-0.1-0.2-0.3-0.4l-0.4-0.3c-0.3-0.2-0.4-0.3-0.4-0.6c0-0.5,0.3-0.6,0.8-0.6
						c0.2,0,0.5,0,0.7,0.1c0.1,0,0.1,0,0.1,0.1v0.1c0,0.1,0,0.1-0.1,0.1c0,0,0,0,0,0c-0.2,0-0.4,0-0.7,0c-0.2,0-0.4,0-0.4,0.3
						c0,0.1,0.1,0.2,0.3,0.3l0.4,0.3c0.4,0.2,0.5,0.4,0.5,0.7C246.3,125.6,246,125.8,245.5,125.8z"/>
					<path class="st14" d="M247.2,125.7H247c0,0-0.1,0-0.1-0.1v-0.4c0,0,0-0.1,0.1-0.1h0.2c0,0,0.1,0,0.1,0.1L247.2,125.7
						C247.3,125.7,247.2,125.7,247.2,125.7z"/>
					<path class="st14" d="M249.3,125.7c-0.1,0-0.3,0.1-0.5,0.1c-0.6,0-0.9-0.4-0.9-1.1v-0.3c0-0.6,0.3-1.1,0.9-1.1
						c0.2,0,0.4,0,0.5,0c0.1,0,0.1,0,0.1,0.1v0.2c0,0,0,0.1-0.1,0.1c0,0,0,0,0,0c-0.2,0-0.3,0-0.5,0c-0.4,0-0.5,0.2-0.5,0.7v0.3
						c0,0.5,0.2,0.7,0.5,0.7c0.2,0,0.3,0,0.5,0c0,0,0,0,0,0c0,0,0.1,0,0.1,0.1L249.3,125.7C249.4,125.7,249.4,125.7,249.3,125.7z"/>
					<path class="st14" d="M250.9,125.8c-0.6,0-1-0.4-1-1.1v-0.3c0-0.6,0.3-1.1,1-1.1c0.6,0,1,0.4,1,1.1v0.3
						C251.9,125.3,251.5,125.8,250.9,125.8z M251.5,124.3c0-0.5-0.2-0.7-0.6-0.7c-0.4,0-0.6,0.3-0.6,0.7v0.3c0,0.5,0.2,0.7,0.6,0.7
						c0.4,0,0.6-0.3,0.6-0.7V124.3z"/>
					<path class="st14" d="M255.3,125.7h-0.2c0,0-0.1,0-0.1-0.1v-1.6c0-0.4-0.2-0.5-0.4-0.5c-0.2,0-0.3,0-0.5,0.1c0,0.1,0,0.2,0,0.3
						v1.6c0,0,0,0.1-0.1,0.1h-0.2c0,0-0.1,0-0.1-0.1v-1.6c0-0.4-0.1-0.5-0.3-0.5c-0.2,0-0.4,0.1-0.5,0.2v1.8c0,0,0,0.1-0.1,0.1h-0.2
						c0,0-0.1,0-0.1-0.1v-2.2c0-0.1,0-0.1,0.1-0.1h0.2c0,0,0.1,0,0.1,0.1v0.1c0.2-0.1,0.4-0.2,0.6-0.2c0.2,0,0.3,0.1,0.4,0.2
						c0.2-0.1,0.5-0.2,0.7-0.2c0.4,0,0.7,0.2,0.7,0.8L255.3,125.7C255.4,125.7,255.3,125.7,255.3,125.7z"/>
					<path class="st14" d="M256.3,125.7h-0.2c0,0-0.1,0-0.1-0.1v-0.4c0,0,0-0.1,0.1-0.1h0.2c0,0,0.1,0,0.1,0.1L256.3,125.7
						C256.4,125.7,256.4,125.7,256.3,125.7z"/>
					<path class="st14" d="M258.3,125.7c-0.1,0-0.2,0-0.3,0c-0.4,0-0.6-0.1-0.6-0.6v-1.5l-0.4,0c0,0-0.1,0-0.1-0.1v-0.1
						c0,0,0-0.1,0.1-0.1h0.4v-0.4c0,0,0-0.1,0.1-0.1l0.2,0c0,0,0,0,0,0c0,0,0.1,0,0.1,0.1v0.5h0.5c0,0,0.1,0,0.1,0.1v0.1
						c0,0,0,0.1-0.1,0.1h-0.5v1.5c0,0.2,0.1,0.3,0.2,0.3h0.2c0.1,0,0.1,0,0.1,0.1L258.3,125.7C258.4,125.7,258.3,125.7,258.3,125.7z
						"/>
					<path class="st14" d="M261.8,123.4l-0.4,2c-0.1,0.3-0.1,0.3-0.4,0.3c-0.2,0-0.3,0-0.4-0.3l-0.4-1.5c0,0,0,0,0,0c0,0,0,0,0,0
						l-0.4,1.5c-0.1,0.3-0.1,0.3-0.4,0.3c-0.3,0-0.3,0-0.4-0.3l-0.4-2c0,0,0,0,0,0c0,0,0-0.1,0.1-0.1h0.2c0,0,0.1,0,0.1,0.1l0.4,2
						c0,0.1,0,0.1,0,0.1c0,0,0,0,0-0.1l0.4-1.7c0-0.1,0.1-0.1,0.2-0.1h0.2c0.1,0,0.2,0,0.2,0.1l0.4,1.7c0,0,0,0.1,0,0.1
						c0,0,0,0,0-0.1l0.4-2c0,0,0-0.1,0.1-0.1h0.2C261.8,123.3,261.8,123.4,261.8,123.4C261.8,123.4,261.8,123.4,261.8,123.4z"/>
				</g>
			</g>
		</g>
		<g>
			<path class="st17" d="M242.6,33.3c3.3,0,6.5,0.2,9.6,0.7V14.8H233v19.3C236.1,33.6,239.3,33.3,242.6,33.3z"/>
			<path class="st17" d="M306.4,97.1c0,35.2-28.6,63.8-63.8,63.8c-35.2,0-63.8-28.6-63.8-63.8c0-35.2,28.6-63.8,63.8-63.8
				C277.8,33.3,306.4,61.9,306.4,97.1z"/>
			<path class="st18" d="M300.7,97.1c0,32.1-26,58.1-58.1,58.1c-32.1,0-58.1-26-58.1-58.1c0-32.1,26-58.1,58.1-58.1
				C274.7,39,300.7,65,300.7,97.1z"/>
		</g>
		
			<ellipse transform="matrix(0.2234 -0.9747 0.9747 0.2234 93.7524 311.892)" class="st19" cx="242.6" cy="97.1" rx="66.6" ry="66.6"/>
	</g>
</g>
<g id="悠遊卡">
	<g>
		<g>
			<g>
				<g>
					<path class="st20" d="M226.3,121.6l-0.2,0.5c-1-0.1-1.8-0.3-2.6-0.7c-0.8,0.3-1.7,0.5-2.6,0.6l-0.2-0.5
						c0.8-0.1,1.5-0.2,2.2-0.4c-0.4-0.3-0.6-0.4-0.8-0.6c-0.3,0.2-0.5,0.4-0.8,0.6l-0.4-0.4c0.7-0.4,1.3-0.9,1.7-1.5h-1.3v0.9h-0.6
						v-1.4h2.3c0,0-0.1-0.2-0.2-0.4l0.6-0.1c0.1,0.1,0.2,0.3,0.3,0.5h2.4v1.4h-0.6v-0.9h-2.8l0.4,0.2c-0.1,0.1-0.1,0.2-0.2,0.3h2.4
						v0.5c-0.4,0.3-0.8,0.6-1.2,0.9C224.9,121.4,225.6,121.5,226.3,121.6z M225.5,123.9h-0.6v-0.2h-2.8v0.2h-0.6v-1.9h4V123.9z
						 M224.9,123.2v-0.6h-2.8v0.6H224.9z M224.5,120.3h-1.9c0.3,0.2,0.6,0.4,0.9,0.6C223.9,120.7,224.2,120.5,224.5,120.3z"/>
					<path class="st20" d="M229.7,123.4c0,0.1,0,0.2-0.1,0.3c-0.1,0.1-0.4,0.1-0.9,0.1l-0.2-0.6c0.1,0,0.3,0,0.4,0
						c0.1,0,0.2,0,0.2,0c0,0,0-0.1,0-0.1v-1.4h-0.7c-0.1,0.9-0.2,1.6-0.5,2.1l-0.5-0.3c0.3-0.6,0.4-1.4,0.4-2.4v-2.9h1.9V123.4z
						 M229.1,119.8v-0.9h-0.7v0.9H229.1z M229.1,121.3v-0.9h-0.7v0.9H229.1z M233.2,123.5l-0.4,0.5c-0.3-0.2-0.6-0.4-0.9-0.7
						c-0.3,0.3-0.5,0.5-0.7,0.6l-0.4-0.4c0.3-0.2,0.5-0.4,0.7-0.6c-0.4-0.6-0.7-1.2-0.8-1.8h-0.1v2.9h-0.6v-5.6h2.8
						c0,0.3,0,0.7-0.1,1c-0.1,0.3-0.1,0.5-0.2,0.6c-0.1,0.1-0.2,0.1-0.3,0.2c-0.1,0-0.4,0.1-0.8,0.1l-0.2-0.5c0.5,0,0.8,0,0.9-0.1
						c0-0.1,0.1-0.3,0.1-0.7h-1.6v1.6h2.2c-0.1,1-0.3,1.8-0.6,2.3C232.5,123,232.8,123.2,233.2,123.5z M232.3,121h-0.9
						c0.1,0.4,0.2,0.9,0.5,1.3C232.1,122.1,232.2,121.6,232.3,121z"/>
					<path class="st20" d="M237.8,123.6v-1.1h-2v-0.5l2.1-3h0.5v3h0.6v0.5h-0.6v1.1H237.8z M237.8,121.9v-2.1l-1.5,2.1H237.8z"/>
					<path class="st20" d="M242,123.6h-0.6v-3.6c-0.1,0.1-0.3,0.3-0.5,0.4c-0.2,0.1-0.4,0.2-0.6,0.3v-0.6c0.3-0.2,0.6-0.3,0.8-0.5
						c0.2-0.2,0.4-0.4,0.5-0.6h0.4V123.6z"/>
					<path class="st20" d="M246.7,123v0.5h-3.1c0-0.1,0-0.3,0.1-0.4c0.1-0.2,0.2-0.4,0.4-0.6c0.2-0.2,0.4-0.4,0.7-0.7
						c0.5-0.4,0.8-0.7,1-1c0.2-0.2,0.3-0.5,0.3-0.7c0-0.2-0.1-0.4-0.2-0.6c-0.2-0.2-0.4-0.2-0.6-0.2c-0.3,0-0.5,0.1-0.7,0.2
						c-0.2,0.2-0.2,0.4-0.3,0.7l-0.6-0.1c0-0.4,0.2-0.8,0.5-1c0.3-0.2,0.6-0.3,1.1-0.3c0.4,0,0.8,0.1,1.1,0.4
						c0.3,0.2,0.4,0.6,0.4,0.9c0,0.2,0,0.4-0.1,0.5c-0.1,0.2-0.2,0.4-0.4,0.6c-0.2,0.2-0.5,0.5-0.9,0.8c-0.3,0.3-0.6,0.5-0.7,0.6
						c-0.1,0.1-0.2,0.2-0.2,0.3H246.7z"/>
					<path class="st20" d="M247.5,122.2v-0.6h1.8v0.6H247.5z"/>
					<path class="st20" d="M250.8,121.1c-0.2-0.1-0.4-0.2-0.5-0.4c-0.1-0.2-0.2-0.4-0.2-0.6c0-0.3,0.1-0.6,0.4-0.9
						c0.2-0.2,0.6-0.3,1-0.3c0.4,0,0.7,0.1,1,0.4c0.2,0.2,0.4,0.5,0.4,0.9c0,0.2-0.1,0.4-0.2,0.6c-0.1,0.2-0.3,0.3-0.5,0.4
						c0.3,0.1,0.5,0.2,0.7,0.5c0.1,0.2,0.2,0.5,0.2,0.7c0,0.4-0.1,0.7-0.4,1c-0.3,0.3-0.7,0.4-1.1,0.4s-0.8-0.1-1.1-0.4
						c-0.3-0.3-0.4-0.6-0.4-1c0-0.3,0.1-0.6,0.2-0.8C250.3,121.3,250.5,121.1,250.8,121.1z M250.5,122.2c0,0.2,0,0.3,0.1,0.5
						c0.1,0.2,0.2,0.3,0.3,0.4c0.2,0.1,0.3,0.1,0.5,0.1c0.3,0,0.5-0.1,0.7-0.3c0.2-0.2,0.3-0.4,0.3-0.7c0-0.3-0.1-0.5-0.3-0.7
						c-0.2-0.2-0.4-0.3-0.7-0.3c-0.3,0-0.5,0.1-0.7,0.3C250.6,121.8,250.5,122,250.5,122.2z M250.7,120.1c0,0.2,0.1,0.4,0.2,0.5
						c0.1,0.1,0.3,0.2,0.6,0.2c0.2,0,0.4-0.1,0.5-0.2c0.1-0.1,0.2-0.3,0.2-0.5c0-0.2-0.1-0.4-0.2-0.5c-0.1-0.1-0.3-0.2-0.5-0.2
						c-0.2,0-0.4,0.1-0.5,0.2C250.8,119.7,250.7,119.9,250.7,120.1z"/>
					<path class="st20" d="M254.7,121.1c-0.2-0.1-0.4-0.2-0.5-0.4c-0.1-0.2-0.2-0.4-0.2-0.6c0-0.3,0.1-0.6,0.4-0.9
						c0.2-0.2,0.6-0.3,1-0.3c0.4,0,0.7,0.1,1,0.4c0.2,0.2,0.4,0.5,0.4,0.9c0,0.2-0.1,0.4-0.2,0.6c-0.1,0.2-0.3,0.3-0.5,0.4
						c0.3,0.1,0.5,0.2,0.7,0.5c0.1,0.2,0.2,0.5,0.2,0.7c0,0.4-0.1,0.7-0.4,1c-0.3,0.3-0.7,0.4-1.1,0.4c-0.5,0-0.8-0.1-1.1-0.4
						c-0.3-0.3-0.4-0.6-0.4-1c0-0.3,0.1-0.6,0.2-0.8C254.2,121.3,254.4,121.1,254.7,121.1z M254.4,122.2c0,0.2,0,0.3,0.1,0.5
						c0.1,0.2,0.2,0.3,0.3,0.4c0.2,0.1,0.3,0.1,0.5,0.1c0.3,0,0.5-0.1,0.7-0.3c0.2-0.2,0.3-0.4,0.3-0.7c0-0.3-0.1-0.5-0.3-0.7
						c-0.2-0.2-0.4-0.3-0.7-0.3c-0.3,0-0.5,0.1-0.7,0.3C254.4,121.8,254.4,122,254.4,122.2z M254.5,120.1c0,0.2,0.1,0.4,0.2,0.5
						c0.1,0.1,0.3,0.2,0.6,0.2c0.2,0,0.4-0.1,0.5-0.2c0.1-0.1,0.2-0.3,0.2-0.5c0-0.2-0.1-0.4-0.2-0.5c-0.1-0.1-0.3-0.2-0.5-0.2
						c-0.2,0-0.4,0.1-0.5,0.2C254.6,119.7,254.5,119.9,254.5,120.1z"/>
					<path class="st20" d="M258.5,121.1c-0.2-0.1-0.4-0.2-0.5-0.4c-0.1-0.2-0.2-0.4-0.2-0.6c0-0.3,0.1-0.6,0.4-0.9
						c0.2-0.2,0.6-0.3,1-0.3c0.4,0,0.7,0.1,1,0.4c0.2,0.2,0.4,0.5,0.4,0.9c0,0.2-0.1,0.4-0.2,0.6c-0.1,0.2-0.3,0.3-0.5,0.4
						c0.3,0.1,0.5,0.2,0.7,0.5c0.1,0.2,0.2,0.5,0.2,0.7c0,0.4-0.1,0.7-0.4,1c-0.3,0.3-0.7,0.4-1.1,0.4c-0.5,0-0.8-0.1-1.1-0.4
						c-0.3-0.3-0.4-0.6-0.4-1c0-0.3,0.1-0.6,0.2-0.8C258,121.3,258.2,121.1,258.5,121.1z M258.2,122.2c0,0.2,0,0.3,0.1,0.5
						c0.1,0.2,0.2,0.3,0.3,0.4c0.2,0.1,0.3,0.1,0.5,0.1c0.3,0,0.5-0.1,0.7-0.3c0.2-0.2,0.3-0.4,0.3-0.7c0-0.3-0.1-0.5-0.3-0.7
						c-0.2-0.2-0.4-0.3-0.7-0.3c-0.3,0-0.5,0.1-0.7,0.3C258.3,121.8,258.2,122,258.2,122.2z M258.4,120.1c0,0.2,0.1,0.4,0.2,0.5
						c0.1,0.1,0.3,0.2,0.6,0.2c0.2,0,0.4-0.1,0.5-0.2c0.1-0.1,0.2-0.3,0.2-0.5c0-0.2-0.1-0.4-0.2-0.5c-0.1-0.1-0.3-0.2-0.5-0.2
						c-0.2,0-0.4,0.1-0.5,0.2C258.5,119.7,258.4,119.9,258.4,120.1z"/>
					<path class="st20" d="M261.5,121.3c0-0.5,0.1-1,0.2-1.3c0.1-0.3,0.3-0.6,0.5-0.8c0.2-0.2,0.5-0.3,0.8-0.3c0.2,0,0.5,0,0.7,0.2
						c0.2,0.1,0.3,0.2,0.5,0.4c0.1,0.2,0.2,0.4,0.3,0.7c0.1,0.3,0.1,0.6,0.1,1.1c0,0.5-0.1,1-0.2,1.3c-0.1,0.3-0.3,0.6-0.5,0.8
						c-0.2,0.2-0.5,0.3-0.8,0.3c-0.4,0-0.8-0.2-1.1-0.5C261.6,122.8,261.5,122.2,261.5,121.3z M262,121.3c0,0.8,0.1,1.3,0.3,1.5
						c0.2,0.3,0.4,0.4,0.7,0.4c0.3,0,0.5-0.1,0.7-0.4c0.2-0.3,0.3-0.8,0.3-1.5c0-0.8-0.1-1.3-0.3-1.5c-0.2-0.3-0.4-0.4-0.7-0.4
						c-0.3,0-0.5,0.1-0.6,0.3C262.1,120,262,120.5,262,121.3z"/>
				</g>
				<g>
					<defs>
						<path id="SVGID_1_" d="M256.8,97.8h-28.3c-0.8,0-1.4-0.6-1.4-1.4V79.4c0-0.8,0.6-1.4,1.4-1.4h28.3c0.8,0,1.4,0.6,1.4,1.4v16.9
							C258.2,97.2,257.5,97.8,256.8,97.8z"/>
					</defs>
					<clipPath id="SVGID_2_">
						<use xlink:href="#SVGID_1_"  style="overflow:visible;"/>
					</clipPath>
					<path class="st21" d="M256.8,97.8h-28.3c-0.8,0-1.4-0.6-1.4-1.4V79.4c0-0.8,0.6-1.4,1.4-1.4h28.3c0.8,0,1.4,0.6,1.4,1.4v16.9
						C258.2,97.2,257.5,97.8,256.8,97.8z"/>
					<path class="st22" d="M227,81.5c0,0,1.5,0.1,3.2,0.5c1.7,0.4,4.6,1.2,5.2,1.4c0.7,0.2,2,0.7,2.4,0.8c0.3,0.1,0.7,0.2,0.9,0
						c0.2-0.2,0.4-0.7,0.2-1.3c-0.2-0.7-0.8-1.9-1.3-2.6c-0.5-0.8-1.3-1.8-1.7-2.2H227V81.5z"/>
					<path class="st23" d="M237.1,97.8c0,0,0.7-0.7,1.6-1.7c0.9-1,1.6-1.9,2.1-3.1c0.6-1.3,0.4-1.6,0.3-2.3c-0.1-0.7-0.6-1-1-1.3
						c-0.3-0.2-0.8-0.5-0.9-1.2c-0.1-0.6,0-1.1-0.8-2.1c-0.8-1-1.4-1.3-2.2-1.1c-0.9,0.2-2.2,0.8-3.3,2.1c-1.1,1.3-1.5,1.7-2.4,3.2
						c-0.9,1.5-1.7,3.1-2.1,3.9c-0.4,0.8-1.1,2.8-1.3,3.4H237.1z"/>
					<path class="st24" d="M258.6,88c0,0-0.8-0.6-2.6-1.3c-1.8-0.8-3.5-0.9-4.6-0.9c-1.1,0-2.6,0.3-3.4,0.8
						c-0.7,0.5-1.2,0.8-1.7,1.4s-1.4,1.2-2.2,2c-0.8,0.8-1.6,2-2,3.2c0,0,0.6,0.5,2.3,0.5c1.7,0.1,3.9,0,6.2-0.2
						c2.3-0.2,3.7-0.2,4.7-0.2c1-0.1,2.9-0.1,3,0.4L258.6,88z"/>
					<path class="st25" d="M242.8,78c0,0-0.4,0.5-0.8,2.3c-0.4,1.8-0.5,3.5-0.4,4.8c0.1,1.2,0.4,1.7,0.8,1.8
						c0.4,0.1,0.6,0.6,0.6,0.8c0,0.2,0,0.3,0.1,0.4c0.1,0.1,0.4,0.2,0.4,0.2s0.7-1.6,1.1-2.2c0.3-0.6,1.1-1.8,1.3-1.9
						c0.1-0.2,0.6-0.4,0.8-0.7c0.2-0.3,0.5-1,1.2-1.2s1-0.3,1.4-0.8c0.4-0.4,2.3-2.5,2.8-3.5H242.8z"/>
					<use xlink:href="#SVGID_1_"  style="overflow:visible;fill:none;stroke:#888888;stroke-width:0.3;stroke-miterlimit:10;"/>
				</g>
			</g>
			<path class="st26" d="M269,115.5h-52.7c-4.2,0-7.7-3.4-7.7-7.7l0,0c0-4.2,3.4-7.7,7.7-7.7H269c4.2,0,7.7,3.4,7.7,7.7l0,0
				C276.6,112.1,273.2,115.5,269,115.5z"/>
			<text transform="matrix(1 0 0 1 215.6033 110.9116)" class="st27 st15 st28">123456789  1</text>
		</g>
		<g>
			<path class="st17" d="M242.6,33.3c3.3,0,6.5,0.2,9.6,0.7V14.8H233v19.3C236.1,33.6,239.3,33.3,242.6,33.3z"/>
			<path class="st17" d="M306.4,97.1c0,35.2-28.6,63.8-63.8,63.8c-35.2,0-63.8-28.6-63.8-63.8c0-35.2,28.6-63.8,63.8-63.8
				C277.8,33.3,306.4,61.9,306.4,97.1z"/>
			<path class="st18" d="M300.7,97.1c0,32.1-26,58.1-58.1,58.1c-32.1,0-58.1-26-58.1-58.1c0-32.1,26-58.1,58.1-58.1
				C274.7,39,300.7,65,300.7,97.1z"/>
		</g>
		
			<ellipse transform="matrix(0.7071 -0.7071 0.7071 0.7071 2.3872 199.9884)" class="st19" cx="242.6" cy="97.1" rx="66.6" ry="66.6"/>
	</g>
</g>
<g id="圖層_1">
	<g id="框線">
		<g>
			<g>
				<path class="st29" d="M81.3,33.4c3.3,0,6.5,0.2,9.6,0.7V14.8H71.6v19.3C74.8,33.7,78,33.4,81.3,33.4z"/>
				<path class="st30" d="M139.4,97.2c0,32.1-26,58.1-58.1,58.1s-58.1-26-58.1-58.1s26-58.1,58.1-58.1S139.4,65.1,139.4,97.2z"/>
				<path class="st29" d="M145.1,97.2c0,35.2-28.6,63.8-63.8,63.8s-63.8-28.6-63.8-63.8s28.6-63.8,63.8-63.8S145.1,62,145.1,97.2z"
					/>
			</g>
		</g>
	</g>
	<g id="出血">
		<circle class="st31" cx="81.3" cy="97.2" r="66.6"/>
	</g>
</g>
</svg>
