<?xml version="1.0" encoding="utf-8"?>
<!-- Generator: Adobe Illustrator 24.3.0, SVG Export Plug-In . SVG Version: 6.00 Build 0)  -->
<svg version="1.1" xmlns="http://www.w3.org/2000/svg" xmlns:xlink="http://www.w3.org/1999/xlink" x="0px" y="0px"
	 viewBox="0 0 162.1 177.9" style="enable-background:new 0 0 162.1 177.9;" xml:space="preserve">
<style type="text/css">
	.st0{fill:none;stroke:#000000;stroke-miterlimit:10;}
	.st1{fill:none;stroke:#000000;stroke-width:0.8;stroke-miterlimit:10;stroke-dasharray:3;}
	.st2{fill:none;stroke:#E71F19;stroke-miterlimit:10;stroke-dasharray:4.809,4.8095;}
</style>
<g id="框線">
	<g>
		<g>
			<path class="st0" d="M81.3,33.4c3.3,0,6.5,0.2,9.6,0.7V14.8H71.6v19.3C74.8,33.7,78,33.4,81.3,33.4z"/>
			<path class="st1" d="M139.4,97.2c0,32.1-26,58.1-58.1,58.1s-58.1-26-58.1-58.1s26-58.1,58.1-58.1S139.4,65.1,139.4,97.2z"/>
			<path class="st0" d="M145.1,97.2c0,35.2-28.6,63.8-63.8,63.8s-63.8-28.6-63.8-63.8s28.6-63.8,63.8-63.8S145.1,62,145.1,97.2z"/>
		</g>
	</g>
</g>
<g id="出血">
	<circle class="st2" cx="81.3" cy="97.2" r="66.6"/>
</g>
</svg>
