<?xml version="1.0" encoding="utf-8"?>
<!-- Generator: Adobe Illustrator 24.3.0, SVG Export Plug-In . SVG Version: 6.00 Build 0)  -->
<svg version="1.1" xmlns="http://www.w3.org/2000/svg" xmlns:xlink="http://www.w3.org/1999/xlink" x="0px" y="0px"
	 viewBox="0 0 348.2 145.2" style="enable-background:new 0 0 348.2 145.2;" xml:space="preserve">
<style type="text/css">
	.st0{display:none;}
	.st1{display:inline;}
	.st2{fill:#1F1E1D;stroke:#000000;stroke-width:0.75;}
	.st3{fill:url(#SVGID_5_);stroke:#B5B5B6;stroke-width:0.5;stroke-miterlimit:10;}
	.st4{fill:url(#SVGID_6_);stroke:#B5B5B6;stroke-width:0.5;stroke-miterlimit:10;}
	.st5{fill:url(#SVGID_7_);stroke:#B5B5B6;stroke-width:0.5;stroke-miterlimit:10;}
	.st6{opacity:0.5;fill:url(#SVGID_8_);enable-background:new    ;}
	.st7{opacity:0.5;fill:url(#SVGID_9_);enable-background:new    ;}
	.st8{fill:#F7F8F8;stroke:#B5B5B6;stroke-width:0.5;stroke-miterlimit:10;}
	.st9{fill:#FFFFFF;stroke:#B5B5B6;stroke-width:0.5;stroke-miterlimit:10;}
	.st10{fill:url(#SVGID_10_);stroke:#B5B5B6;stroke-width:0.5;stroke-miterlimit:10;}
	.st11{fill:url(#SVGID_11_);stroke:#B5B5B6;stroke-width:0.5;stroke-miterlimit:10;}
	.st12{fill:url(#SVGID_12_);stroke:#B5B5B6;stroke-width:0.5;stroke-miterlimit:10;}
	.st13{opacity:0.5;fill:url(#SVGID_13_);enable-background:new    ;}
	.st14{opacity:0.5;fill:url(#SVGID_14_);enable-background:new    ;}
	.st15{fill:none;stroke:#E60012;stroke-width:0.7105;}
</style>
<g id="圖層_3" class="st0">
	<g class="st1">
		<defs>
			<circle id="SVGID_1_" cx="71.4" cy="74.6" r="51"/>
		</defs>
		<clipPath id="SVGID_2_">
			<use xlink:href="#SVGID_1_"  style="overflow:visible;"/>
		</clipPath>
		<g style="clip-path:url(#SVGID_2_);">
			
				<image style="overflow:visible;" width="1024" height="1024" xlink:href="\\Db\業務部\Kiven\小龍蝦\動物圖\ChatGPT Image 2025年5月22日 上午11_57_32.png"  transform="matrix(0.1024 0 0 0.1024 18.9029 22.1684)">
			</image>
		</g>
	</g>
	<g class="st1">
		<defs>
			<circle id="SVGID_3_" cx="277.4" cy="74.6" r="51"/>
		</defs>
		<clipPath id="SVGID_4_">
			<use xlink:href="#SVGID_3_"  style="overflow:visible;"/>
		</clipPath>
		<g style="clip-path:url(#SVGID_4_);">
			
				<image style="overflow:visible;" width="1024" height="1024" xlink:href="\\Db\業務部\Kiven\小龍蝦\動物圖\ChatGPT Image 2025年5月22日 上午11_57_32.png"  transform="matrix(-0.1024 0 0 0.1024 329.8029 22.1684)">
			</image>
		</g>
	</g>
	<g class="st1">
		<path d="M74.9,160.2c-0.9,1.2-1.5,2.7-1.5,4.9c0,2.1,0.7,3.7,1.5,4.9h-0.8c-0.8-1-1.6-2.5-1.6-4.9c0-2.3,0.8-3.9,1.6-4.9H74.9z"/>
		<path d="M76,160.4h4.4v0.9h-3.3v2.7h3v0.9h-3v3.7H76V160.4z"/>
		<path d="M81.9,160.5c0.5-0.1,1.3-0.2,2-0.2c1.1,0,1.8,0.2,2.3,0.7c0.4,0.4,0.6,0.9,0.6,1.5c0,1.1-0.7,1.8-1.5,2.1l0,0
			c0.6,0.2,1,0.8,1.2,1.6c0.3,1.1,0.5,1.9,0.6,2.2H86c-0.1-0.2-0.3-0.9-0.5-1.9c-0.2-1.1-0.7-1.5-1.6-1.6h-1v3.5h-1V160.5z
			 M82.9,164.2H84c1.1,0,1.8-0.6,1.8-1.5c0-1-0.8-1.5-1.9-1.5c-0.5,0-0.9,0-1,0.1V164.2z"/>
		<path d="M95.3,164.4c0,2.8-1.7,4.3-3.8,4.3c-2.1,0-3.6-1.7-3.6-4.1c0-2.6,1.6-4.2,3.7-4.2C93.9,160.3,95.3,162,95.3,164.4z
			 M89,164.5c0,1.7,0.9,3.3,2.6,3.3s2.6-1.5,2.6-3.4c0-1.6-0.8-3.3-2.6-3.3C89.9,161.1,89,162.7,89,164.5z"/>
		<path d="M96.6,168.5v-8.1h1.2l2.6,4.1c0.6,0.9,1.1,1.8,1.4,2.6l0,0c-0.1-1.1-0.1-2.1-0.1-3.3v-3.4h1v8.1h-1.1l-2.6-4.1
			c-0.6-0.9-1.1-1.8-1.5-2.7l0,0c0.1,1,0.1,2,0.1,3.3v3.5H96.6z"/>
		<path d="M106.1,161.3h-2.5v-0.9h6v0.9h-2.5v7.2H106v-7.2H106.1z"/>
		<path d="M110.5,169.9c0.8-1.2,1.5-2.7,1.5-4.9s-0.6-3.7-1.5-4.9h0.8c0.8,1,1.6,2.5,1.6,4.9s-0.8,3.9-1.6,4.9H110.5z"/>
	</g>
	<g class="st1">
		<path d="M242.2,160.2c-0.9,1.2-1.5,2.7-1.5,4.9c0,2.1,0.7,3.7,1.5,4.9h-0.8c-0.8-1-1.6-2.5-1.6-4.9c0-2.3,0.8-3.9,1.6-4.9H242.2z"
			/>
		<path d="M243.3,160.5c0.5-0.1,1.2-0.2,1.9-0.2c1,0,1.7,0.2,2.2,0.6c0.4,0.3,0.7,0.8,0.7,1.4c0,0.8-0.5,1.5-1.4,1.8l0,0
			c0.8,0.2,1.7,0.8,1.7,2c0,0.7-0.3,1.2-0.7,1.6c-0.6,0.5-1.5,0.8-2.8,0.8c-0.7,0-1.3,0-1.6-0.1L243.3,160.5L243.3,160.5z
			 M244.4,163.8h0.9c1.1,0,1.7-0.6,1.7-1.4c0-0.9-0.7-1.3-1.8-1.3c-0.5,0-0.8,0-0.9,0.1L244.4,163.8L244.4,163.8z M244.4,167.7
			c0.2,0,0.5,0,0.9,0c1.1,0,2.1-0.4,2.1-1.6c0-1.1-0.9-1.6-2.1-1.6h-0.9V167.7z"/>
		<path d="M251.2,165.9l-0.8,2.5h-1.2l2.8-8.1h1.2l2.8,8.1h-1.1l-0.9-2.5H251.2z M253.8,165.1l-0.8-2.3c-0.2-0.5-0.3-1-0.4-1.5l0,0
			c-0.1,0.5-0.2,1-0.4,1.5l-0.8,2.3H253.8z"/>
		<path d="M262.7,168.2c-0.4,0.2-1.2,0.4-2.1,0.4c-2.3,0-4-1.4-4-4.1c0-2.5,1.7-4.2,4.2-4.2c1,0,1.6,0.2,1.9,0.4l-0.3,0.9
			c-0.4-0.2-0.9-0.3-1.6-0.3c-1.9,0-3.2,1.2-3.2,3.3c0,2,1.1,3.3,3.1,3.3c0.6,0,1.3-0.1,1.7-0.3L262.7,168.2z"/>
		<path d="M264,160.4h1v3.9l0,0c0.2-0.3,0.4-0.6,0.6-0.9l2.5-3h1.3l-2.9,3.4l3.2,4.7h-1.2l-2.7-4l-0.8,0.9v3.1h-1L264,160.4
			L264,160.4z"/>
		<path d="M270.1,169.9c0.8-1.2,1.5-2.7,1.5-4.9s-0.6-3.7-1.5-4.9h0.8c0.8,1,1.6,2.5,1.6,4.9s-0.8,3.9-1.6,4.9H270.1z"/>
	</g>
</g>
<g id="圖層_1">
	<g id="圖案放置圖層_2_">
	</g>
	<g>
		<rect x="273.2" y="15.1" class="st2" width="2.8" height="5.7"/>
		
			<linearGradient id="SVGID_5_" gradientUnits="userSpaceOnUse" x1="176.0893" y1="330.6606" x2="176.0893" y2="427.3789" gradientTransform="matrix(-1 0 0 1 358.4922 -304.9051)">
			<stop  offset="1.400000e-07" style="stop-color:#DCDDDD"/>
			<stop  offset="5.784580e-02" style="stop-color:#F4F4F4"/>
			<stop  offset="0.1833" style="stop-color:#F4F4F4"/>
			<stop  offset="0.9521" style="stop-color:#F4F4F4"/>
			<stop  offset="0.9592" style="stop-color:#F9F9F9"/>
			<stop  offset="0.9742" style="stop-color:#FEFEFE"/>
			<stop  offset="1" style="stop-color:#FFFFFF"/>
		</linearGradient>
		<polygon class="st3" points="178.2,25 186.7,25 186.7,124.2 178.2,124.2 		"/>
		
			<linearGradient id="SVGID_6_" gradientUnits="userSpaceOnUse" x1="147.3893" y1="398.4865" x2="147.3893" y2="409.9677" gradientTransform="matrix(-1 0 0 1 358.4922 -304.9051)">
			<stop  offset="0" style="stop-color:#DCDDDD"/>
			<stop  offset="4.150468e-02" style="stop-color:#E1E2E2"/>
			<stop  offset="0.2017" style="stop-color:#EFF0F0"/>
			<stop  offset="0.3854" style="stop-color:#F9F9F9"/>
			<stop  offset="0.6109" style="stop-color:#FEFEFE"/>
			<stop  offset="1" style="stop-color:#FFFFFF"/>
		</linearGradient>
		<polygon class="st4" points="186.7,93 235.6,93 235.6,107.2 186.7,107.2 		"/>
		
			<linearGradient id="SVGID_7_" gradientUnits="userSpaceOnUse" x1="147.3893" y1="346.5735" x2="147.3893" y2="358.0992" gradientTransform="matrix(-1 0 0 1 358.4922 -304.9051)">
			<stop  offset="0" style="stop-color:#DCDDDD"/>
			<stop  offset="4.150468e-02" style="stop-color:#E1E2E2"/>
			<stop  offset="0.2017" style="stop-color:#EFF0F0"/>
			<stop  offset="0.3854" style="stop-color:#F9F9F9"/>
			<stop  offset="0.6109" style="stop-color:#FEFEFE"/>
			<stop  offset="1" style="stop-color:#FFFFFF"/>
		</linearGradient>
		<polygon class="st5" points="186.7,42 235.6,42 235.6,56.1 186.7,56.1 		"/>
		
			<linearGradient id="SVGID_8_" gradientUnits="userSpaceOnUse" x1="128.3769" y1="405.0235" x2="146.3756" y2="405.0235" gradientTransform="matrix(-1 0 0 1 358.4922 -304.9051)">
			<stop  offset="1.400000e-07" style="stop-color:#C9CACA"/>
			<stop  offset="0.2387" style="stop-color:#CCCDCD;stop-opacity:0.7613"/>
			<stop  offset="0.463" style="stop-color:#D5D5D6;stop-opacity:0.537"/>
			<stop  offset="0.6814" style="stop-color:#E3E3E3;stop-opacity:0.3186"/>
			<stop  offset="0.8949" style="stop-color:#F5F5F6;stop-opacity:0.1051"/>
			<stop  offset="1" style="stop-color:#FFFFFF;stop-opacity:0"/>
		</linearGradient>
		<polygon class="st6" points="233.5,93 210.2,93 210.2,107.2 233.5,107.2 		"/>
		
			<linearGradient id="SVGID_9_" gradientUnits="userSpaceOnUse" x1="128.3769" y1="353.9734" x2="146.3756" y2="353.9734" gradientTransform="matrix(-1 0 0 1 358.4922 -304.9051)">
			<stop  offset="1.400000e-07" style="stop-color:#C9CACA"/>
			<stop  offset="0.2387" style="stop-color:#CCCDCD;stop-opacity:0.7613"/>
			<stop  offset="0.463" style="stop-color:#D5D5D6;stop-opacity:0.537"/>
			<stop  offset="0.6814" style="stop-color:#E3E3E3;stop-opacity:0.3186"/>
			<stop  offset="0.8949" style="stop-color:#F5F5F6;stop-opacity:0.1051"/>
			<stop  offset="1" style="stop-color:#FFFFFF;stop-opacity:0"/>
		</linearGradient>
		<polygon class="st7" points="233.5,42 210.2,42 210.2,56.1 233.5,56.1 		"/>
		<circle class="st8" cx="277.4" cy="74.6" r="56.7"/>
		<circle class="st9" cx="277.4" cy="74.6" r="53.9"/>
	</g>
	<g>
		<rect x="72.9" y="15" class="st2" width="2.8" height="5.7"/>
		
			<linearGradient id="SVGID_10_" gradientUnits="userSpaceOnUse" x1="251.4424" y1="330.6606" x2="251.4424" y2="427.3789" gradientTransform="matrix(1 0 0 1 -85.0395 -304.9051)">
			<stop  offset="1.400000e-07" style="stop-color:#DCDDDD"/>
			<stop  offset="5.784580e-02" style="stop-color:#F4F4F4"/>
			<stop  offset="0.1833" style="stop-color:#F4F4F4"/>
			<stop  offset="0.9521" style="stop-color:#F4F4F4"/>
			<stop  offset="0.9592" style="stop-color:#F9F9F9"/>
			<stop  offset="0.9742" style="stop-color:#FEFEFE"/>
			<stop  offset="1" style="stop-color:#FFFFFF"/>
		</linearGradient>
		<rect x="162.2" y="25" class="st10" width="8.5" height="99.2"/>
		
			<linearGradient id="SVGID_11_" gradientUnits="userSpaceOnUse" x1="222.7424" y1="398.4865" x2="222.7424" y2="409.9677" gradientTransform="matrix(1 0 0 1 -85.0395 -304.9051)">
			<stop  offset="0" style="stop-color:#DCDDDD"/>
			<stop  offset="4.150468e-02" style="stop-color:#E1E2E2"/>
			<stop  offset="0.2017" style="stop-color:#EFF0F0"/>
			<stop  offset="0.3854" style="stop-color:#F9F9F9"/>
			<stop  offset="0.6109" style="stop-color:#FEFEFE"/>
			<stop  offset="1" style="stop-color:#FFFFFF"/>
		</linearGradient>
		<rect x="113.3" y="93" class="st11" width="48.9" height="14.2"/>
		
			<linearGradient id="SVGID_12_" gradientUnits="userSpaceOnUse" x1="222.7424" y1="346.5735" x2="222.7424" y2="358.0992" gradientTransform="matrix(1 0 0 1 -85.0395 -304.9051)">
			<stop  offset="0" style="stop-color:#DCDDDD"/>
			<stop  offset="4.150468e-02" style="stop-color:#E1E2E2"/>
			<stop  offset="0.2017" style="stop-color:#EFF0F0"/>
			<stop  offset="0.3854" style="stop-color:#F9F9F9"/>
			<stop  offset="0.6109" style="stop-color:#FEFEFE"/>
			<stop  offset="1" style="stop-color:#FFFFFF"/>
		</linearGradient>
		<rect x="113.3" y="42" class="st12" width="48.9" height="14.2"/>
		
			<linearGradient id="SVGID_13_" gradientUnits="userSpaceOnUse" x1="203.67" y1="405.0235" x2="221.6686" y2="405.0235" gradientTransform="matrix(1 0 0 1 -85.0395 -304.9051)">
			<stop  offset="1.400000e-07" style="stop-color:#C9CACA"/>
			<stop  offset="0.2387" style="stop-color:#CCCDCD;stop-opacity:0.7613"/>
			<stop  offset="0.463" style="stop-color:#D5D5D6;stop-opacity:0.537"/>
			<stop  offset="0.6814" style="stop-color:#E3E3E3;stop-opacity:0.3186"/>
			<stop  offset="0.8949" style="stop-color:#F5F5F6;stop-opacity:0.1051"/>
			<stop  offset="1" style="stop-color:#FFFFFF;stop-opacity:0"/>
		</linearGradient>
		<rect x="115.3" y="93" class="st13" width="23.4" height="14.2"/>
		
			<linearGradient id="SVGID_14_" gradientUnits="userSpaceOnUse" x1="203.67" y1="354.0235" x2="221.6686" y2="354.0235" gradientTransform="matrix(1 0 0 1 -85.0395 -304.9051)">
			<stop  offset="1.400000e-07" style="stop-color:#C9CACA"/>
			<stop  offset="0.2387" style="stop-color:#CCCDCD;stop-opacity:0.7613"/>
			<stop  offset="0.463" style="stop-color:#D5D5D6;stop-opacity:0.537"/>
			<stop  offset="0.6814" style="stop-color:#E3E3E3;stop-opacity:0.3186"/>
			<stop  offset="0.8949" style="stop-color:#F5F5F6;stop-opacity:0.1051"/>
			<stop  offset="1" style="stop-color:#FFFFFF;stop-opacity:0"/>
		</linearGradient>
		<rect x="115.3" y="42" class="st14" width="23.4" height="14.2"/>
		<circle class="st8" cx="71.4" cy="74.6" r="56.7"/>
		<circle class="st9" cx="71.4" cy="74.6" r="53.9"/>
	</g>
</g>
<g id="圖層_5">
	<circle class="st15" cx="71.4" cy="74.6" r="51"/>
	<circle class="st15" cx="277.4" cy="74.6" r="51"/>
</g>
</svg>
